M48
; DRILL file {KiCad (5.1.9)-1} date 03/06/21 13:20:17
; FORMAT={-:-/ absolute / inch / decimal}
; #@! TF.CreationDate,2021-03-06T13:20:17+01:00
; #@! TF.GenerationSoftware,Kicad,Pcbnew,(5.1.9)-1
; #@! TF.FileFunction,Plated,1,2,PTH
FMAT,2
INCH
T1C0.0157
T2C0.0394
%
G90
G05
T1
X5.0Y-3.15
X5.0Y-4.45
X5.0Y-5.05
X5.02Y-3.24
X5.1Y-3.25
X5.105Y-3.345
X5.125Y-4.485
X5.13Y-3.985
X5.14Y-4.145
X5.2Y-3.35
X5.2Y-3.55
X5.2Y-4.67
X5.23Y-3.765
X5.25Y-3.4
X5.3Y-3.8
X5.3Y-4.0
X5.3Y-4.3
X5.3Y-4.55
X5.35Y-4.1
X5.35Y-4.85
X5.35Y-5.05
X5.405Y-4.01
X5.435Y-3.69
X5.45Y-3.0
X5.5Y-3.25
X5.5Y-3.35
X5.5Y-3.4
X5.5Y-3.6
X5.5Y-4.55
X5.505Y-4.055
X5.515Y-4.355
X5.6Y-3.495
X5.6Y-4.005
X5.6Y-4.71
X5.61Y-3.18
X5.61Y-3.58
X5.625Y-3.685
X5.65Y-4.2
X5.68Y-4.005
X5.69Y-4.55
X5.7Y-4.8
X5.715Y-4.03
X5.72Y-4.24
X5.75Y-4.65
X5.785Y-3.175
X5.785Y-3.48
X5.785Y-3.675
X5.8Y-4.45
X5.8Y-4.8
X5.815Y-4.01
X5.835Y-3.665
X5.895Y-3.685
X5.895Y-3.995
X5.9Y-3.0
X5.9Y-3.25
X5.9Y-3.35
X5.9Y-3.9
X5.9Y-4.25
X5.9Y-4.375
X5.95Y-4.68
X6.0Y-4.005
X6.04Y-3.78
X6.05Y-4.5
X6.05Y-4.7
X6.075Y-4.31
X6.1Y-4.6
X6.1093Y-4.2557
X6.145Y-4.385
X6.15Y-3.3
X6.185Y-3.76
X6.2Y-3.25
X6.2Y-3.45
X6.2Y-4.7
X6.22Y-4.155
X6.225Y-4.01
X6.225Y-4.29
X6.225Y-4.515
X6.25Y-3.2
X6.3Y-3.15
X6.34Y-4.04
X6.355Y-4.44
X6.385Y-4.05
X6.39Y-3.145
X6.4Y-3.05
X6.4252Y-4.14
T2
X4.9Y-3.0
X4.9Y-3.1
X4.9Y-3.2
X4.9Y-3.3
X4.9Y-3.4
X4.9Y-3.5
X4.9Y-3.6
X4.9Y-3.7
X4.9Y-3.8
X4.9Y-3.9
X4.9Y-4.0
X4.9Y-4.1
X4.9Y-4.2
X4.9Y-4.3
X4.9Y-4.4
X4.9Y-4.5
X4.9Y-4.6
X4.9Y-4.7
X4.9Y-4.8
X4.9Y-4.9
X4.9Y-5.0
X5.45Y-4.9
X5.55Y-4.9
X5.65Y-4.9
X5.75Y-4.9
X5.85Y-4.9
X5.95Y-4.9
X6.5Y-3.0
X6.5Y-3.1
X6.5Y-3.2
X6.5Y-3.3
X6.5Y-3.4
X6.5Y-3.5
X6.5Y-3.6
X6.5Y-3.7
X6.5Y-3.8
X6.5Y-3.9
X6.5Y-4.0
X6.5Y-4.1
X6.5Y-4.2
X6.5Y-4.3
X6.5Y-4.4
X6.5Y-4.5
X6.5Y-4.6
X6.5Y-4.7
X6.5Y-4.8
X6.5Y-4.9
X6.5Y-5.0
T0
M30
