G04 #@! TF.GenerationSoftware,KiCad,Pcbnew,(5.1.9)-1*
G04 #@! TF.CreationDate,2021-03-06T13:20:15+01:00*
G04 #@! TF.ProjectId,Jennic JN5148-001-M04 breakout,4a656e6e-6963-4204-9a4e-353134382d30,rev?*
G04 #@! TF.SameCoordinates,Original*
G04 #@! TF.FileFunction,Legend,Bot*
G04 #@! TF.FilePolarity,Positive*
%FSLAX46Y46*%
G04 Gerber Fmt 4.6, Leading zero omitted, Abs format (unit mm)*
G04 Created by KiCad (PCBNEW (5.1.9)-1) date 2021-03-06 13:20:15*
%MOMM*%
%LPD*%
G01*
G04 APERTURE LIST*
%ADD10C,0.150000*%
%ADD11C,0.120000*%
G04 APERTURE END LIST*
D10*
X152589523Y-110117380D02*
X152589523Y-109117380D01*
X152160952Y-110117380D02*
X152160952Y-109593571D01*
X152208571Y-109498333D01*
X152303809Y-109450714D01*
X152446666Y-109450714D01*
X152541904Y-109498333D01*
X152589523Y-109545952D01*
X151827619Y-109450714D02*
X151446666Y-109450714D01*
X151684761Y-109117380D02*
X151684761Y-109974523D01*
X151637142Y-110069761D01*
X151541904Y-110117380D01*
X151446666Y-110117380D01*
X151256190Y-109450714D02*
X150875238Y-109450714D01*
X151113333Y-109117380D02*
X151113333Y-109974523D01*
X151065714Y-110069761D01*
X150970476Y-110117380D01*
X150875238Y-110117380D01*
X150541904Y-109450714D02*
X150541904Y-110450714D01*
X150541904Y-109498333D02*
X150446666Y-109450714D01*
X150256190Y-109450714D01*
X150160952Y-109498333D01*
X150113333Y-109545952D01*
X150065714Y-109641190D01*
X150065714Y-109926904D01*
X150113333Y-110022142D01*
X150160952Y-110069761D01*
X150256190Y-110117380D01*
X150446666Y-110117380D01*
X150541904Y-110069761D01*
X149684761Y-110069761D02*
X149589523Y-110117380D01*
X149399047Y-110117380D01*
X149303809Y-110069761D01*
X149256190Y-109974523D01*
X149256190Y-109926904D01*
X149303809Y-109831666D01*
X149399047Y-109784047D01*
X149541904Y-109784047D01*
X149637142Y-109736428D01*
X149684761Y-109641190D01*
X149684761Y-109593571D01*
X149637142Y-109498333D01*
X149541904Y-109450714D01*
X149399047Y-109450714D01*
X149303809Y-109498333D01*
X148827619Y-110022142D02*
X148780000Y-110069761D01*
X148827619Y-110117380D01*
X148875238Y-110069761D01*
X148827619Y-110022142D01*
X148827619Y-110117380D01*
X148827619Y-109498333D02*
X148780000Y-109545952D01*
X148827619Y-109593571D01*
X148875238Y-109545952D01*
X148827619Y-109498333D01*
X148827619Y-109593571D01*
X147637142Y-109069761D02*
X148494285Y-110355476D01*
X146589523Y-109069761D02*
X147446666Y-110355476D01*
X145827619Y-110117380D02*
X145827619Y-109593571D01*
X145875238Y-109498333D01*
X145970476Y-109450714D01*
X146160952Y-109450714D01*
X146256190Y-109498333D01*
X145827619Y-110069761D02*
X145922857Y-110117380D01*
X146160952Y-110117380D01*
X146256190Y-110069761D01*
X146303809Y-109974523D01*
X146303809Y-109879285D01*
X146256190Y-109784047D01*
X146160952Y-109736428D01*
X145922857Y-109736428D01*
X145827619Y-109688809D01*
X145494285Y-109450714D02*
X145113333Y-109450714D01*
X145351428Y-109117380D02*
X145351428Y-109974523D01*
X145303809Y-110069761D01*
X145208571Y-110117380D01*
X145113333Y-110117380D01*
X144637142Y-110117380D02*
X144732380Y-110069761D01*
X144780000Y-110022142D01*
X144827619Y-109926904D01*
X144827619Y-109641190D01*
X144780000Y-109545952D01*
X144732380Y-109498333D01*
X144637142Y-109450714D01*
X144494285Y-109450714D01*
X144399047Y-109498333D01*
X144351428Y-109545952D01*
X144303809Y-109641190D01*
X144303809Y-109926904D01*
X144351428Y-110022142D01*
X144399047Y-110069761D01*
X144494285Y-110117380D01*
X144637142Y-110117380D01*
X143732380Y-110117380D02*
X143827619Y-110069761D01*
X143875238Y-110022142D01*
X143922857Y-109926904D01*
X143922857Y-109641190D01*
X143875238Y-109545952D01*
X143827619Y-109498333D01*
X143732380Y-109450714D01*
X143589523Y-109450714D01*
X143494285Y-109498333D01*
X143446666Y-109545952D01*
X143399047Y-109641190D01*
X143399047Y-109926904D01*
X143446666Y-110022142D01*
X143494285Y-110069761D01*
X143589523Y-110117380D01*
X143732380Y-110117380D01*
X142970476Y-110117380D02*
X142970476Y-109450714D01*
X142970476Y-109545952D02*
X142922857Y-109498333D01*
X142827619Y-109450714D01*
X142684761Y-109450714D01*
X142589523Y-109498333D01*
X142541904Y-109593571D01*
X142541904Y-110117380D01*
X142541904Y-109593571D02*
X142494285Y-109498333D01*
X142399047Y-109450714D01*
X142256190Y-109450714D01*
X142160952Y-109498333D01*
X142113333Y-109593571D01*
X142113333Y-110117380D01*
X141637142Y-109450714D02*
X141637142Y-110117380D01*
X141637142Y-109545952D02*
X141589523Y-109498333D01*
X141494285Y-109450714D01*
X141351428Y-109450714D01*
X141256190Y-109498333D01*
X141208571Y-109593571D01*
X141208571Y-110117380D01*
X140351428Y-110069761D02*
X140446666Y-110117380D01*
X140637142Y-110117380D01*
X140732380Y-110069761D01*
X140780000Y-109974523D01*
X140780000Y-109593571D01*
X140732380Y-109498333D01*
X140637142Y-109450714D01*
X140446666Y-109450714D01*
X140351428Y-109498333D01*
X140303809Y-109593571D01*
X140303809Y-109688809D01*
X140780000Y-109784047D01*
X140018095Y-109450714D02*
X139637142Y-109450714D01*
X139875238Y-109117380D02*
X139875238Y-109974523D01*
X139827619Y-110069761D01*
X139732380Y-110117380D01*
X139637142Y-110117380D01*
X139303809Y-110022142D02*
X139256190Y-110069761D01*
X139303809Y-110117380D01*
X139351428Y-110069761D01*
X139303809Y-110022142D01*
X139303809Y-110117380D01*
X138827619Y-109450714D02*
X138827619Y-110117380D01*
X138827619Y-109545952D02*
X138780000Y-109498333D01*
X138684761Y-109450714D01*
X138541904Y-109450714D01*
X138446666Y-109498333D01*
X138399047Y-109593571D01*
X138399047Y-110117380D01*
X137541904Y-110069761D02*
X137637142Y-110117380D01*
X137827619Y-110117380D01*
X137922857Y-110069761D01*
X137970476Y-109974523D01*
X137970476Y-109593571D01*
X137922857Y-109498333D01*
X137827619Y-109450714D01*
X137637142Y-109450714D01*
X137541904Y-109498333D01*
X137494285Y-109593571D01*
X137494285Y-109688809D01*
X137970476Y-109784047D01*
X137208571Y-109450714D02*
X136827619Y-109450714D01*
X137065714Y-109117380D02*
X137065714Y-109974523D01*
X137018095Y-110069761D01*
X136922857Y-110117380D01*
X136827619Y-110117380D01*
X155303809Y-111481666D02*
X154827619Y-111481666D01*
X155399047Y-111767380D02*
X155065714Y-110767380D01*
X154732380Y-111767380D01*
X154399047Y-111100714D02*
X154399047Y-112100714D01*
X154399047Y-111148333D02*
X154303809Y-111100714D01*
X154113333Y-111100714D01*
X154018095Y-111148333D01*
X153970476Y-111195952D01*
X153922857Y-111291190D01*
X153922857Y-111576904D01*
X153970476Y-111672142D01*
X154018095Y-111719761D01*
X154113333Y-111767380D01*
X154303809Y-111767380D01*
X154399047Y-111719761D01*
X153065714Y-111767380D02*
X153065714Y-111243571D01*
X153113333Y-111148333D01*
X153208571Y-111100714D01*
X153399047Y-111100714D01*
X153494285Y-111148333D01*
X153065714Y-111719761D02*
X153160952Y-111767380D01*
X153399047Y-111767380D01*
X153494285Y-111719761D01*
X153541904Y-111624523D01*
X153541904Y-111529285D01*
X153494285Y-111434047D01*
X153399047Y-111386428D01*
X153160952Y-111386428D01*
X153065714Y-111338809D01*
X152160952Y-111719761D02*
X152256190Y-111767380D01*
X152446666Y-111767380D01*
X152541904Y-111719761D01*
X152589523Y-111672142D01*
X152637142Y-111576904D01*
X152637142Y-111291190D01*
X152589523Y-111195952D01*
X152541904Y-111148333D01*
X152446666Y-111100714D01*
X152256190Y-111100714D01*
X152160952Y-111148333D01*
X151732380Y-111767380D02*
X151732380Y-110767380D01*
X151303809Y-111767380D02*
X151303809Y-111243571D01*
X151351428Y-111148333D01*
X151446666Y-111100714D01*
X151589523Y-111100714D01*
X151684761Y-111148333D01*
X151732380Y-111195952D01*
X150446666Y-111719761D02*
X150541904Y-111767380D01*
X150732380Y-111767380D01*
X150827619Y-111719761D01*
X150875238Y-111624523D01*
X150875238Y-111243571D01*
X150827619Y-111148333D01*
X150732380Y-111100714D01*
X150541904Y-111100714D01*
X150446666Y-111148333D01*
X150399047Y-111243571D01*
X150399047Y-111338809D01*
X150875238Y-111434047D01*
X148732380Y-111767380D02*
X149208571Y-111767380D01*
X149208571Y-110767380D01*
X148399047Y-111767380D02*
X148399047Y-111100714D01*
X148399047Y-110767380D02*
X148446666Y-110815000D01*
X148399047Y-110862619D01*
X148351428Y-110815000D01*
X148399047Y-110767380D01*
X148399047Y-110862619D01*
X147494285Y-111719761D02*
X147589523Y-111767380D01*
X147780000Y-111767380D01*
X147875238Y-111719761D01*
X147922857Y-111672142D01*
X147970476Y-111576904D01*
X147970476Y-111291190D01*
X147922857Y-111195952D01*
X147875238Y-111148333D01*
X147780000Y-111100714D01*
X147589523Y-111100714D01*
X147494285Y-111148333D01*
X146684761Y-111719761D02*
X146780000Y-111767380D01*
X146970476Y-111767380D01*
X147065714Y-111719761D01*
X147113333Y-111624523D01*
X147113333Y-111243571D01*
X147065714Y-111148333D01*
X146970476Y-111100714D01*
X146780000Y-111100714D01*
X146684761Y-111148333D01*
X146637142Y-111243571D01*
X146637142Y-111338809D01*
X147113333Y-111434047D01*
X146208571Y-111100714D02*
X146208571Y-111767380D01*
X146208571Y-111195952D02*
X146160952Y-111148333D01*
X146065714Y-111100714D01*
X145922857Y-111100714D01*
X145827619Y-111148333D01*
X145780000Y-111243571D01*
X145780000Y-111767380D01*
X145351428Y-111719761D02*
X145256190Y-111767380D01*
X145065714Y-111767380D01*
X144970476Y-111719761D01*
X144922857Y-111624523D01*
X144922857Y-111576904D01*
X144970476Y-111481666D01*
X145065714Y-111434047D01*
X145208571Y-111434047D01*
X145303809Y-111386428D01*
X145351428Y-111291190D01*
X145351428Y-111243571D01*
X145303809Y-111148333D01*
X145208571Y-111100714D01*
X145065714Y-111100714D01*
X144970476Y-111148333D01*
X144113333Y-111719761D02*
X144208571Y-111767380D01*
X144399047Y-111767380D01*
X144494285Y-111719761D01*
X144541904Y-111624523D01*
X144541904Y-111243571D01*
X144494285Y-111148333D01*
X144399047Y-111100714D01*
X144208571Y-111100714D01*
X144113333Y-111148333D01*
X144065714Y-111243571D01*
X144065714Y-111338809D01*
X144541904Y-111434047D01*
X143589523Y-111719761D02*
X143589523Y-111767380D01*
X143637142Y-111862619D01*
X143684761Y-111910238D01*
X142541904Y-110767380D02*
X142208571Y-111767380D01*
X141875238Y-110767380D01*
X141160952Y-111719761D02*
X141256190Y-111767380D01*
X141446666Y-111767380D01*
X141541904Y-111719761D01*
X141589523Y-111624523D01*
X141589523Y-111243571D01*
X141541904Y-111148333D01*
X141446666Y-111100714D01*
X141256190Y-111100714D01*
X141160952Y-111148333D01*
X141113333Y-111243571D01*
X141113333Y-111338809D01*
X141589523Y-111434047D01*
X140684761Y-111767380D02*
X140684761Y-111100714D01*
X140684761Y-111291190D02*
X140637142Y-111195952D01*
X140589523Y-111148333D01*
X140494285Y-111100714D01*
X140399047Y-111100714D01*
X140113333Y-111719761D02*
X140018095Y-111767380D01*
X139827619Y-111767380D01*
X139732380Y-111719761D01*
X139684761Y-111624523D01*
X139684761Y-111576904D01*
X139732380Y-111481666D01*
X139827619Y-111434047D01*
X139970476Y-111434047D01*
X140065714Y-111386428D01*
X140113333Y-111291190D01*
X140113333Y-111243571D01*
X140065714Y-111148333D01*
X139970476Y-111100714D01*
X139827619Y-111100714D01*
X139732380Y-111148333D01*
X139256190Y-111767380D02*
X139256190Y-111100714D01*
X139256190Y-110767380D02*
X139303809Y-110815000D01*
X139256190Y-110862619D01*
X139208571Y-110815000D01*
X139256190Y-110767380D01*
X139256190Y-110862619D01*
X138637142Y-111767380D02*
X138732380Y-111719761D01*
X138780000Y-111672142D01*
X138827619Y-111576904D01*
X138827619Y-111291190D01*
X138780000Y-111195952D01*
X138732380Y-111148333D01*
X138637142Y-111100714D01*
X138494285Y-111100714D01*
X138399047Y-111148333D01*
X138351428Y-111195952D01*
X138303809Y-111291190D01*
X138303809Y-111576904D01*
X138351428Y-111672142D01*
X138399047Y-111719761D01*
X138494285Y-111767380D01*
X138637142Y-111767380D01*
X137875238Y-111100714D02*
X137875238Y-111767380D01*
X137875238Y-111195952D02*
X137827619Y-111148333D01*
X137732380Y-111100714D01*
X137589523Y-111100714D01*
X137494285Y-111148333D01*
X137446666Y-111243571D01*
X137446666Y-111767380D01*
X136256190Y-110862619D02*
X136208571Y-110815000D01*
X136113333Y-110767380D01*
X135875238Y-110767380D01*
X135780000Y-110815000D01*
X135732380Y-110862619D01*
X135684761Y-110957857D01*
X135684761Y-111053095D01*
X135732380Y-111195952D01*
X136303809Y-111767380D01*
X135684761Y-111767380D01*
X135256190Y-111672142D02*
X135208571Y-111719761D01*
X135256190Y-111767380D01*
X135303809Y-111719761D01*
X135256190Y-111672142D01*
X135256190Y-111767380D01*
X134589523Y-110767380D02*
X134494285Y-110767380D01*
X134399047Y-110815000D01*
X134351428Y-110862619D01*
X134303809Y-110957857D01*
X134256190Y-111148333D01*
X134256190Y-111386428D01*
X134303809Y-111576904D01*
X134351428Y-111672142D01*
X134399047Y-111719761D01*
X134494285Y-111767380D01*
X134589523Y-111767380D01*
X134684761Y-111719761D01*
X134732380Y-111672142D01*
X134780000Y-111576904D01*
X134827619Y-111386428D01*
X134827619Y-111148333D01*
X134780000Y-110957857D01*
X134732380Y-110862619D01*
X134684761Y-110815000D01*
X134589523Y-110767380D01*
X157970476Y-93877380D02*
X157970476Y-94591666D01*
X158018095Y-94734523D01*
X158113333Y-94829761D01*
X158256190Y-94877380D01*
X158351428Y-94877380D01*
X157494285Y-94877380D02*
X157494285Y-93877380D01*
X156922857Y-94877380D01*
X156922857Y-93877380D01*
X155970476Y-93877380D02*
X156446666Y-93877380D01*
X156494285Y-94353571D01*
X156446666Y-94305952D01*
X156351428Y-94258333D01*
X156113333Y-94258333D01*
X156018095Y-94305952D01*
X155970476Y-94353571D01*
X155922857Y-94448809D01*
X155922857Y-94686904D01*
X155970476Y-94782142D01*
X156018095Y-94829761D01*
X156113333Y-94877380D01*
X156351428Y-94877380D01*
X156446666Y-94829761D01*
X156494285Y-94782142D01*
X154970476Y-94877380D02*
X155541904Y-94877380D01*
X155256190Y-94877380D02*
X155256190Y-93877380D01*
X155351428Y-94020238D01*
X155446666Y-94115476D01*
X155541904Y-94163095D01*
X154113333Y-94210714D02*
X154113333Y-94877380D01*
X154351428Y-93829761D02*
X154589523Y-94544047D01*
X153970476Y-94544047D01*
X153446666Y-94305952D02*
X153541904Y-94258333D01*
X153589523Y-94210714D01*
X153637142Y-94115476D01*
X153637142Y-94067857D01*
X153589523Y-93972619D01*
X153541904Y-93925000D01*
X153446666Y-93877380D01*
X153256190Y-93877380D01*
X153160952Y-93925000D01*
X153113333Y-93972619D01*
X153065714Y-94067857D01*
X153065714Y-94115476D01*
X153113333Y-94210714D01*
X153160952Y-94258333D01*
X153256190Y-94305952D01*
X153446666Y-94305952D01*
X153541904Y-94353571D01*
X153589523Y-94401190D01*
X153637142Y-94496428D01*
X153637142Y-94686904D01*
X153589523Y-94782142D01*
X153541904Y-94829761D01*
X153446666Y-94877380D01*
X153256190Y-94877380D01*
X153160952Y-94829761D01*
X153113333Y-94782142D01*
X153065714Y-94686904D01*
X153065714Y-94496428D01*
X153113333Y-94401190D01*
X153160952Y-94353571D01*
X153256190Y-94305952D01*
X152637142Y-94496428D02*
X151875238Y-94496428D01*
X151208571Y-93877380D02*
X151113333Y-93877380D01*
X151018095Y-93925000D01*
X150970476Y-93972619D01*
X150922857Y-94067857D01*
X150875238Y-94258333D01*
X150875238Y-94496428D01*
X150922857Y-94686904D01*
X150970476Y-94782142D01*
X151018095Y-94829761D01*
X151113333Y-94877380D01*
X151208571Y-94877380D01*
X151303809Y-94829761D01*
X151351428Y-94782142D01*
X151399047Y-94686904D01*
X151446666Y-94496428D01*
X151446666Y-94258333D01*
X151399047Y-94067857D01*
X151351428Y-93972619D01*
X151303809Y-93925000D01*
X151208571Y-93877380D01*
X150256190Y-93877380D02*
X150160952Y-93877380D01*
X150065714Y-93925000D01*
X150018095Y-93972619D01*
X149970476Y-94067857D01*
X149922857Y-94258333D01*
X149922857Y-94496428D01*
X149970476Y-94686904D01*
X150018095Y-94782142D01*
X150065714Y-94829761D01*
X150160952Y-94877380D01*
X150256190Y-94877380D01*
X150351428Y-94829761D01*
X150399047Y-94782142D01*
X150446666Y-94686904D01*
X150494285Y-94496428D01*
X150494285Y-94258333D01*
X150446666Y-94067857D01*
X150399047Y-93972619D01*
X150351428Y-93925000D01*
X150256190Y-93877380D01*
X148970476Y-94877380D02*
X149541904Y-94877380D01*
X149256190Y-94877380D02*
X149256190Y-93877380D01*
X149351428Y-94020238D01*
X149446666Y-94115476D01*
X149541904Y-94163095D01*
X148541904Y-94496428D02*
X147780000Y-94496428D01*
X147303809Y-94877380D02*
X147303809Y-93877380D01*
X146970476Y-94591666D01*
X146637142Y-93877380D01*
X146637142Y-94877380D01*
X145970476Y-93877380D02*
X145875238Y-93877380D01*
X145780000Y-93925000D01*
X145732380Y-93972619D01*
X145684761Y-94067857D01*
X145637142Y-94258333D01*
X145637142Y-94496428D01*
X145684761Y-94686904D01*
X145732380Y-94782142D01*
X145780000Y-94829761D01*
X145875238Y-94877380D01*
X145970476Y-94877380D01*
X146065714Y-94829761D01*
X146113333Y-94782142D01*
X146160952Y-94686904D01*
X146208571Y-94496428D01*
X146208571Y-94258333D01*
X146160952Y-94067857D01*
X146113333Y-93972619D01*
X146065714Y-93925000D01*
X145970476Y-93877380D01*
X144780000Y-94210714D02*
X144780000Y-94877380D01*
X145018095Y-93829761D02*
X145256190Y-94544047D01*
X144637142Y-94544047D01*
X143494285Y-94877380D02*
X143494285Y-94210714D01*
X143494285Y-94305952D02*
X143446666Y-94258333D01*
X143351428Y-94210714D01*
X143208571Y-94210714D01*
X143113333Y-94258333D01*
X143065714Y-94353571D01*
X143065714Y-94877380D01*
X143065714Y-94353571D02*
X143018095Y-94258333D01*
X142922857Y-94210714D01*
X142780000Y-94210714D01*
X142684761Y-94258333D01*
X142637142Y-94353571D01*
X142637142Y-94877380D01*
X142018095Y-94877380D02*
X142113333Y-94829761D01*
X142160952Y-94782142D01*
X142208571Y-94686904D01*
X142208571Y-94401190D01*
X142160952Y-94305952D01*
X142113333Y-94258333D01*
X142018095Y-94210714D01*
X141875238Y-94210714D01*
X141780000Y-94258333D01*
X141732380Y-94305952D01*
X141684761Y-94401190D01*
X141684761Y-94686904D01*
X141732380Y-94782142D01*
X141780000Y-94829761D01*
X141875238Y-94877380D01*
X142018095Y-94877380D01*
X140827619Y-94877380D02*
X140827619Y-93877380D01*
X140827619Y-94829761D02*
X140922857Y-94877380D01*
X141113333Y-94877380D01*
X141208571Y-94829761D01*
X141256190Y-94782142D01*
X141303809Y-94686904D01*
X141303809Y-94401190D01*
X141256190Y-94305952D01*
X141208571Y-94258333D01*
X141113333Y-94210714D01*
X140922857Y-94210714D01*
X140827619Y-94258333D01*
X139922857Y-94210714D02*
X139922857Y-94877380D01*
X140351428Y-94210714D02*
X140351428Y-94734523D01*
X140303809Y-94829761D01*
X140208571Y-94877380D01*
X140065714Y-94877380D01*
X139970476Y-94829761D01*
X139922857Y-94782142D01*
X139303809Y-94877380D02*
X139399047Y-94829761D01*
X139446666Y-94734523D01*
X139446666Y-93877380D01*
X138541904Y-94829761D02*
X138637142Y-94877380D01*
X138827619Y-94877380D01*
X138922857Y-94829761D01*
X138970476Y-94734523D01*
X138970476Y-94353571D01*
X138922857Y-94258333D01*
X138827619Y-94210714D01*
X138637142Y-94210714D01*
X138541904Y-94258333D01*
X138494285Y-94353571D01*
X138494285Y-94448809D01*
X138970476Y-94544047D01*
X137303809Y-94877380D02*
X137303809Y-93877380D01*
X137303809Y-94258333D02*
X137208571Y-94210714D01*
X137018095Y-94210714D01*
X136922857Y-94258333D01*
X136875238Y-94305952D01*
X136827619Y-94401190D01*
X136827619Y-94686904D01*
X136875238Y-94782142D01*
X136922857Y-94829761D01*
X137018095Y-94877380D01*
X137208571Y-94877380D01*
X137303809Y-94829761D01*
X136399047Y-94877380D02*
X136399047Y-94210714D01*
X136399047Y-94401190D02*
X136351428Y-94305952D01*
X136303809Y-94258333D01*
X136208571Y-94210714D01*
X136113333Y-94210714D01*
X135399047Y-94829761D02*
X135494285Y-94877380D01*
X135684761Y-94877380D01*
X135780000Y-94829761D01*
X135827619Y-94734523D01*
X135827619Y-94353571D01*
X135780000Y-94258333D01*
X135684761Y-94210714D01*
X135494285Y-94210714D01*
X135399047Y-94258333D01*
X135351428Y-94353571D01*
X135351428Y-94448809D01*
X135827619Y-94544047D01*
X134494285Y-94877380D02*
X134494285Y-94353571D01*
X134541904Y-94258333D01*
X134637142Y-94210714D01*
X134827619Y-94210714D01*
X134922857Y-94258333D01*
X134494285Y-94829761D02*
X134589523Y-94877380D01*
X134827619Y-94877380D01*
X134922857Y-94829761D01*
X134970476Y-94734523D01*
X134970476Y-94639285D01*
X134922857Y-94544047D01*
X134827619Y-94496428D01*
X134589523Y-94496428D01*
X134494285Y-94448809D01*
X134018095Y-94877380D02*
X134018095Y-93877380D01*
X133922857Y-94496428D02*
X133637142Y-94877380D01*
X133637142Y-94210714D02*
X134018095Y-94591666D01*
X133065714Y-94877380D02*
X133160952Y-94829761D01*
X133208571Y-94782142D01*
X133256190Y-94686904D01*
X133256190Y-94401190D01*
X133208571Y-94305952D01*
X133160952Y-94258333D01*
X133065714Y-94210714D01*
X132922857Y-94210714D01*
X132827619Y-94258333D01*
X132780000Y-94305952D01*
X132732380Y-94401190D01*
X132732380Y-94686904D01*
X132780000Y-94782142D01*
X132827619Y-94829761D01*
X132922857Y-94877380D01*
X133065714Y-94877380D01*
X131875238Y-94210714D02*
X131875238Y-94877380D01*
X132303809Y-94210714D02*
X132303809Y-94734523D01*
X132256190Y-94829761D01*
X132160952Y-94877380D01*
X132018095Y-94877380D01*
X131922857Y-94829761D01*
X131875238Y-94782142D01*
X131541904Y-94210714D02*
X131160952Y-94210714D01*
X131399047Y-93877380D02*
X131399047Y-94734523D01*
X131351428Y-94829761D01*
X131256190Y-94877380D01*
X131160952Y-94877380D01*
X151637142Y-95622619D02*
X151589523Y-95575000D01*
X151494285Y-95527380D01*
X151256190Y-95527380D01*
X151160952Y-95575000D01*
X151113333Y-95622619D01*
X151065714Y-95717857D01*
X151065714Y-95813095D01*
X151113333Y-95955952D01*
X151684761Y-96527380D01*
X151065714Y-96527380D01*
X150446666Y-95527380D02*
X150351428Y-95527380D01*
X150256190Y-95575000D01*
X150208571Y-95622619D01*
X150160952Y-95717857D01*
X150113333Y-95908333D01*
X150113333Y-96146428D01*
X150160952Y-96336904D01*
X150208571Y-96432142D01*
X150256190Y-96479761D01*
X150351428Y-96527380D01*
X150446666Y-96527380D01*
X150541904Y-96479761D01*
X150589523Y-96432142D01*
X150637142Y-96336904D01*
X150684761Y-96146428D01*
X150684761Y-95908333D01*
X150637142Y-95717857D01*
X150589523Y-95622619D01*
X150541904Y-95575000D01*
X150446666Y-95527380D01*
X149732380Y-95622619D02*
X149684761Y-95575000D01*
X149589523Y-95527380D01*
X149351428Y-95527380D01*
X149256190Y-95575000D01*
X149208571Y-95622619D01*
X149160952Y-95717857D01*
X149160952Y-95813095D01*
X149208571Y-95955952D01*
X149780000Y-96527380D01*
X149160952Y-96527380D01*
X148208571Y-96527380D02*
X148780000Y-96527380D01*
X148494285Y-96527380D02*
X148494285Y-95527380D01*
X148589523Y-95670238D01*
X148684761Y-95765476D01*
X148780000Y-95813095D01*
X147780000Y-96146428D02*
X147018095Y-96146428D01*
X146351428Y-95527380D02*
X146256190Y-95527380D01*
X146160952Y-95575000D01*
X146113333Y-95622619D01*
X146065714Y-95717857D01*
X146018095Y-95908333D01*
X146018095Y-96146428D01*
X146065714Y-96336904D01*
X146113333Y-96432142D01*
X146160952Y-96479761D01*
X146256190Y-96527380D01*
X146351428Y-96527380D01*
X146446666Y-96479761D01*
X146494285Y-96432142D01*
X146541904Y-96336904D01*
X146589523Y-96146428D01*
X146589523Y-95908333D01*
X146541904Y-95717857D01*
X146494285Y-95622619D01*
X146446666Y-95575000D01*
X146351428Y-95527380D01*
X145637142Y-95622619D02*
X145589523Y-95575000D01*
X145494285Y-95527380D01*
X145256190Y-95527380D01*
X145160952Y-95575000D01*
X145113333Y-95622619D01*
X145065714Y-95717857D01*
X145065714Y-95813095D01*
X145113333Y-95955952D01*
X145684761Y-96527380D01*
X145065714Y-96527380D01*
X144637142Y-96146428D02*
X143875238Y-96146428D01*
X143446666Y-95622619D02*
X143399047Y-95575000D01*
X143303809Y-95527380D01*
X143065714Y-95527380D01*
X142970476Y-95575000D01*
X142922857Y-95622619D01*
X142875238Y-95717857D01*
X142875238Y-95813095D01*
X142922857Y-95955952D01*
X143494285Y-96527380D01*
X142875238Y-96527380D01*
X142018095Y-95860714D02*
X142018095Y-96527380D01*
X142256190Y-95479761D02*
X142494285Y-96194047D01*
X141875238Y-96194047D01*
X140875238Y-95527380D02*
X140541904Y-96527380D01*
X140208571Y-95527380D01*
X139351428Y-96527380D02*
X139922857Y-96527380D01*
X139637142Y-96527380D02*
X139637142Y-95527380D01*
X139732380Y-95670238D01*
X139827619Y-95765476D01*
X139922857Y-95813095D01*
X138922857Y-96432142D02*
X138875238Y-96479761D01*
X138922857Y-96527380D01*
X138970476Y-96479761D01*
X138922857Y-96432142D01*
X138922857Y-96527380D01*
X138256190Y-95527380D02*
X138160952Y-95527380D01*
X138065714Y-95575000D01*
X138018095Y-95622619D01*
X137970476Y-95717857D01*
X137922857Y-95908333D01*
X137922857Y-96146428D01*
X137970476Y-96336904D01*
X138018095Y-96432142D01*
X138065714Y-96479761D01*
X138160952Y-96527380D01*
X138256190Y-96527380D01*
X138351428Y-96479761D01*
X138399047Y-96432142D01*
X138446666Y-96336904D01*
X138494285Y-96146428D01*
X138494285Y-95908333D01*
X138446666Y-95717857D01*
X138399047Y-95622619D01*
X138351428Y-95575000D01*
X138256190Y-95527380D01*
D11*
X144518748Y-98325000D02*
X145041252Y-98325000D01*
X144518748Y-99795000D02*
X145041252Y-99795000D01*
X163770000Y-128330000D02*
X165100000Y-128330000D01*
X163770000Y-127000000D02*
X163770000Y-128330000D01*
X163770000Y-125730000D02*
X166430000Y-125730000D01*
X166430000Y-125730000D02*
X166430000Y-74870000D01*
X163770000Y-125730000D02*
X163770000Y-74870000D01*
X163770000Y-74870000D02*
X166430000Y-74870000D01*
X125790000Y-74870000D02*
X124460000Y-74870000D01*
X125790000Y-76200000D02*
X125790000Y-74870000D01*
X125790000Y-77470000D02*
X123130000Y-77470000D01*
X123130000Y-77470000D02*
X123130000Y-128330000D01*
X125790000Y-77470000D02*
X125790000Y-128330000D01*
X125790000Y-128330000D02*
X123130000Y-128330000D01*
X141370000Y-76520000D02*
X141370000Y-82530000D01*
X148190000Y-78770000D02*
X148190000Y-82530000D01*
X141370000Y-82530000D02*
X142630000Y-82530000D01*
X148190000Y-82530000D02*
X146930000Y-82530000D01*
X142012936Y-114835000D02*
X142467064Y-114835000D01*
X142012936Y-116305000D02*
X142467064Y-116305000D01*
X136932936Y-114835000D02*
X137387064Y-114835000D01*
X136932936Y-116305000D02*
X137387064Y-116305000D01*
X141505000Y-104367064D02*
X141505000Y-103912936D01*
X142975000Y-104367064D02*
X142975000Y-103912936D01*
X136425000Y-104637064D02*
X136425000Y-104182936D01*
X137895000Y-104637064D02*
X137895000Y-104182936D01*
X139165000Y-78478748D02*
X139165000Y-79001252D01*
X137695000Y-78478748D02*
X137695000Y-79001252D01*
X151865000Y-78478748D02*
X151865000Y-79001252D01*
X150395000Y-78478748D02*
X150395000Y-79001252D01*
X146585000Y-104367064D02*
X146585000Y-103912936D01*
X148055000Y-104367064D02*
X148055000Y-103912936D01*
X155475000Y-104367064D02*
X155475000Y-103912936D01*
X156945000Y-104367064D02*
X156945000Y-103912936D01*
X153135000Y-103878748D02*
X153135000Y-104401252D01*
X151665000Y-103878748D02*
X151665000Y-104401252D01*
X147190000Y-92440000D02*
X149990000Y-92440000D01*
X150640000Y-91740000D02*
X150640000Y-91140000D01*
X149990000Y-90440000D02*
X147190000Y-90440000D01*
X146540000Y-91140000D02*
X146540000Y-91740000D01*
X147390000Y-90240000D02*
X147090000Y-89940000D01*
X147090000Y-89940000D02*
X147690000Y-89940000D01*
X147390000Y-90240000D02*
X147690000Y-89940000D01*
X146540000Y-91740000D02*
G75*
G03*
X147240000Y-92440000I700000J0D01*
G01*
X147240000Y-90440000D02*
G75*
G03*
X146540000Y-91140000I0J-700000D01*
G01*
X150640000Y-91140000D02*
G75*
G03*
X149940000Y-90440000I-700000J0D01*
G01*
X149940000Y-92440000D02*
G75*
G03*
X150640000Y-91740000I0J700000D01*
G01*
X138700000Y-88200000D02*
X138700000Y-89600000D01*
X139400000Y-90300000D02*
X140000000Y-90300000D01*
X140700000Y-89600000D02*
X140700000Y-88200000D01*
X140000000Y-87500000D02*
X139400000Y-87500000D01*
X139400000Y-87500000D02*
G75*
G03*
X138700000Y-88200000I0J-700000D01*
G01*
X140700000Y-88200000D02*
G75*
G03*
X140000000Y-87500000I-700000J0D01*
G01*
X140000000Y-90300000D02*
G75*
G03*
X140700000Y-89600000I0J700000D01*
G01*
X138700000Y-89600000D02*
G75*
G03*
X139400000Y-90300000I700000J0D01*
G01*
D10*
X144946666Y-101097142D02*
X144994285Y-101144761D01*
X145137142Y-101192380D01*
X145232380Y-101192380D01*
X145375238Y-101144761D01*
X145470476Y-101049523D01*
X145518095Y-100954285D01*
X145565714Y-100763809D01*
X145565714Y-100620952D01*
X145518095Y-100430476D01*
X145470476Y-100335238D01*
X145375238Y-100240000D01*
X145232380Y-100192380D01*
X145137142Y-100192380D01*
X144994285Y-100240000D01*
X144946666Y-100287619D01*
X144565714Y-100287619D02*
X144518095Y-100240000D01*
X144422857Y-100192380D01*
X144184761Y-100192380D01*
X144089523Y-100240000D01*
X144041904Y-100287619D01*
X143994285Y-100382857D01*
X143994285Y-100478095D01*
X144041904Y-100620952D01*
X144613333Y-101192380D01*
X143994285Y-101192380D01*
X162766333Y-127722380D02*
X162766333Y-128436666D01*
X162813952Y-128579523D01*
X162909190Y-128674761D01*
X163052047Y-128722380D01*
X163147285Y-128722380D01*
X162337761Y-127817619D02*
X162290142Y-127770000D01*
X162194904Y-127722380D01*
X161956809Y-127722380D01*
X161861571Y-127770000D01*
X161813952Y-127817619D01*
X161766333Y-127912857D01*
X161766333Y-128008095D01*
X161813952Y-128150952D01*
X162385380Y-128722380D01*
X161766333Y-128722380D01*
X127333333Y-75017380D02*
X127333333Y-75731666D01*
X127380952Y-75874523D01*
X127476190Y-75969761D01*
X127619047Y-76017380D01*
X127714285Y-76017380D01*
X126333333Y-76017380D02*
X126904761Y-76017380D01*
X126619047Y-76017380D02*
X126619047Y-75017380D01*
X126714285Y-75160238D01*
X126809523Y-75255476D01*
X126904761Y-75303095D01*
X142747904Y-85304380D02*
X142747904Y-86113904D01*
X142700285Y-86209142D01*
X142652666Y-86256761D01*
X142557428Y-86304380D01*
X142366952Y-86304380D01*
X142271714Y-86256761D01*
X142224095Y-86209142D01*
X142176476Y-86113904D01*
X142176476Y-85304380D01*
X141747904Y-85399619D02*
X141700285Y-85352000D01*
X141605047Y-85304380D01*
X141366952Y-85304380D01*
X141271714Y-85352000D01*
X141224095Y-85399619D01*
X141176476Y-85494857D01*
X141176476Y-85590095D01*
X141224095Y-85732952D01*
X141795523Y-86304380D01*
X141176476Y-86304380D01*
X142406666Y-117672380D02*
X142740000Y-117196190D01*
X142978095Y-117672380D02*
X142978095Y-116672380D01*
X142597142Y-116672380D01*
X142501904Y-116720000D01*
X142454285Y-116767619D01*
X142406666Y-116862857D01*
X142406666Y-117005714D01*
X142454285Y-117100952D01*
X142501904Y-117148571D01*
X142597142Y-117196190D01*
X142978095Y-117196190D01*
X141549523Y-116672380D02*
X141740000Y-116672380D01*
X141835238Y-116720000D01*
X141882857Y-116767619D01*
X141978095Y-116910476D01*
X142025714Y-117100952D01*
X142025714Y-117481904D01*
X141978095Y-117577142D01*
X141930476Y-117624761D01*
X141835238Y-117672380D01*
X141644761Y-117672380D01*
X141549523Y-117624761D01*
X141501904Y-117577142D01*
X141454285Y-117481904D01*
X141454285Y-117243809D01*
X141501904Y-117148571D01*
X141549523Y-117100952D01*
X141644761Y-117053333D01*
X141835238Y-117053333D01*
X141930476Y-117100952D01*
X141978095Y-117148571D01*
X142025714Y-117243809D01*
X137326666Y-117672380D02*
X137660000Y-117196190D01*
X137898095Y-117672380D02*
X137898095Y-116672380D01*
X137517142Y-116672380D01*
X137421904Y-116720000D01*
X137374285Y-116767619D01*
X137326666Y-116862857D01*
X137326666Y-117005714D01*
X137374285Y-117100952D01*
X137421904Y-117148571D01*
X137517142Y-117196190D01*
X137898095Y-117196190D01*
X136421904Y-116672380D02*
X136898095Y-116672380D01*
X136945714Y-117148571D01*
X136898095Y-117100952D01*
X136802857Y-117053333D01*
X136564761Y-117053333D01*
X136469523Y-117100952D01*
X136421904Y-117148571D01*
X136374285Y-117243809D01*
X136374285Y-117481904D01*
X136421904Y-117577142D01*
X136469523Y-117624761D01*
X136564761Y-117672380D01*
X136802857Y-117672380D01*
X136898095Y-117624761D01*
X136945714Y-117577142D01*
X144342380Y-103973333D02*
X143866190Y-103640000D01*
X144342380Y-103401904D02*
X143342380Y-103401904D01*
X143342380Y-103782857D01*
X143390000Y-103878095D01*
X143437619Y-103925714D01*
X143532857Y-103973333D01*
X143675714Y-103973333D01*
X143770952Y-103925714D01*
X143818571Y-103878095D01*
X143866190Y-103782857D01*
X143866190Y-103401904D01*
X143675714Y-104830476D02*
X144342380Y-104830476D01*
X143294761Y-104592380D02*
X144009047Y-104354285D01*
X144009047Y-104973333D01*
X139262380Y-104243333D02*
X138786190Y-103910000D01*
X139262380Y-103671904D02*
X138262380Y-103671904D01*
X138262380Y-104052857D01*
X138310000Y-104148095D01*
X138357619Y-104195714D01*
X138452857Y-104243333D01*
X138595714Y-104243333D01*
X138690952Y-104195714D01*
X138738571Y-104148095D01*
X138786190Y-104052857D01*
X138786190Y-103671904D01*
X138262380Y-104576666D02*
X138262380Y-105195714D01*
X138643333Y-104862380D01*
X138643333Y-105005238D01*
X138690952Y-105100476D01*
X138738571Y-105148095D01*
X138833809Y-105195714D01*
X139071904Y-105195714D01*
X139167142Y-105148095D01*
X139214761Y-105100476D01*
X139262380Y-105005238D01*
X139262380Y-104719523D01*
X139214761Y-104624285D01*
X139167142Y-104576666D01*
X138596666Y-81764142D02*
X138644285Y-81811761D01*
X138787142Y-81859380D01*
X138882380Y-81859380D01*
X139025238Y-81811761D01*
X139120476Y-81716523D01*
X139168095Y-81621285D01*
X139215714Y-81430809D01*
X139215714Y-81287952D01*
X139168095Y-81097476D01*
X139120476Y-81002238D01*
X139025238Y-80907000D01*
X138882380Y-80859380D01*
X138787142Y-80859380D01*
X138644285Y-80907000D01*
X138596666Y-80954619D01*
X137739523Y-81192714D02*
X137739523Y-81859380D01*
X137977619Y-80811761D02*
X138215714Y-81526047D01*
X137596666Y-81526047D01*
X151296666Y-81764142D02*
X151344285Y-81811761D01*
X151487142Y-81859380D01*
X151582380Y-81859380D01*
X151725238Y-81811761D01*
X151820476Y-81716523D01*
X151868095Y-81621285D01*
X151915714Y-81430809D01*
X151915714Y-81287952D01*
X151868095Y-81097476D01*
X151820476Y-81002238D01*
X151725238Y-80907000D01*
X151582380Y-80859380D01*
X151487142Y-80859380D01*
X151344285Y-80907000D01*
X151296666Y-80954619D01*
X150963333Y-80859380D02*
X150344285Y-80859380D01*
X150677619Y-81240333D01*
X150534761Y-81240333D01*
X150439523Y-81287952D01*
X150391904Y-81335571D01*
X150344285Y-81430809D01*
X150344285Y-81668904D01*
X150391904Y-81764142D01*
X150439523Y-81811761D01*
X150534761Y-81859380D01*
X150820476Y-81859380D01*
X150915714Y-81811761D01*
X150963333Y-81764142D01*
X149422380Y-103973333D02*
X148946190Y-103640000D01*
X149422380Y-103401904D02*
X148422380Y-103401904D01*
X148422380Y-103782857D01*
X148470000Y-103878095D01*
X148517619Y-103925714D01*
X148612857Y-103973333D01*
X148755714Y-103973333D01*
X148850952Y-103925714D01*
X148898571Y-103878095D01*
X148946190Y-103782857D01*
X148946190Y-103401904D01*
X148517619Y-104354285D02*
X148470000Y-104401904D01*
X148422380Y-104497142D01*
X148422380Y-104735238D01*
X148470000Y-104830476D01*
X148517619Y-104878095D01*
X148612857Y-104925714D01*
X148708095Y-104925714D01*
X148850952Y-104878095D01*
X149422380Y-104306666D01*
X149422380Y-104925714D01*
X158312380Y-103973333D02*
X157836190Y-103640000D01*
X158312380Y-103401904D02*
X157312380Y-103401904D01*
X157312380Y-103782857D01*
X157360000Y-103878095D01*
X157407619Y-103925714D01*
X157502857Y-103973333D01*
X157645714Y-103973333D01*
X157740952Y-103925714D01*
X157788571Y-103878095D01*
X157836190Y-103782857D01*
X157836190Y-103401904D01*
X158312380Y-104925714D02*
X158312380Y-104354285D01*
X158312380Y-104640000D02*
X157312380Y-104640000D01*
X157455238Y-104544761D01*
X157550476Y-104449523D01*
X157598095Y-104354285D01*
X151077142Y-103973333D02*
X151124761Y-103925714D01*
X151172380Y-103782857D01*
X151172380Y-103687619D01*
X151124761Y-103544761D01*
X151029523Y-103449523D01*
X150934285Y-103401904D01*
X150743809Y-103354285D01*
X150600952Y-103354285D01*
X150410476Y-103401904D01*
X150315238Y-103449523D01*
X150220000Y-103544761D01*
X150172380Y-103687619D01*
X150172380Y-103782857D01*
X150220000Y-103925714D01*
X150267619Y-103973333D01*
X151172380Y-104925714D02*
X151172380Y-104354285D01*
X151172380Y-104640000D02*
X150172380Y-104640000D01*
X150315238Y-104544761D01*
X150410476Y-104449523D01*
X150458095Y-104354285D01*
X150058333Y-89114380D02*
X150058333Y-89828666D01*
X150105952Y-89971523D01*
X150201190Y-90066761D01*
X150344047Y-90114380D01*
X150439285Y-90114380D01*
X149582142Y-90114380D02*
X149582142Y-89114380D01*
X149201190Y-89114380D01*
X149105952Y-89162000D01*
X149058333Y-89209619D01*
X149010714Y-89304857D01*
X149010714Y-89447714D01*
X149058333Y-89542952D01*
X149105952Y-89590571D01*
X149201190Y-89638190D01*
X149582142Y-89638190D01*
X148629761Y-89209619D02*
X148582142Y-89162000D01*
X148486904Y-89114380D01*
X148248809Y-89114380D01*
X148153571Y-89162000D01*
X148105952Y-89209619D01*
X148058333Y-89304857D01*
X148058333Y-89400095D01*
X148105952Y-89542952D01*
X148677380Y-90114380D01*
X148058333Y-90114380D01*
X137352380Y-88066666D02*
X138066666Y-88066666D01*
X138209523Y-88019047D01*
X138304761Y-87923809D01*
X138352380Y-87780952D01*
X138352380Y-87685714D01*
X138352380Y-88542857D02*
X137352380Y-88542857D01*
X137352380Y-88923809D01*
X137400000Y-89019047D01*
X137447619Y-89066666D01*
X137542857Y-89114285D01*
X137685714Y-89114285D01*
X137780952Y-89066666D01*
X137828571Y-89019047D01*
X137876190Y-88923809D01*
X137876190Y-88542857D01*
X138352380Y-90066666D02*
X138352380Y-89495238D01*
X138352380Y-89780952D02*
X137352380Y-89780952D01*
X137495238Y-89685714D01*
X137590476Y-89590476D01*
X137638095Y-89495238D01*
M02*
