G04 #@! TF.GenerationSoftware,KiCad,Pcbnew,(5.1.9)-1*
G04 #@! TF.CreationDate,2021-03-06T13:20:15+01:00*
G04 #@! TF.ProjectId,Jennic JN5148-001-M04 breakout,4a656e6e-6963-4204-9a4e-353134382d30,rev?*
G04 #@! TF.SameCoordinates,Original*
G04 #@! TF.FileFunction,Copper,L1,Top*
G04 #@! TF.FilePolarity,Positive*
%FSLAX46Y46*%
G04 Gerber Fmt 4.6, Leading zero omitted, Abs format (unit mm)*
G04 Created by KiCad (PCBNEW (5.1.9)-1) date 2021-03-06 13:20:15*
%MOMM*%
%LPD*%
G01*
G04 APERTURE LIST*
G04 #@! TA.AperFunction,SMDPad,CuDef*
%ADD10O,1.000000X2.500000*%
G04 #@! TD*
G04 #@! TA.AperFunction,SMDPad,CuDef*
%ADD11O,2.500000X1.000000*%
G04 #@! TD*
G04 #@! TA.AperFunction,ComponentPad*
%ADD12O,1.700000X1.700000*%
G04 #@! TD*
G04 #@! TA.AperFunction,ComponentPad*
%ADD13R,1.700000X1.700000*%
G04 #@! TD*
G04 #@! TA.AperFunction,SMDPad,CuDef*
%ADD14R,1.500000X1.500000*%
G04 #@! TD*
G04 #@! TA.AperFunction,ViaPad*
%ADD15C,0.800000*%
G04 #@! TD*
G04 #@! TA.AperFunction,Conductor*
%ADD16C,0.250000*%
G04 #@! TD*
G04 #@! TA.AperFunction,Conductor*
%ADD17C,0.500000*%
G04 #@! TD*
G04 #@! TA.AperFunction,Conductor*
%ADD18C,0.254000*%
G04 #@! TD*
G04 #@! TA.AperFunction,Conductor*
%ADD19C,0.100000*%
G04 #@! TD*
G04 APERTURE END LIST*
D10*
X151000000Y-96710000D03*
X149730000Y-96710000D03*
X148460000Y-96710000D03*
X147190000Y-96710000D03*
X145920000Y-96710000D03*
X144650000Y-96710000D03*
X143380000Y-96710000D03*
X142110000Y-96710000D03*
X140840000Y-96710000D03*
X139570000Y-96710000D03*
X138300000Y-96710000D03*
D11*
X153990000Y-76200000D03*
X153990000Y-77470000D03*
X153990000Y-78740000D03*
X153990000Y-80010000D03*
X153990000Y-82550000D03*
X153990000Y-85090000D03*
X153990000Y-83820000D03*
X153990000Y-81280000D03*
X153990000Y-92710000D03*
X153990000Y-91440000D03*
X153990000Y-88900000D03*
X153990000Y-90170000D03*
X153990000Y-86360000D03*
X153990000Y-87630000D03*
X153990000Y-93980000D03*
X135570000Y-76200000D03*
X135570000Y-77470000D03*
X135570000Y-78740000D03*
X135570000Y-80010000D03*
X135570000Y-81280000D03*
X135570000Y-82550000D03*
X135570000Y-83820000D03*
X135570000Y-85090000D03*
X135570000Y-86360000D03*
X135570000Y-87630000D03*
X135570000Y-88900000D03*
X135570000Y-90170000D03*
X135570000Y-91440000D03*
X135570000Y-92710000D03*
X135570000Y-93980000D03*
D12*
X165100000Y-76200000D03*
X165100000Y-78740000D03*
X165100000Y-81280000D03*
X165100000Y-83820000D03*
X165100000Y-86360000D03*
X165100000Y-88900000D03*
X165100000Y-91440000D03*
X165100000Y-93980000D03*
X165100000Y-96520000D03*
X165100000Y-99060000D03*
X165100000Y-101600000D03*
X165100000Y-104140000D03*
X165100000Y-106680000D03*
X165100000Y-109220000D03*
X165100000Y-111760000D03*
X165100000Y-114300000D03*
X165100000Y-116840000D03*
X165100000Y-119380000D03*
X165100000Y-121920000D03*
X165100000Y-124460000D03*
D13*
X165100000Y-127000000D03*
D12*
X124460000Y-127000000D03*
X124460000Y-124460000D03*
X124460000Y-121920000D03*
X124460000Y-119380000D03*
X124460000Y-116840000D03*
X124460000Y-114300000D03*
X124460000Y-111760000D03*
X124460000Y-109220000D03*
X124460000Y-106680000D03*
X124460000Y-104140000D03*
X124460000Y-101600000D03*
X124460000Y-99060000D03*
X124460000Y-96520000D03*
X124460000Y-93980000D03*
X124460000Y-91440000D03*
X124460000Y-88900000D03*
X124460000Y-86360000D03*
X124460000Y-83820000D03*
X124460000Y-81280000D03*
X124460000Y-78740000D03*
D13*
X124460000Y-76200000D03*
D14*
X142240000Y-100240000D03*
X142240000Y-108040000D03*
X137160000Y-100240000D03*
X137160000Y-108040000D03*
D12*
X138430000Y-124460000D03*
X140970000Y-124460000D03*
X143510000Y-124460000D03*
X146050000Y-124460000D03*
X148590000Y-124460000D03*
D13*
X151130000Y-124460000D03*
G04 #@! TA.AperFunction,SMDPad,CuDef*
G36*
G01*
X142690000Y-116020001D02*
X142690000Y-115119999D01*
G75*
G02*
X142939999Y-114870000I249999J0D01*
G01*
X143590001Y-114870000D01*
G75*
G02*
X143840000Y-115119999I0J-249999D01*
G01*
X143840000Y-116020001D01*
G75*
G02*
X143590001Y-116270000I-249999J0D01*
G01*
X142939999Y-116270000D01*
G75*
G02*
X142690000Y-116020001I0J249999D01*
G01*
G37*
G04 #@! TD.AperFunction*
G04 #@! TA.AperFunction,SMDPad,CuDef*
G36*
G01*
X140640000Y-116020001D02*
X140640000Y-115119999D01*
G75*
G02*
X140889999Y-114870000I249999J0D01*
G01*
X141540001Y-114870000D01*
G75*
G02*
X141790000Y-115119999I0J-249999D01*
G01*
X141790000Y-116020001D01*
G75*
G02*
X141540001Y-116270000I-249999J0D01*
G01*
X140889999Y-116270000D01*
G75*
G02*
X140640000Y-116020001I0J249999D01*
G01*
G37*
G04 #@! TD.AperFunction*
G04 #@! TA.AperFunction,SMDPad,CuDef*
G36*
G01*
X137610000Y-116020001D02*
X137610000Y-115119999D01*
G75*
G02*
X137859999Y-114870000I249999J0D01*
G01*
X138510001Y-114870000D01*
G75*
G02*
X138760000Y-115119999I0J-249999D01*
G01*
X138760000Y-116020001D01*
G75*
G02*
X138510001Y-116270000I-249999J0D01*
G01*
X137859999Y-116270000D01*
G75*
G02*
X137610000Y-116020001I0J249999D01*
G01*
G37*
G04 #@! TD.AperFunction*
G04 #@! TA.AperFunction,SMDPad,CuDef*
G36*
G01*
X135560000Y-116020001D02*
X135560000Y-115119999D01*
G75*
G02*
X135809999Y-114870000I249999J0D01*
G01*
X136460001Y-114870000D01*
G75*
G02*
X136710000Y-115119999I0J-249999D01*
G01*
X136710000Y-116020001D01*
G75*
G02*
X136460001Y-116270000I-249999J0D01*
G01*
X135809999Y-116270000D01*
G75*
G02*
X135560000Y-116020001I0J249999D01*
G01*
G37*
G04 #@! TD.AperFunction*
D14*
X152400000Y-100240000D03*
X152400000Y-108040000D03*
X147320000Y-100240000D03*
X147320000Y-108040000D03*
D15*
X139700000Y-86360000D03*
X139700000Y-91440000D03*
X155176207Y-108094793D03*
X146939000Y-93345000D03*
X148209000Y-93091000D03*
X139700000Y-82550000D03*
X149860000Y-82550000D03*
X149860000Y-85090000D03*
X139700000Y-85090000D03*
X132080000Y-85090000D03*
X129667000Y-84963000D03*
X129540000Y-82550000D03*
X127508000Y-82296000D03*
X127000000Y-80010000D03*
X133350000Y-86360000D03*
X132080000Y-90170000D03*
X132842000Y-95631000D03*
X156210000Y-83820000D03*
X157480000Y-82550000D03*
X158750000Y-81280000D03*
X160020000Y-80010000D03*
X162306000Y-79883000D03*
X162560000Y-77470000D03*
X157480000Y-87630000D03*
X157099000Y-95504000D03*
X158115000Y-101854000D03*
X157988000Y-105537000D03*
X158115000Y-108966000D03*
X161417000Y-112776000D03*
X156083000Y-111379000D03*
X158115000Y-114681000D03*
X147320000Y-113030000D03*
X153670000Y-119380000D03*
X157480000Y-119380000D03*
X146050000Y-118110000D03*
X142240000Y-119634000D03*
X147320000Y-121920000D03*
X144780000Y-121920000D03*
X130175000Y-113919000D03*
X132080000Y-118618000D03*
X134620000Y-109220000D03*
X134620000Y-101600000D03*
X134620000Y-96520000D03*
X130302000Y-101219000D03*
X130556000Y-105283000D03*
X135890000Y-104140000D03*
X127000000Y-113030000D03*
X134620000Y-115570000D03*
X143510000Y-106680000D03*
X139827000Y-102997000D03*
X149860000Y-99060000D03*
X149733000Y-93599000D03*
X142875000Y-93599000D03*
X142494000Y-90932000D03*
X138049000Y-93726000D03*
X146939000Y-88392000D03*
X142240000Y-88773000D03*
X146939000Y-80645000D03*
X142494000Y-80772000D03*
X138430000Y-76200000D03*
X149860000Y-76200000D03*
X135890000Y-123190000D03*
X135890000Y-128270000D03*
X127000000Y-128270000D03*
X154940000Y-116840000D03*
X153670000Y-114300000D03*
X145288000Y-107696000D03*
X149860000Y-107950000D03*
X153416000Y-96012000D03*
X149733000Y-101473000D03*
X152400000Y-101727000D03*
X161036000Y-102616000D03*
X147701000Y-101854000D03*
X142240000Y-101727000D03*
X145161000Y-102362000D03*
X151130000Y-118872000D03*
X154305000Y-109474000D03*
X162179000Y-102870000D03*
X163199989Y-105156000D03*
X149860000Y-111125000D03*
X140081000Y-110617000D03*
X144272000Y-101727000D03*
X137287000Y-101854000D03*
X139700000Y-115570000D03*
X144526000Y-115570000D03*
D16*
X135570000Y-86360000D02*
X139700000Y-86360000D01*
X134620000Y-86360000D02*
X124460000Y-96520000D01*
X135570000Y-86360000D02*
X134620000Y-86360000D01*
X135570000Y-91440000D02*
X139700000Y-91440000D01*
X126861978Y-104278022D02*
X124460000Y-106680000D01*
X126861978Y-98817022D02*
X126861978Y-104278022D01*
X134239000Y-91440000D02*
X126861978Y-98817022D01*
X135570000Y-91440000D02*
X134239000Y-91440000D01*
X163924999Y-120744999D02*
X165100000Y-121920000D01*
X163924999Y-116843586D02*
X163924999Y-120744999D01*
X148460000Y-101378587D02*
X163924999Y-116843586D01*
X148460000Y-96710000D02*
X148460000Y-101378587D01*
D17*
X148460000Y-96710000D02*
X148460000Y-94866000D01*
X148460000Y-94866000D02*
X146939000Y-93345000D01*
D16*
X127311989Y-106368011D02*
X124460000Y-109220000D01*
X127311989Y-99256011D02*
X127311989Y-106368011D01*
X133858000Y-92710000D02*
X127311989Y-99256011D01*
X135570000Y-92710000D02*
X133858000Y-92710000D01*
X135570000Y-92710000D02*
X137070000Y-92710000D01*
X137070000Y-92710000D02*
X137160002Y-92619998D01*
X137160002Y-92619998D02*
X147737998Y-92619998D01*
X147737998Y-92619998D02*
X148209000Y-93091000D01*
X149733000Y-101473000D02*
X152146000Y-101473000D01*
X152146000Y-101473000D02*
X152400000Y-101727000D01*
X161435999Y-102216001D02*
X161036000Y-102616000D01*
X156339822Y-91440000D02*
X161435999Y-96536177D01*
X161224896Y-102804896D02*
X161036000Y-102616000D01*
X165100000Y-109220000D02*
X161232011Y-105352011D01*
X153990000Y-91440000D02*
X156339822Y-91440000D01*
X161224896Y-103538624D02*
X161224896Y-102804896D01*
X161232011Y-103545739D02*
X161224896Y-103538624D01*
X161232011Y-105352011D02*
X161232011Y-103545739D01*
X161435999Y-96536177D02*
X161435999Y-102216001D01*
X147701000Y-100621000D02*
X147320000Y-100240000D01*
X147701000Y-101854000D02*
X147701000Y-100621000D01*
X132080000Y-83820000D02*
X124460000Y-91440000D01*
X135570000Y-83820000D02*
X132080000Y-83820000D01*
X149733000Y-83820000D02*
X135570000Y-83820000D01*
X152019000Y-86106000D02*
X149733000Y-83820000D01*
X152019000Y-99859000D02*
X152019000Y-86106000D01*
X152400000Y-100240000D02*
X152019000Y-99859000D01*
X145794988Y-101436401D02*
X145920000Y-101561413D01*
X145794988Y-96835012D02*
X145794988Y-101436401D01*
X145920000Y-96710000D02*
X145794988Y-96835012D01*
X142240000Y-100240000D02*
X142240000Y-101727000D01*
X145793000Y-101730000D02*
X145161000Y-102362000D01*
X145920000Y-101730000D02*
X145793000Y-101730000D01*
X145920000Y-101561413D02*
X145920000Y-101730000D01*
X164000000Y-127000000D02*
X165100000Y-127000000D01*
X146050000Y-109050000D02*
X164000000Y-127000000D01*
X146050000Y-101860000D02*
X146050000Y-109050000D01*
X145920000Y-101730000D02*
X146050000Y-101860000D01*
X144517000Y-118872000D02*
X151130000Y-118872000D01*
X141215000Y-115570000D02*
X144517000Y-118872000D01*
X155565010Y-87818600D02*
X163703000Y-95956590D01*
X154636740Y-86360000D02*
X155565010Y-87288270D01*
X153990000Y-86360000D02*
X154636740Y-86360000D01*
X155565010Y-87288270D02*
X155565010Y-87818600D01*
X163703000Y-97663000D02*
X165100000Y-99060000D01*
X163703000Y-95956590D02*
X163703000Y-97663000D01*
X163252989Y-99752989D02*
X165100000Y-101600000D01*
X163252989Y-96142989D02*
X163252989Y-99752989D01*
X154740000Y-87630000D02*
X163252989Y-96142989D01*
X153990000Y-87630000D02*
X154740000Y-87630000D01*
X162179000Y-102870000D02*
X163199989Y-103890989D01*
X163199989Y-103890989D02*
X163199989Y-105156000D01*
X151511000Y-109474000D02*
X149860000Y-111125000D01*
X154305000Y-109474000D02*
X151511000Y-109474000D01*
X136135000Y-115570000D02*
X136135000Y-114563000D01*
X136135000Y-114563000D02*
X140081000Y-110617000D01*
X147190000Y-98284998D02*
X146244999Y-99229999D01*
X147190000Y-96710000D02*
X147190000Y-98284998D01*
X146244999Y-99229999D02*
X146244999Y-101250001D01*
X154828206Y-108819794D02*
X155264797Y-108819794D01*
X154387706Y-108379294D02*
X154828206Y-108819794D01*
X146244999Y-101250001D02*
X146975999Y-101981001D01*
X163474988Y-117029985D02*
X163474988Y-122834988D01*
X154387706Y-107942703D02*
X154387706Y-108379294D01*
X151870999Y-106876001D02*
X153321004Y-106876001D01*
X153321004Y-106876001D02*
X154387706Y-107942703D01*
X147573999Y-102579001D02*
X151870999Y-106876001D01*
X147352999Y-102579001D02*
X147573999Y-102579001D01*
X146975999Y-102202001D02*
X147352999Y-102579001D01*
X163474988Y-122834988D02*
X165100000Y-124460000D01*
X155264797Y-108819794D02*
X163474988Y-117029985D01*
X146975999Y-101981001D02*
X146975999Y-102202001D01*
X144275000Y-101724000D02*
X144272000Y-101727000D01*
X144650000Y-96710000D02*
X144650000Y-101724000D01*
X144650000Y-101724000D02*
X144275000Y-101724000D01*
X137160000Y-100240000D02*
X137160000Y-101727000D01*
X137160000Y-101727000D02*
X137287000Y-101854000D01*
X126293190Y-127000000D02*
X124460000Y-127000000D01*
X137035010Y-116258180D02*
X126293190Y-127000000D01*
X137035010Y-115131800D02*
X137035010Y-116258180D01*
X137621820Y-114544990D02*
X137035010Y-115131800D01*
X137820012Y-114544990D02*
X137621820Y-114544990D01*
X144435998Y-107929004D02*
X137820012Y-114544990D01*
X144435998Y-101938002D02*
X144435998Y-107929004D01*
X144650000Y-101724000D02*
X144435998Y-101938002D01*
X143380000Y-104814998D02*
X139135023Y-109059975D01*
X143380000Y-96710000D02*
X143380000Y-104814998D01*
X139135023Y-109059975D02*
X139135023Y-109784977D01*
X139135023Y-109784977D02*
X124460000Y-124460000D01*
X142110000Y-96710000D02*
X142110000Y-98284998D01*
X125982590Y-121920000D02*
X124460000Y-121920000D01*
X138685012Y-109217578D02*
X125982590Y-121920000D01*
X138685012Y-108873575D02*
X138685012Y-109217578D01*
X141164999Y-106393588D02*
X138685012Y-108873575D01*
X141164999Y-99229999D02*
X141164999Y-106393588D01*
X142110000Y-98284998D02*
X141164999Y-99229999D01*
X127886180Y-119380000D02*
X124460000Y-119380000D01*
X138235001Y-109031179D02*
X127886180Y-119380000D01*
X140704978Y-106217198D02*
X138235001Y-108687175D01*
X140704978Y-98345022D02*
X140704978Y-106217198D01*
X140840000Y-98210000D02*
X140704978Y-98345022D01*
X138235001Y-108687175D02*
X138235001Y-109031179D01*
X140840000Y-96710000D02*
X140840000Y-98210000D01*
X139570000Y-96710000D02*
X139434978Y-96845022D01*
X139434978Y-96845022D02*
X139434978Y-101865022D01*
X139434978Y-101865022D02*
X125309999Y-115990001D01*
X125309999Y-115990001D02*
X124460000Y-116840000D01*
X138300000Y-96710000D02*
X136084999Y-98925001D01*
X136084999Y-98925001D02*
X136084999Y-102675001D01*
X136084999Y-102675001D02*
X124460000Y-114300000D01*
X156210000Y-82550000D02*
X165100000Y-91440000D01*
X153990000Y-82550000D02*
X156210000Y-82550000D01*
X164846000Y-96520000D02*
X165100000Y-96520000D01*
X164153009Y-95827008D02*
X164846000Y-96520000D01*
X164153009Y-95770188D02*
X164153009Y-95827008D01*
X156015021Y-87632201D02*
X164153009Y-95770188D01*
X154448140Y-85534990D02*
X155081730Y-85534990D01*
X154003150Y-85090000D02*
X154448140Y-85534990D01*
X153990000Y-85090000D02*
X154003150Y-85090000D01*
X155565010Y-86018270D02*
X155565010Y-86651860D01*
X155081730Y-85534990D02*
X155565010Y-86018270D01*
X156015021Y-87101870D02*
X156015021Y-87632201D01*
X155565010Y-86651860D02*
X156015021Y-87101870D01*
X164973000Y-93980000D02*
X165100000Y-93980000D01*
X154813000Y-83820000D02*
X164973000Y-93980000D01*
X153990000Y-83820000D02*
X154813000Y-83820000D01*
X160782000Y-106426000D02*
X163924999Y-109568999D01*
X160782000Y-96518589D02*
X160782000Y-101669998D01*
X163924999Y-109784001D02*
X164535999Y-110395001D01*
X156973411Y-92710000D02*
X160782000Y-96518589D01*
X165100000Y-110557919D02*
X165100000Y-111760000D01*
X160774885Y-103427887D02*
X160774885Y-103725024D01*
X160310999Y-102964001D02*
X160774885Y-103427887D01*
X163924999Y-109568999D02*
X163924999Y-109784001D01*
X160310999Y-102140999D02*
X160310999Y-102964001D01*
X160782000Y-101669998D02*
X160310999Y-102140999D01*
X160774885Y-103725024D02*
X160782000Y-103732139D01*
X160782000Y-103732139D02*
X160782000Y-106426000D01*
X164535999Y-110395001D02*
X164937082Y-110395001D01*
X153990000Y-92710000D02*
X156973411Y-92710000D01*
X164937082Y-110395001D02*
X165100000Y-110557919D01*
X165100000Y-103901571D02*
X165100000Y-104140000D01*
X162802978Y-101604549D02*
X165100000Y-103901571D01*
X162802978Y-96508978D02*
X162802978Y-101604549D01*
X155194000Y-88900000D02*
X162802978Y-96508978D01*
X153990000Y-88900000D02*
X155194000Y-88900000D01*
X155706233Y-90170000D02*
X162352967Y-96816734D01*
X163924999Y-103575999D02*
X163924999Y-104558995D01*
X162352967Y-102003967D02*
X163924999Y-103575999D01*
X164047002Y-104680998D02*
X164047002Y-105627002D01*
X162352967Y-96816734D02*
X162352967Y-102003967D01*
X164047002Y-105627002D02*
X165100000Y-106680000D01*
X153990000Y-90170000D02*
X155706233Y-90170000D01*
X163924999Y-104558995D02*
X164047002Y-104680998D01*
X157607000Y-93980000D02*
X160274000Y-96647000D01*
X159860988Y-103150401D02*
X160274000Y-103563413D01*
X160274000Y-96647000D02*
X160274000Y-101414587D01*
X159860988Y-101827599D02*
X159860988Y-103150401D01*
X160274000Y-103563413D02*
X160274000Y-109474000D01*
X160274000Y-101414587D02*
X159860988Y-101827599D01*
X164250001Y-113450001D02*
X165100000Y-114300000D01*
X153990000Y-93980000D02*
X157607000Y-93980000D01*
X160274000Y-109474000D02*
X164250001Y-113450001D01*
X133350000Y-85090000D02*
X124460000Y-93980000D01*
X135570000Y-85090000D02*
X133350000Y-85090000D01*
X124610925Y-99060000D02*
X124460000Y-99060000D01*
X135111860Y-88074990D02*
X134478270Y-88074990D01*
X133994990Y-88558270D02*
X133994990Y-89191860D01*
X135556850Y-87630000D02*
X135111860Y-88074990D01*
X134478270Y-88074990D02*
X133994990Y-88558270D01*
X133544979Y-89641870D02*
X133544979Y-90125947D01*
X135570000Y-87630000D02*
X135556850Y-87630000D01*
X133544979Y-90125947D02*
X124610925Y-99060000D01*
X133994990Y-89191860D02*
X133544979Y-89641870D01*
X125857000Y-100203000D02*
X124460000Y-101600000D01*
X134923260Y-88900000D02*
X133994990Y-89828270D01*
X135570000Y-88900000D02*
X134923260Y-88900000D01*
X133994990Y-90312346D02*
X125857000Y-98450335D01*
X125857000Y-98450335D02*
X125857000Y-100203000D01*
X133994990Y-89828270D02*
X133994990Y-90312346D01*
X139700000Y-115570000D02*
X138185000Y-115570000D01*
X143265000Y-115570000D02*
X144526000Y-115570000D01*
X162560000Y-76200000D02*
X165100000Y-78740000D01*
X153990000Y-76200000D02*
X162560000Y-76200000D01*
X161290000Y-77470000D02*
X165100000Y-81280000D01*
X153990000Y-77470000D02*
X161290000Y-77470000D01*
X160020000Y-78740000D02*
X165100000Y-83820000D01*
X153990000Y-78740000D02*
X160020000Y-78740000D01*
X158750000Y-80010000D02*
X165100000Y-86360000D01*
X153990000Y-80010000D02*
X158750000Y-80010000D01*
X157480000Y-81280000D02*
X165100000Y-88900000D01*
X153990000Y-81280000D02*
X157480000Y-81280000D01*
X135570000Y-76200000D02*
X124460000Y-76200000D01*
X125222000Y-78740000D02*
X124460000Y-78740000D01*
X126492000Y-77470000D02*
X125222000Y-78740000D01*
X135570000Y-77470000D02*
X126492000Y-77470000D01*
X127000000Y-78740000D02*
X124460000Y-81280000D01*
X135570000Y-78740000D02*
X127000000Y-78740000D01*
X135570000Y-80010000D02*
X128270000Y-80010000D01*
X128270000Y-80010000D02*
X124460000Y-83820000D01*
X124587000Y-86360000D02*
X124460000Y-86360000D01*
X129667000Y-81280000D02*
X124587000Y-86360000D01*
X135570000Y-81280000D02*
X129667000Y-81280000D01*
X130810000Y-82550000D02*
X124460000Y-88900000D01*
X135570000Y-82550000D02*
X130810000Y-82550000D01*
X128397000Y-107823000D02*
X124460000Y-111760000D01*
X128397000Y-101313000D02*
X128397000Y-107823000D01*
X135570000Y-94140000D02*
X128397000Y-101313000D01*
X135570000Y-93980000D02*
X135570000Y-94140000D01*
X126365000Y-102235000D02*
X124460000Y-104140000D01*
X126365000Y-98625000D02*
X126365000Y-102235000D01*
X134820000Y-90170000D02*
X126365000Y-98625000D01*
X135570000Y-90170000D02*
X134820000Y-90170000D01*
D18*
X165514115Y-74108551D02*
X165912462Y-74228819D01*
X166279864Y-74424170D01*
X166602317Y-74687157D01*
X166867553Y-75007773D01*
X167065460Y-75373795D01*
X167188506Y-75771291D01*
X167234000Y-76204137D01*
X167234001Y-126980136D01*
X167191449Y-127414115D01*
X167071181Y-127812464D01*
X166875831Y-128179862D01*
X166612845Y-128502315D01*
X166292226Y-128767554D01*
X165926204Y-128965461D01*
X165528708Y-129088506D01*
X165095863Y-129134000D01*
X124479854Y-129134000D01*
X124045885Y-129091449D01*
X123647536Y-128971181D01*
X123280138Y-128775831D01*
X122957685Y-128512845D01*
X122692446Y-128192226D01*
X122494539Y-127826204D01*
X122371494Y-127428708D01*
X122326000Y-126995863D01*
X122326000Y-76219854D01*
X122368551Y-75785885D01*
X122488819Y-75387538D01*
X122508778Y-75350000D01*
X123227157Y-75350000D01*
X123227157Y-77050000D01*
X123234513Y-77124689D01*
X123256299Y-77196508D01*
X123291678Y-77262696D01*
X123339289Y-77320711D01*
X123397304Y-77368322D01*
X123463492Y-77403701D01*
X123535311Y-77425487D01*
X123610000Y-77432843D01*
X125310000Y-77432843D01*
X125384689Y-77425487D01*
X125456508Y-77403701D01*
X125522696Y-77368322D01*
X125580711Y-77320711D01*
X125628322Y-77262696D01*
X125663701Y-77196508D01*
X125685487Y-77124689D01*
X125692843Y-77050000D01*
X125692843Y-76706000D01*
X134095565Y-76706000D01*
X134194025Y-76825975D01*
X134205022Y-76835000D01*
X134194025Y-76844025D01*
X134095565Y-76964000D01*
X126516845Y-76964000D01*
X126491999Y-76961553D01*
X126467153Y-76964000D01*
X126467146Y-76964000D01*
X126402694Y-76970348D01*
X126392806Y-76971322D01*
X126348648Y-76984717D01*
X126297425Y-77000255D01*
X126209521Y-77047241D01*
X126132473Y-77110473D01*
X126116628Y-77129780D01*
X125353653Y-77892756D01*
X125244717Y-77783820D01*
X125043097Y-77649102D01*
X124819069Y-77556307D01*
X124581243Y-77509000D01*
X124338757Y-77509000D01*
X124100931Y-77556307D01*
X123876903Y-77649102D01*
X123675283Y-77783820D01*
X123503820Y-77955283D01*
X123369102Y-78156903D01*
X123276307Y-78380931D01*
X123229000Y-78618757D01*
X123229000Y-78861243D01*
X123276307Y-79099069D01*
X123369102Y-79323097D01*
X123503820Y-79524717D01*
X123675283Y-79696180D01*
X123876903Y-79830898D01*
X124100931Y-79923693D01*
X124338757Y-79971000D01*
X124581243Y-79971000D01*
X124819069Y-79923693D01*
X125043097Y-79830898D01*
X125244717Y-79696180D01*
X125416180Y-79524717D01*
X125550898Y-79323097D01*
X125643693Y-79099069D01*
X125659875Y-79017716D01*
X126701592Y-77976000D01*
X134095565Y-77976000D01*
X134194025Y-78095975D01*
X134205022Y-78105000D01*
X134194025Y-78114025D01*
X134095565Y-78234000D01*
X127024845Y-78234000D01*
X126999999Y-78231553D01*
X126975153Y-78234000D01*
X126975146Y-78234000D01*
X126910694Y-78240348D01*
X126900806Y-78241322D01*
X126878607Y-78248056D01*
X126805425Y-78270255D01*
X126717521Y-78317241D01*
X126640473Y-78380473D01*
X126624630Y-78399778D01*
X124896167Y-80128242D01*
X124819069Y-80096307D01*
X124581243Y-80049000D01*
X124338757Y-80049000D01*
X124100931Y-80096307D01*
X123876903Y-80189102D01*
X123675283Y-80323820D01*
X123503820Y-80495283D01*
X123369102Y-80696903D01*
X123276307Y-80920931D01*
X123229000Y-81158757D01*
X123229000Y-81401243D01*
X123276307Y-81639069D01*
X123369102Y-81863097D01*
X123503820Y-82064717D01*
X123675283Y-82236180D01*
X123876903Y-82370898D01*
X124100931Y-82463693D01*
X124338757Y-82511000D01*
X124581243Y-82511000D01*
X124819069Y-82463693D01*
X125043097Y-82370898D01*
X125244717Y-82236180D01*
X125416180Y-82064717D01*
X125550898Y-81863097D01*
X125643693Y-81639069D01*
X125691000Y-81401243D01*
X125691000Y-81158757D01*
X125643693Y-80920931D01*
X125611758Y-80843833D01*
X127209592Y-79246000D01*
X134095565Y-79246000D01*
X134194025Y-79365975D01*
X134205022Y-79375000D01*
X134194025Y-79384025D01*
X134095565Y-79504000D01*
X128294854Y-79504000D01*
X128270000Y-79501552D01*
X128245146Y-79504000D01*
X128170807Y-79511322D01*
X128075425Y-79540255D01*
X127987521Y-79587241D01*
X127910473Y-79650473D01*
X127894628Y-79669780D01*
X124896167Y-82668242D01*
X124819069Y-82636307D01*
X124581243Y-82589000D01*
X124338757Y-82589000D01*
X124100931Y-82636307D01*
X123876903Y-82729102D01*
X123675283Y-82863820D01*
X123503820Y-83035283D01*
X123369102Y-83236903D01*
X123276307Y-83460931D01*
X123229000Y-83698757D01*
X123229000Y-83941243D01*
X123276307Y-84179069D01*
X123369102Y-84403097D01*
X123503820Y-84604717D01*
X123675283Y-84776180D01*
X123876903Y-84910898D01*
X124100931Y-85003693D01*
X124338757Y-85051000D01*
X124581243Y-85051000D01*
X124819069Y-85003693D01*
X125043097Y-84910898D01*
X125244717Y-84776180D01*
X125416180Y-84604717D01*
X125550898Y-84403097D01*
X125643693Y-84179069D01*
X125691000Y-83941243D01*
X125691000Y-83698757D01*
X125643693Y-83460931D01*
X125611758Y-83383833D01*
X128479592Y-80516000D01*
X134095565Y-80516000D01*
X134194025Y-80635975D01*
X134205022Y-80645000D01*
X134194025Y-80654025D01*
X134095565Y-80774000D01*
X129691854Y-80774000D01*
X129667000Y-80771552D01*
X129642146Y-80774000D01*
X129567807Y-80781322D01*
X129472425Y-80810255D01*
X129384521Y-80857241D01*
X129307473Y-80920473D01*
X129291630Y-80939778D01*
X124985970Y-85245439D01*
X124819069Y-85176307D01*
X124581243Y-85129000D01*
X124338757Y-85129000D01*
X124100931Y-85176307D01*
X123876903Y-85269102D01*
X123675283Y-85403820D01*
X123503820Y-85575283D01*
X123369102Y-85776903D01*
X123276307Y-86000931D01*
X123229000Y-86238757D01*
X123229000Y-86481243D01*
X123276307Y-86719069D01*
X123369102Y-86943097D01*
X123503820Y-87144717D01*
X123675283Y-87316180D01*
X123876903Y-87450898D01*
X124100931Y-87543693D01*
X124338757Y-87591000D01*
X124581243Y-87591000D01*
X124819069Y-87543693D01*
X125043097Y-87450898D01*
X125244717Y-87316180D01*
X125416180Y-87144717D01*
X125550898Y-86943097D01*
X125643693Y-86719069D01*
X125691000Y-86481243D01*
X125691000Y-86238757D01*
X125646674Y-86015917D01*
X129876592Y-81786000D01*
X134095565Y-81786000D01*
X134194025Y-81905975D01*
X134205022Y-81915000D01*
X134194025Y-81924025D01*
X134095565Y-82044000D01*
X130834845Y-82044000D01*
X130809999Y-82041553D01*
X130785153Y-82044000D01*
X130785146Y-82044000D01*
X130720694Y-82050348D01*
X130710806Y-82051322D01*
X130666648Y-82064717D01*
X130615425Y-82080255D01*
X130527521Y-82127241D01*
X130450473Y-82190473D01*
X130434628Y-82209780D01*
X124896167Y-87748242D01*
X124819069Y-87716307D01*
X124581243Y-87669000D01*
X124338757Y-87669000D01*
X124100931Y-87716307D01*
X123876903Y-87809102D01*
X123675283Y-87943820D01*
X123503820Y-88115283D01*
X123369102Y-88316903D01*
X123276307Y-88540931D01*
X123229000Y-88778757D01*
X123229000Y-89021243D01*
X123276307Y-89259069D01*
X123369102Y-89483097D01*
X123503820Y-89684717D01*
X123675283Y-89856180D01*
X123876903Y-89990898D01*
X124100931Y-90083693D01*
X124338757Y-90131000D01*
X124581243Y-90131000D01*
X124819069Y-90083693D01*
X125043097Y-89990898D01*
X125244717Y-89856180D01*
X125416180Y-89684717D01*
X125550898Y-89483097D01*
X125643693Y-89259069D01*
X125691000Y-89021243D01*
X125691000Y-88778757D01*
X125643693Y-88540931D01*
X125611758Y-88463833D01*
X131019592Y-83056000D01*
X134095565Y-83056000D01*
X134194025Y-83175975D01*
X134205022Y-83185000D01*
X134194025Y-83194025D01*
X134095565Y-83314000D01*
X132104845Y-83314000D01*
X132079999Y-83311553D01*
X132055153Y-83314000D01*
X132055146Y-83314000D01*
X131990694Y-83320348D01*
X131980806Y-83321322D01*
X131958607Y-83328056D01*
X131885425Y-83350255D01*
X131797521Y-83397241D01*
X131720473Y-83460473D01*
X131704630Y-83479778D01*
X124896167Y-90288242D01*
X124819069Y-90256307D01*
X124581243Y-90209000D01*
X124338757Y-90209000D01*
X124100931Y-90256307D01*
X123876903Y-90349102D01*
X123675283Y-90483820D01*
X123503820Y-90655283D01*
X123369102Y-90856903D01*
X123276307Y-91080931D01*
X123229000Y-91318757D01*
X123229000Y-91561243D01*
X123276307Y-91799069D01*
X123369102Y-92023097D01*
X123503820Y-92224717D01*
X123675283Y-92396180D01*
X123876903Y-92530898D01*
X124100931Y-92623693D01*
X124338757Y-92671000D01*
X124581243Y-92671000D01*
X124819069Y-92623693D01*
X125043097Y-92530898D01*
X125244717Y-92396180D01*
X125416180Y-92224717D01*
X125550898Y-92023097D01*
X125643693Y-91799069D01*
X125691000Y-91561243D01*
X125691000Y-91318757D01*
X125643693Y-91080931D01*
X125611758Y-91003833D01*
X132289592Y-84326000D01*
X134095565Y-84326000D01*
X134194025Y-84445975D01*
X134205022Y-84455000D01*
X134194025Y-84464025D01*
X134095565Y-84584000D01*
X133374854Y-84584000D01*
X133350000Y-84581552D01*
X133325146Y-84584000D01*
X133250807Y-84591322D01*
X133155425Y-84620255D01*
X133067521Y-84667241D01*
X132990473Y-84730473D01*
X132974628Y-84749780D01*
X124896167Y-92828242D01*
X124819069Y-92796307D01*
X124581243Y-92749000D01*
X124338757Y-92749000D01*
X124100931Y-92796307D01*
X123876903Y-92889102D01*
X123675283Y-93023820D01*
X123503820Y-93195283D01*
X123369102Y-93396903D01*
X123276307Y-93620931D01*
X123229000Y-93858757D01*
X123229000Y-94101243D01*
X123276307Y-94339069D01*
X123369102Y-94563097D01*
X123503820Y-94764717D01*
X123675283Y-94936180D01*
X123876903Y-95070898D01*
X124100931Y-95163693D01*
X124338757Y-95211000D01*
X124581243Y-95211000D01*
X124819069Y-95163693D01*
X125043097Y-95070898D01*
X125244717Y-94936180D01*
X125416180Y-94764717D01*
X125550898Y-94563097D01*
X125643693Y-94339069D01*
X125691000Y-94101243D01*
X125691000Y-93858757D01*
X125643693Y-93620931D01*
X125611758Y-93543833D01*
X133559592Y-85596000D01*
X134095565Y-85596000D01*
X134194025Y-85715975D01*
X134205022Y-85725000D01*
X134194025Y-85734025D01*
X134083932Y-85868175D01*
X134002125Y-86021225D01*
X133951748Y-86187294D01*
X133938052Y-86326356D01*
X124896167Y-95368242D01*
X124819069Y-95336307D01*
X124581243Y-95289000D01*
X124338757Y-95289000D01*
X124100931Y-95336307D01*
X123876903Y-95429102D01*
X123675283Y-95563820D01*
X123503820Y-95735283D01*
X123369102Y-95936903D01*
X123276307Y-96160931D01*
X123229000Y-96398757D01*
X123229000Y-96641243D01*
X123276307Y-96879069D01*
X123369102Y-97103097D01*
X123503820Y-97304717D01*
X123675283Y-97476180D01*
X123876903Y-97610898D01*
X124100931Y-97703693D01*
X124338757Y-97751000D01*
X124581243Y-97751000D01*
X124819069Y-97703693D01*
X125043097Y-97610898D01*
X125244717Y-97476180D01*
X125416180Y-97304717D01*
X125550898Y-97103097D01*
X125643693Y-96879069D01*
X125691000Y-96641243D01*
X125691000Y-96398757D01*
X125643693Y-96160931D01*
X125611758Y-96083833D01*
X133946470Y-87749121D01*
X133951748Y-87802706D01*
X133971116Y-87866552D01*
X133654775Y-88182894D01*
X133635463Y-88198743D01*
X133572231Y-88275791D01*
X133525245Y-88363696D01*
X133496312Y-88459078D01*
X133488990Y-88533417D01*
X133488990Y-88533424D01*
X133486543Y-88558270D01*
X133488990Y-88583117D01*
X133488991Y-88982267D01*
X133204759Y-89266498D01*
X133185452Y-89282343D01*
X133122220Y-89359391D01*
X133075234Y-89447296D01*
X133046301Y-89542678D01*
X133038979Y-89617017D01*
X133038979Y-89617024D01*
X133036532Y-89641870D01*
X133038979Y-89666717D01*
X133038980Y-89916354D01*
X125002887Y-97952447D01*
X124819069Y-97876307D01*
X124581243Y-97829000D01*
X124338757Y-97829000D01*
X124100931Y-97876307D01*
X123876903Y-97969102D01*
X123675283Y-98103820D01*
X123503820Y-98275283D01*
X123369102Y-98476903D01*
X123276307Y-98700931D01*
X123229000Y-98938757D01*
X123229000Y-99181243D01*
X123276307Y-99419069D01*
X123369102Y-99643097D01*
X123503820Y-99844717D01*
X123675283Y-100016180D01*
X123876903Y-100150898D01*
X124100931Y-100243693D01*
X124338757Y-100291000D01*
X124581243Y-100291000D01*
X124819069Y-100243693D01*
X125043097Y-100150898D01*
X125244717Y-100016180D01*
X125351001Y-99909896D01*
X125351001Y-99993407D01*
X124896167Y-100448242D01*
X124819069Y-100416307D01*
X124581243Y-100369000D01*
X124338757Y-100369000D01*
X124100931Y-100416307D01*
X123876903Y-100509102D01*
X123675283Y-100643820D01*
X123503820Y-100815283D01*
X123369102Y-101016903D01*
X123276307Y-101240931D01*
X123229000Y-101478757D01*
X123229000Y-101721243D01*
X123276307Y-101959069D01*
X123369102Y-102183097D01*
X123503820Y-102384717D01*
X123675283Y-102556180D01*
X123876903Y-102690898D01*
X124100931Y-102783693D01*
X124338757Y-102831000D01*
X124581243Y-102831000D01*
X124819069Y-102783693D01*
X125043097Y-102690898D01*
X125244717Y-102556180D01*
X125416180Y-102384717D01*
X125550898Y-102183097D01*
X125643693Y-101959069D01*
X125691000Y-101721243D01*
X125691000Y-101478757D01*
X125643693Y-101240931D01*
X125611758Y-101163833D01*
X125859001Y-100916591D01*
X125859001Y-102025407D01*
X124896167Y-102988242D01*
X124819069Y-102956307D01*
X124581243Y-102909000D01*
X124338757Y-102909000D01*
X124100931Y-102956307D01*
X123876903Y-103049102D01*
X123675283Y-103183820D01*
X123503820Y-103355283D01*
X123369102Y-103556903D01*
X123276307Y-103780931D01*
X123229000Y-104018757D01*
X123229000Y-104261243D01*
X123276307Y-104499069D01*
X123369102Y-104723097D01*
X123503820Y-104924717D01*
X123675283Y-105096180D01*
X123876903Y-105230898D01*
X124100931Y-105323693D01*
X124338757Y-105371000D01*
X124581243Y-105371000D01*
X124819069Y-105323693D01*
X125043097Y-105230898D01*
X125244717Y-105096180D01*
X125416180Y-104924717D01*
X125550898Y-104723097D01*
X125643693Y-104499069D01*
X125691000Y-104261243D01*
X125691000Y-104018757D01*
X125643693Y-103780931D01*
X125611758Y-103703833D01*
X126355979Y-102959613D01*
X126355979Y-104068429D01*
X124896167Y-105528242D01*
X124819069Y-105496307D01*
X124581243Y-105449000D01*
X124338757Y-105449000D01*
X124100931Y-105496307D01*
X123876903Y-105589102D01*
X123675283Y-105723820D01*
X123503820Y-105895283D01*
X123369102Y-106096903D01*
X123276307Y-106320931D01*
X123229000Y-106558757D01*
X123229000Y-106801243D01*
X123276307Y-107039069D01*
X123369102Y-107263097D01*
X123503820Y-107464717D01*
X123675283Y-107636180D01*
X123876903Y-107770898D01*
X124100931Y-107863693D01*
X124338757Y-107911000D01*
X124581243Y-107911000D01*
X124819069Y-107863693D01*
X125043097Y-107770898D01*
X125244717Y-107636180D01*
X125416180Y-107464717D01*
X125550898Y-107263097D01*
X125643693Y-107039069D01*
X125691000Y-106801243D01*
X125691000Y-106558757D01*
X125643693Y-106320931D01*
X125611758Y-106243833D01*
X126805990Y-105049602D01*
X126805990Y-106158418D01*
X124896167Y-108068242D01*
X124819069Y-108036307D01*
X124581243Y-107989000D01*
X124338757Y-107989000D01*
X124100931Y-108036307D01*
X123876903Y-108129102D01*
X123675283Y-108263820D01*
X123503820Y-108435283D01*
X123369102Y-108636903D01*
X123276307Y-108860931D01*
X123229000Y-109098757D01*
X123229000Y-109341243D01*
X123276307Y-109579069D01*
X123369102Y-109803097D01*
X123503820Y-110004717D01*
X123675283Y-110176180D01*
X123876903Y-110310898D01*
X124100931Y-110403693D01*
X124338757Y-110451000D01*
X124581243Y-110451000D01*
X124819069Y-110403693D01*
X125043097Y-110310898D01*
X125244717Y-110176180D01*
X125416180Y-110004717D01*
X125550898Y-109803097D01*
X125643693Y-109579069D01*
X125691000Y-109341243D01*
X125691000Y-109098757D01*
X125643693Y-108860931D01*
X125611758Y-108783833D01*
X127652209Y-106743383D01*
X127671516Y-106727538D01*
X127734748Y-106650490D01*
X127781734Y-106562586D01*
X127810667Y-106467204D01*
X127817989Y-106392865D01*
X127820437Y-106368011D01*
X127817989Y-106343157D01*
X127817989Y-99465602D01*
X134067592Y-93216000D01*
X134095565Y-93216000D01*
X134194025Y-93335975D01*
X134205022Y-93345000D01*
X134194025Y-93354025D01*
X134083932Y-93488175D01*
X134002125Y-93641225D01*
X133951748Y-93807294D01*
X133934738Y-93980000D01*
X133951748Y-94152706D01*
X134002125Y-94318775D01*
X134083932Y-94471825D01*
X134194025Y-94605975D01*
X134300803Y-94693605D01*
X128056785Y-100937624D01*
X128037473Y-100953473D01*
X127974241Y-101030521D01*
X127927255Y-101118426D01*
X127898322Y-101213808D01*
X127891000Y-101288147D01*
X127891000Y-101288154D01*
X127888553Y-101313000D01*
X127891000Y-101337846D01*
X127891001Y-107613407D01*
X124896167Y-110608242D01*
X124819069Y-110576307D01*
X124581243Y-110529000D01*
X124338757Y-110529000D01*
X124100931Y-110576307D01*
X123876903Y-110669102D01*
X123675283Y-110803820D01*
X123503820Y-110975283D01*
X123369102Y-111176903D01*
X123276307Y-111400931D01*
X123229000Y-111638757D01*
X123229000Y-111881243D01*
X123276307Y-112119069D01*
X123369102Y-112343097D01*
X123503820Y-112544717D01*
X123675283Y-112716180D01*
X123876903Y-112850898D01*
X124100931Y-112943693D01*
X124338757Y-112991000D01*
X124581243Y-112991000D01*
X124819069Y-112943693D01*
X125043097Y-112850898D01*
X125244717Y-112716180D01*
X125416180Y-112544717D01*
X125550898Y-112343097D01*
X125643693Y-112119069D01*
X125691000Y-111881243D01*
X125691000Y-111638757D01*
X125643693Y-111400931D01*
X125611758Y-111323833D01*
X128737220Y-108198372D01*
X128756527Y-108182527D01*
X128819759Y-108105479D01*
X128866745Y-108017575D01*
X128895678Y-107922193D01*
X128903000Y-107847854D01*
X128905448Y-107823000D01*
X128903000Y-107798146D01*
X128903000Y-101522591D01*
X135564592Y-94861000D01*
X136363273Y-94861000D01*
X136492706Y-94848252D01*
X136658775Y-94797875D01*
X136811825Y-94716068D01*
X136945975Y-94605975D01*
X137056068Y-94471825D01*
X137137875Y-94318775D01*
X137188252Y-94152706D01*
X137205262Y-93980000D01*
X137188252Y-93807294D01*
X137137875Y-93641225D01*
X137056068Y-93488175D01*
X136945975Y-93354025D01*
X136934978Y-93345000D01*
X136945975Y-93335975D01*
X137044435Y-93216000D01*
X137045154Y-93216000D01*
X137070000Y-93218447D01*
X137094846Y-93216000D01*
X137094854Y-93216000D01*
X137169193Y-93208678D01*
X137264575Y-93179745D01*
X137352479Y-93132759D01*
X137360717Y-93125998D01*
X146186261Y-93125998D01*
X146158000Y-93268078D01*
X146158000Y-93421922D01*
X146188013Y-93572809D01*
X146246887Y-93714942D01*
X146332358Y-93842859D01*
X146441141Y-93951642D01*
X146569058Y-94037113D01*
X146711191Y-94095987D01*
X146819079Y-94117447D01*
X147829001Y-95127370D01*
X147829001Y-95340147D01*
X147825000Y-95345022D01*
X147815975Y-95334025D01*
X147681824Y-95223932D01*
X147528774Y-95142125D01*
X147362705Y-95091748D01*
X147190000Y-95074738D01*
X147017294Y-95091748D01*
X146851225Y-95142125D01*
X146698175Y-95223932D01*
X146564025Y-95334025D01*
X146555000Y-95345022D01*
X146545975Y-95334025D01*
X146411824Y-95223932D01*
X146258774Y-95142125D01*
X146092705Y-95091748D01*
X145920000Y-95074738D01*
X145747294Y-95091748D01*
X145581225Y-95142125D01*
X145428175Y-95223932D01*
X145294025Y-95334025D01*
X145285000Y-95345022D01*
X145275975Y-95334025D01*
X145141824Y-95223932D01*
X144988774Y-95142125D01*
X144822705Y-95091748D01*
X144650000Y-95074738D01*
X144477294Y-95091748D01*
X144311225Y-95142125D01*
X144158175Y-95223932D01*
X144024025Y-95334025D01*
X144015000Y-95345022D01*
X144005975Y-95334025D01*
X143871824Y-95223932D01*
X143718774Y-95142125D01*
X143552705Y-95091748D01*
X143380000Y-95074738D01*
X143207294Y-95091748D01*
X143041225Y-95142125D01*
X142888175Y-95223932D01*
X142754025Y-95334025D01*
X142745000Y-95345022D01*
X142735975Y-95334025D01*
X142601824Y-95223932D01*
X142448774Y-95142125D01*
X142282705Y-95091748D01*
X142110000Y-95074738D01*
X141937294Y-95091748D01*
X141771225Y-95142125D01*
X141618175Y-95223932D01*
X141484025Y-95334025D01*
X141475000Y-95345022D01*
X141465975Y-95334025D01*
X141331824Y-95223932D01*
X141178774Y-95142125D01*
X141012705Y-95091748D01*
X140840000Y-95074738D01*
X140667294Y-95091748D01*
X140501225Y-95142125D01*
X140348175Y-95223932D01*
X140214025Y-95334025D01*
X140205000Y-95345022D01*
X140195975Y-95334025D01*
X140061824Y-95223932D01*
X139908774Y-95142125D01*
X139742705Y-95091748D01*
X139570000Y-95074738D01*
X139397294Y-95091748D01*
X139231225Y-95142125D01*
X139078175Y-95223932D01*
X138944025Y-95334025D01*
X138935000Y-95345022D01*
X138925975Y-95334025D01*
X138791824Y-95223932D01*
X138638774Y-95142125D01*
X138472705Y-95091748D01*
X138300000Y-95074738D01*
X138127294Y-95091748D01*
X137961225Y-95142125D01*
X137808175Y-95223932D01*
X137674025Y-95334025D01*
X137563932Y-95468176D01*
X137482125Y-95621226D01*
X137431748Y-95787295D01*
X137419000Y-95916728D01*
X137419001Y-96875408D01*
X135744784Y-98549625D01*
X135725472Y-98565474D01*
X135662240Y-98642522D01*
X135615254Y-98730427D01*
X135586321Y-98825809D01*
X135578999Y-98900148D01*
X135578999Y-98900155D01*
X135576552Y-98925001D01*
X135578999Y-98949847D01*
X135579000Y-102465408D01*
X124896167Y-113148242D01*
X124819069Y-113116307D01*
X124581243Y-113069000D01*
X124338757Y-113069000D01*
X124100931Y-113116307D01*
X123876903Y-113209102D01*
X123675283Y-113343820D01*
X123503820Y-113515283D01*
X123369102Y-113716903D01*
X123276307Y-113940931D01*
X123229000Y-114178757D01*
X123229000Y-114421243D01*
X123276307Y-114659069D01*
X123369102Y-114883097D01*
X123503820Y-115084717D01*
X123675283Y-115256180D01*
X123876903Y-115390898D01*
X124100931Y-115483693D01*
X124338757Y-115531000D01*
X124581243Y-115531000D01*
X124819069Y-115483693D01*
X125043097Y-115390898D01*
X125244717Y-115256180D01*
X125416180Y-115084717D01*
X125550898Y-114883097D01*
X125643693Y-114659069D01*
X125691000Y-114421243D01*
X125691000Y-114178757D01*
X125643693Y-113940931D01*
X125611758Y-113863833D01*
X136425219Y-103050373D01*
X136444526Y-103034528D01*
X136507758Y-102957480D01*
X136554744Y-102869576D01*
X136577949Y-102793078D01*
X136583677Y-102774195D01*
X136587304Y-102737370D01*
X136590999Y-102699855D01*
X136590999Y-102699848D01*
X136593446Y-102675002D01*
X136590999Y-102650156D01*
X136590999Y-102214556D01*
X136594887Y-102223942D01*
X136680358Y-102351859D01*
X136789141Y-102460642D01*
X136917058Y-102546113D01*
X137059191Y-102604987D01*
X137210078Y-102635000D01*
X137363922Y-102635000D01*
X137514809Y-102604987D01*
X137656942Y-102546113D01*
X137784859Y-102460642D01*
X137893642Y-102351859D01*
X137979113Y-102223942D01*
X138037987Y-102081809D01*
X138068000Y-101930922D01*
X138068000Y-101777078D01*
X138037987Y-101626191D01*
X137979113Y-101484058D01*
X137904802Y-101372843D01*
X137910000Y-101372843D01*
X137984689Y-101365487D01*
X138056508Y-101343701D01*
X138122696Y-101308322D01*
X138180711Y-101260711D01*
X138228322Y-101202696D01*
X138263701Y-101136508D01*
X138285487Y-101064689D01*
X138292843Y-100990000D01*
X138292843Y-99490000D01*
X138285487Y-99415311D01*
X138263701Y-99343492D01*
X138228322Y-99277304D01*
X138180711Y-99219289D01*
X138122696Y-99171678D01*
X138056508Y-99136299D01*
X137984689Y-99114513D01*
X137910000Y-99107157D01*
X136618434Y-99107157D01*
X137658516Y-98067076D01*
X137674026Y-98085975D01*
X137808176Y-98196068D01*
X137961226Y-98277875D01*
X138127295Y-98328252D01*
X138300000Y-98345262D01*
X138472706Y-98328252D01*
X138638775Y-98277875D01*
X138791825Y-98196068D01*
X138925975Y-98085975D01*
X138928978Y-98082315D01*
X138928979Y-101655429D01*
X124969783Y-115614626D01*
X124969777Y-115614631D01*
X124896166Y-115688242D01*
X124819069Y-115656307D01*
X124581243Y-115609000D01*
X124338757Y-115609000D01*
X124100931Y-115656307D01*
X123876903Y-115749102D01*
X123675283Y-115883820D01*
X123503820Y-116055283D01*
X123369102Y-116256903D01*
X123276307Y-116480931D01*
X123229000Y-116718757D01*
X123229000Y-116961243D01*
X123276307Y-117199069D01*
X123369102Y-117423097D01*
X123503820Y-117624717D01*
X123675283Y-117796180D01*
X123876903Y-117930898D01*
X124100931Y-118023693D01*
X124338757Y-118071000D01*
X124581243Y-118071000D01*
X124819069Y-118023693D01*
X125043097Y-117930898D01*
X125244717Y-117796180D01*
X125416180Y-117624717D01*
X125550898Y-117423097D01*
X125643693Y-117199069D01*
X125691000Y-116961243D01*
X125691000Y-116718757D01*
X125643693Y-116480931D01*
X125611758Y-116403834D01*
X125685369Y-116330223D01*
X125685374Y-116330217D01*
X133225591Y-108790000D01*
X136027157Y-108790000D01*
X136034513Y-108864689D01*
X136056299Y-108936508D01*
X136091678Y-109002696D01*
X136139289Y-109060711D01*
X136197304Y-109108322D01*
X136263492Y-109143701D01*
X136335311Y-109165487D01*
X136410000Y-109172843D01*
X136937750Y-109171000D01*
X137033000Y-109075750D01*
X137033000Y-108167000D01*
X136124250Y-108167000D01*
X136029000Y-108262250D01*
X136027157Y-108790000D01*
X133225591Y-108790000D01*
X134725591Y-107290000D01*
X136027157Y-107290000D01*
X136029000Y-107817750D01*
X136124250Y-107913000D01*
X137033000Y-107913000D01*
X137033000Y-107004250D01*
X136937750Y-106909000D01*
X136410000Y-106907157D01*
X136335311Y-106914513D01*
X136263492Y-106936299D01*
X136197304Y-106971678D01*
X136139289Y-107019289D01*
X136091678Y-107077304D01*
X136056299Y-107143492D01*
X136034513Y-107215311D01*
X136027157Y-107290000D01*
X134725591Y-107290000D01*
X139775198Y-102240394D01*
X139794505Y-102224549D01*
X139857737Y-102147501D01*
X139904723Y-102059597D01*
X139933656Y-101964215D01*
X139940978Y-101889876D01*
X139943426Y-101865022D01*
X139940978Y-101840168D01*
X139940978Y-98260662D01*
X140061825Y-98196068D01*
X140195975Y-98085975D01*
X140205001Y-98074977D01*
X140214026Y-98085975D01*
X140252721Y-98117731D01*
X140235233Y-98150448D01*
X140206300Y-98245830D01*
X140198978Y-98320169D01*
X140198978Y-98320176D01*
X140196531Y-98345022D01*
X140198978Y-98369868D01*
X140198979Y-106007605D01*
X138291000Y-107915585D01*
X138291000Y-107912998D01*
X138195752Y-107912998D01*
X138291000Y-107817750D01*
X138292843Y-107290000D01*
X138285487Y-107215311D01*
X138263701Y-107143492D01*
X138228322Y-107077304D01*
X138180711Y-107019289D01*
X138122696Y-106971678D01*
X138056508Y-106936299D01*
X137984689Y-106914513D01*
X137910000Y-106907157D01*
X137382250Y-106909000D01*
X137287000Y-107004250D01*
X137287000Y-107913000D01*
X137307000Y-107913000D01*
X137307000Y-108167000D01*
X137287000Y-108167000D01*
X137287000Y-109075750D01*
X137380919Y-109169669D01*
X127676589Y-118874000D01*
X125582832Y-118874000D01*
X125550898Y-118796903D01*
X125416180Y-118595283D01*
X125244717Y-118423820D01*
X125043097Y-118289102D01*
X124819069Y-118196307D01*
X124581243Y-118149000D01*
X124338757Y-118149000D01*
X124100931Y-118196307D01*
X123876903Y-118289102D01*
X123675283Y-118423820D01*
X123503820Y-118595283D01*
X123369102Y-118796903D01*
X123276307Y-119020931D01*
X123229000Y-119258757D01*
X123229000Y-119501243D01*
X123276307Y-119739069D01*
X123369102Y-119963097D01*
X123503820Y-120164717D01*
X123675283Y-120336180D01*
X123876903Y-120470898D01*
X124100931Y-120563693D01*
X124338757Y-120611000D01*
X124581243Y-120611000D01*
X124819069Y-120563693D01*
X125043097Y-120470898D01*
X125244717Y-120336180D01*
X125416180Y-120164717D01*
X125550898Y-119963097D01*
X125582832Y-119886000D01*
X127300999Y-119886000D01*
X125772999Y-121414000D01*
X125582832Y-121414000D01*
X125550898Y-121336903D01*
X125416180Y-121135283D01*
X125244717Y-120963820D01*
X125043097Y-120829102D01*
X124819069Y-120736307D01*
X124581243Y-120689000D01*
X124338757Y-120689000D01*
X124100931Y-120736307D01*
X123876903Y-120829102D01*
X123675283Y-120963820D01*
X123503820Y-121135283D01*
X123369102Y-121336903D01*
X123276307Y-121560931D01*
X123229000Y-121798757D01*
X123229000Y-122041243D01*
X123276307Y-122279069D01*
X123369102Y-122503097D01*
X123503820Y-122704717D01*
X123675283Y-122876180D01*
X123876903Y-123010898D01*
X124100931Y-123103693D01*
X124338757Y-123151000D01*
X124581243Y-123151000D01*
X124819069Y-123103693D01*
X125043097Y-123010898D01*
X125244717Y-122876180D01*
X125416180Y-122704717D01*
X125550898Y-122503097D01*
X125582832Y-122426000D01*
X125778409Y-122426000D01*
X124896167Y-123308242D01*
X124819069Y-123276307D01*
X124581243Y-123229000D01*
X124338757Y-123229000D01*
X124100931Y-123276307D01*
X123876903Y-123369102D01*
X123675283Y-123503820D01*
X123503820Y-123675283D01*
X123369102Y-123876903D01*
X123276307Y-124100931D01*
X123229000Y-124338757D01*
X123229000Y-124581243D01*
X123276307Y-124819069D01*
X123369102Y-125043097D01*
X123503820Y-125244717D01*
X123675283Y-125416180D01*
X123876903Y-125550898D01*
X124100931Y-125643693D01*
X124338757Y-125691000D01*
X124581243Y-125691000D01*
X124819069Y-125643693D01*
X125043097Y-125550898D01*
X125244717Y-125416180D01*
X125416180Y-125244717D01*
X125550898Y-125043097D01*
X125643693Y-124819069D01*
X125691000Y-124581243D01*
X125691000Y-124338757D01*
X125643693Y-124100931D01*
X125611758Y-124023833D01*
X139389598Y-110245994D01*
X139388887Y-110247058D01*
X139330013Y-110389191D01*
X139300000Y-110540078D01*
X139300000Y-110682408D01*
X135794781Y-114187628D01*
X135775474Y-114203473D01*
X135712242Y-114280521D01*
X135701831Y-114299999D01*
X135665255Y-114368426D01*
X135636322Y-114463808D01*
X135631171Y-114516112D01*
X135567821Y-114535329D01*
X135458411Y-114593810D01*
X135362512Y-114672512D01*
X135283810Y-114768411D01*
X135225329Y-114877821D01*
X135189317Y-114996538D01*
X135177157Y-115119999D01*
X135177157Y-116020001D01*
X135189317Y-116143462D01*
X135225329Y-116262179D01*
X135283810Y-116371589D01*
X135362512Y-116467488D01*
X135458411Y-116546190D01*
X135567821Y-116604671D01*
X135686538Y-116640683D01*
X135809999Y-116652843D01*
X135924755Y-116652843D01*
X126083599Y-126494000D01*
X125582832Y-126494000D01*
X125550898Y-126416903D01*
X125416180Y-126215283D01*
X125244717Y-126043820D01*
X125043097Y-125909102D01*
X124819069Y-125816307D01*
X124581243Y-125769000D01*
X124338757Y-125769000D01*
X124100931Y-125816307D01*
X123876903Y-125909102D01*
X123675283Y-126043820D01*
X123503820Y-126215283D01*
X123369102Y-126416903D01*
X123276307Y-126640931D01*
X123229000Y-126878757D01*
X123229000Y-127121243D01*
X123276307Y-127359069D01*
X123369102Y-127583097D01*
X123503820Y-127784717D01*
X123675283Y-127956180D01*
X123876903Y-128090898D01*
X124100931Y-128183693D01*
X124338757Y-128231000D01*
X124581243Y-128231000D01*
X124819069Y-128183693D01*
X125043097Y-128090898D01*
X125244717Y-127956180D01*
X125416180Y-127784717D01*
X125550898Y-127583097D01*
X125582832Y-127506000D01*
X126268344Y-127506000D01*
X126293190Y-127508447D01*
X126318036Y-127506000D01*
X126318044Y-127506000D01*
X126392383Y-127498678D01*
X126487765Y-127469745D01*
X126575669Y-127422759D01*
X126652717Y-127359527D01*
X126668566Y-127340215D01*
X129670024Y-124338757D01*
X137199000Y-124338757D01*
X137199000Y-124581243D01*
X137246307Y-124819069D01*
X137339102Y-125043097D01*
X137473820Y-125244717D01*
X137645283Y-125416180D01*
X137846903Y-125550898D01*
X138070931Y-125643693D01*
X138308757Y-125691000D01*
X138551243Y-125691000D01*
X138789069Y-125643693D01*
X139013097Y-125550898D01*
X139214717Y-125416180D01*
X139386180Y-125244717D01*
X139520898Y-125043097D01*
X139613693Y-124819069D01*
X139661000Y-124581243D01*
X139661000Y-124338757D01*
X139739000Y-124338757D01*
X139739000Y-124581243D01*
X139786307Y-124819069D01*
X139879102Y-125043097D01*
X140013820Y-125244717D01*
X140185283Y-125416180D01*
X140386903Y-125550898D01*
X140610931Y-125643693D01*
X140848757Y-125691000D01*
X141091243Y-125691000D01*
X141329069Y-125643693D01*
X141553097Y-125550898D01*
X141754717Y-125416180D01*
X141926180Y-125244717D01*
X142060898Y-125043097D01*
X142153693Y-124819069D01*
X142201000Y-124581243D01*
X142201000Y-124338757D01*
X142279000Y-124338757D01*
X142279000Y-124581243D01*
X142326307Y-124819069D01*
X142419102Y-125043097D01*
X142553820Y-125244717D01*
X142725283Y-125416180D01*
X142926903Y-125550898D01*
X143150931Y-125643693D01*
X143388757Y-125691000D01*
X143631243Y-125691000D01*
X143869069Y-125643693D01*
X144093097Y-125550898D01*
X144294717Y-125416180D01*
X144466180Y-125244717D01*
X144600898Y-125043097D01*
X144693693Y-124819069D01*
X144741000Y-124581243D01*
X144741000Y-124338757D01*
X144819000Y-124338757D01*
X144819000Y-124581243D01*
X144866307Y-124819069D01*
X144959102Y-125043097D01*
X145093820Y-125244717D01*
X145265283Y-125416180D01*
X145466903Y-125550898D01*
X145690931Y-125643693D01*
X145928757Y-125691000D01*
X146171243Y-125691000D01*
X146409069Y-125643693D01*
X146633097Y-125550898D01*
X146834717Y-125416180D01*
X147006180Y-125244717D01*
X147140898Y-125043097D01*
X147233693Y-124819069D01*
X147281000Y-124581243D01*
X147281000Y-124338757D01*
X147359000Y-124338757D01*
X147359000Y-124581243D01*
X147406307Y-124819069D01*
X147499102Y-125043097D01*
X147633820Y-125244717D01*
X147805283Y-125416180D01*
X148006903Y-125550898D01*
X148230931Y-125643693D01*
X148468757Y-125691000D01*
X148711243Y-125691000D01*
X148949069Y-125643693D01*
X149173097Y-125550898D01*
X149374717Y-125416180D01*
X149480897Y-125310000D01*
X149897157Y-125310000D01*
X149904513Y-125384689D01*
X149926299Y-125456508D01*
X149961678Y-125522696D01*
X150009289Y-125580711D01*
X150067304Y-125628322D01*
X150133492Y-125663701D01*
X150205311Y-125685487D01*
X150280000Y-125692843D01*
X150907750Y-125691000D01*
X151003000Y-125595750D01*
X151003000Y-124587000D01*
X151257000Y-124587000D01*
X151257000Y-125595750D01*
X151352250Y-125691000D01*
X151980000Y-125692843D01*
X152054689Y-125685487D01*
X152126508Y-125663701D01*
X152192696Y-125628322D01*
X152250711Y-125580711D01*
X152298322Y-125522696D01*
X152333701Y-125456508D01*
X152355487Y-125384689D01*
X152362843Y-125310000D01*
X152361000Y-124682250D01*
X152265750Y-124587000D01*
X151257000Y-124587000D01*
X151003000Y-124587000D01*
X149994250Y-124587000D01*
X149899000Y-124682250D01*
X149897157Y-125310000D01*
X149480897Y-125310000D01*
X149546180Y-125244717D01*
X149680898Y-125043097D01*
X149773693Y-124819069D01*
X149821000Y-124581243D01*
X149821000Y-124338757D01*
X149773693Y-124100931D01*
X149680898Y-123876903D01*
X149546180Y-123675283D01*
X149480897Y-123610000D01*
X149897157Y-123610000D01*
X149899000Y-124237750D01*
X149994250Y-124333000D01*
X151003000Y-124333000D01*
X151003000Y-123324250D01*
X151257000Y-123324250D01*
X151257000Y-124333000D01*
X152265750Y-124333000D01*
X152361000Y-124237750D01*
X152362843Y-123610000D01*
X152355487Y-123535311D01*
X152333701Y-123463492D01*
X152298322Y-123397304D01*
X152250711Y-123339289D01*
X152192696Y-123291678D01*
X152126508Y-123256299D01*
X152054689Y-123234513D01*
X151980000Y-123227157D01*
X151352250Y-123229000D01*
X151257000Y-123324250D01*
X151003000Y-123324250D01*
X150907750Y-123229000D01*
X150280000Y-123227157D01*
X150205311Y-123234513D01*
X150133492Y-123256299D01*
X150067304Y-123291678D01*
X150009289Y-123339289D01*
X149961678Y-123397304D01*
X149926299Y-123463492D01*
X149904513Y-123535311D01*
X149897157Y-123610000D01*
X149480897Y-123610000D01*
X149374717Y-123503820D01*
X149173097Y-123369102D01*
X148949069Y-123276307D01*
X148711243Y-123229000D01*
X148468757Y-123229000D01*
X148230931Y-123276307D01*
X148006903Y-123369102D01*
X147805283Y-123503820D01*
X147633820Y-123675283D01*
X147499102Y-123876903D01*
X147406307Y-124100931D01*
X147359000Y-124338757D01*
X147281000Y-124338757D01*
X147233693Y-124100931D01*
X147140898Y-123876903D01*
X147006180Y-123675283D01*
X146834717Y-123503820D01*
X146633097Y-123369102D01*
X146409069Y-123276307D01*
X146171243Y-123229000D01*
X145928757Y-123229000D01*
X145690931Y-123276307D01*
X145466903Y-123369102D01*
X145265283Y-123503820D01*
X145093820Y-123675283D01*
X144959102Y-123876903D01*
X144866307Y-124100931D01*
X144819000Y-124338757D01*
X144741000Y-124338757D01*
X144693693Y-124100931D01*
X144600898Y-123876903D01*
X144466180Y-123675283D01*
X144294717Y-123503820D01*
X144093097Y-123369102D01*
X143869069Y-123276307D01*
X143631243Y-123229000D01*
X143388757Y-123229000D01*
X143150931Y-123276307D01*
X142926903Y-123369102D01*
X142725283Y-123503820D01*
X142553820Y-123675283D01*
X142419102Y-123876903D01*
X142326307Y-124100931D01*
X142279000Y-124338757D01*
X142201000Y-124338757D01*
X142153693Y-124100931D01*
X142060898Y-123876903D01*
X141926180Y-123675283D01*
X141754717Y-123503820D01*
X141553097Y-123369102D01*
X141329069Y-123276307D01*
X141091243Y-123229000D01*
X140848757Y-123229000D01*
X140610931Y-123276307D01*
X140386903Y-123369102D01*
X140185283Y-123503820D01*
X140013820Y-123675283D01*
X139879102Y-123876903D01*
X139786307Y-124100931D01*
X139739000Y-124338757D01*
X139661000Y-124338757D01*
X139613693Y-124100931D01*
X139520898Y-123876903D01*
X139386180Y-123675283D01*
X139214717Y-123503820D01*
X139013097Y-123369102D01*
X138789069Y-123276307D01*
X138551243Y-123229000D01*
X138308757Y-123229000D01*
X138070931Y-123276307D01*
X137846903Y-123369102D01*
X137645283Y-123503820D01*
X137473820Y-123675283D01*
X137339102Y-123876903D01*
X137246307Y-124100931D01*
X137199000Y-124338757D01*
X129670024Y-124338757D01*
X137375230Y-116633552D01*
X137394537Y-116617707D01*
X137457769Y-116540659D01*
X137471155Y-116515615D01*
X137508411Y-116546190D01*
X137617821Y-116604671D01*
X137736538Y-116640683D01*
X137859999Y-116652843D01*
X138510001Y-116652843D01*
X138633462Y-116640683D01*
X138752179Y-116604671D01*
X138861589Y-116546190D01*
X138957488Y-116467488D01*
X139036190Y-116371589D01*
X139094671Y-116262179D01*
X139130683Y-116143462D01*
X139134115Y-116108616D01*
X139202141Y-116176642D01*
X139330058Y-116262113D01*
X139472191Y-116320987D01*
X139623078Y-116351000D01*
X139776922Y-116351000D01*
X139927809Y-116320987D01*
X140069942Y-116262113D01*
X140197859Y-116176642D01*
X140265885Y-116108616D01*
X140269317Y-116143462D01*
X140305329Y-116262179D01*
X140363810Y-116371589D01*
X140442512Y-116467488D01*
X140538411Y-116546190D01*
X140647821Y-116604671D01*
X140766538Y-116640683D01*
X140889999Y-116652843D01*
X141540001Y-116652843D01*
X141578464Y-116649055D01*
X144141628Y-119212220D01*
X144157473Y-119231527D01*
X144234521Y-119294759D01*
X144322425Y-119341745D01*
X144417806Y-119370678D01*
X144427694Y-119371652D01*
X144492146Y-119378000D01*
X144492153Y-119378000D01*
X144516999Y-119380447D01*
X144541845Y-119378000D01*
X150531499Y-119378000D01*
X150632141Y-119478642D01*
X150760058Y-119564113D01*
X150902191Y-119622987D01*
X151053078Y-119653000D01*
X151206922Y-119653000D01*
X151357809Y-119622987D01*
X151499942Y-119564113D01*
X151627859Y-119478642D01*
X151736642Y-119369859D01*
X151822113Y-119241942D01*
X151880987Y-119099809D01*
X151911000Y-118948922D01*
X151911000Y-118795078D01*
X151880987Y-118644191D01*
X151822113Y-118502058D01*
X151736642Y-118374141D01*
X151627859Y-118265358D01*
X151499942Y-118179887D01*
X151357809Y-118121013D01*
X151206922Y-118091000D01*
X151053078Y-118091000D01*
X150902191Y-118121013D01*
X150760058Y-118179887D01*
X150632141Y-118265358D01*
X150531499Y-118366000D01*
X144726592Y-118366000D01*
X143013434Y-116652843D01*
X143590001Y-116652843D01*
X143713462Y-116640683D01*
X143832179Y-116604671D01*
X143941589Y-116546190D01*
X144037488Y-116467488D01*
X144116190Y-116371589D01*
X144171326Y-116268437D01*
X144298191Y-116320987D01*
X144449078Y-116351000D01*
X144602922Y-116351000D01*
X144753809Y-116320987D01*
X144895942Y-116262113D01*
X145023859Y-116176642D01*
X145132642Y-116067859D01*
X145218113Y-115939942D01*
X145276987Y-115797809D01*
X145307000Y-115646922D01*
X145307000Y-115493078D01*
X145276987Y-115342191D01*
X145218113Y-115200058D01*
X145132642Y-115072141D01*
X145023859Y-114963358D01*
X144895942Y-114877887D01*
X144753809Y-114819013D01*
X144602922Y-114789000D01*
X144449078Y-114789000D01*
X144298191Y-114819013D01*
X144171326Y-114871563D01*
X144116190Y-114768411D01*
X144037488Y-114672512D01*
X143941589Y-114593810D01*
X143832179Y-114535329D01*
X143713462Y-114499317D01*
X143590001Y-114487157D01*
X142939999Y-114487157D01*
X142816538Y-114499317D01*
X142697821Y-114535329D01*
X142588411Y-114593810D01*
X142492512Y-114672512D01*
X142413810Y-114768411D01*
X142355329Y-114877821D01*
X142319317Y-114996538D01*
X142307157Y-115119999D01*
X142307157Y-115946566D01*
X142172843Y-115812252D01*
X142172843Y-115119999D01*
X142160683Y-114996538D01*
X142124671Y-114877821D01*
X142066190Y-114768411D01*
X141987488Y-114672512D01*
X141891589Y-114593810D01*
X141782179Y-114535329D01*
X141663462Y-114499317D01*
X141540001Y-114487157D01*
X140889999Y-114487157D01*
X140766538Y-114499317D01*
X140647821Y-114535329D01*
X140538411Y-114593810D01*
X140442512Y-114672512D01*
X140363810Y-114768411D01*
X140305329Y-114877821D01*
X140269317Y-114996538D01*
X140265885Y-115031384D01*
X140197859Y-114963358D01*
X140069942Y-114877887D01*
X139927809Y-114819013D01*
X139776922Y-114789000D01*
X139623078Y-114789000D01*
X139472191Y-114819013D01*
X139330058Y-114877887D01*
X139202141Y-114963358D01*
X139134115Y-115031384D01*
X139130683Y-114996538D01*
X139094671Y-114877821D01*
X139036190Y-114768411D01*
X138957488Y-114672512D01*
X138861589Y-114593810D01*
X138752179Y-114535329D01*
X138633462Y-114499317D01*
X138585955Y-114494638D01*
X144776218Y-108304376D01*
X144795525Y-108288531D01*
X144858757Y-108211483D01*
X144905743Y-108123579D01*
X144934676Y-108028197D01*
X144941998Y-107953858D01*
X144941998Y-107953851D01*
X144944445Y-107929005D01*
X144941998Y-107904159D01*
X144941998Y-103114739D01*
X145084078Y-103143000D01*
X145237922Y-103143000D01*
X145388809Y-103112987D01*
X145530942Y-103054113D01*
X145544000Y-103045388D01*
X145544001Y-109025144D01*
X145541553Y-109050000D01*
X145551322Y-109149192D01*
X145580255Y-109244574D01*
X145585587Y-109254549D01*
X145627242Y-109332479D01*
X145690474Y-109409527D01*
X145709781Y-109425372D01*
X163624628Y-127340220D01*
X163640473Y-127359527D01*
X163717521Y-127422759D01*
X163805425Y-127469745D01*
X163867157Y-127488471D01*
X163867157Y-127850000D01*
X163874513Y-127924689D01*
X163896299Y-127996508D01*
X163931678Y-128062696D01*
X163979289Y-128120711D01*
X164037304Y-128168322D01*
X164103492Y-128203701D01*
X164175311Y-128225487D01*
X164250000Y-128232843D01*
X165950000Y-128232843D01*
X166024689Y-128225487D01*
X166096508Y-128203701D01*
X166162696Y-128168322D01*
X166220711Y-128120711D01*
X166268322Y-128062696D01*
X166303701Y-127996508D01*
X166325487Y-127924689D01*
X166332843Y-127850000D01*
X166332843Y-126150000D01*
X166325487Y-126075311D01*
X166303701Y-126003492D01*
X166268322Y-125937304D01*
X166220711Y-125879289D01*
X166162696Y-125831678D01*
X166096508Y-125796299D01*
X166024689Y-125774513D01*
X165950000Y-125767157D01*
X164250000Y-125767157D01*
X164175311Y-125774513D01*
X164103492Y-125796299D01*
X164037304Y-125831678D01*
X163979289Y-125879289D01*
X163931678Y-125937304D01*
X163896299Y-126003492D01*
X163874513Y-126075311D01*
X163867157Y-126150000D01*
X163867157Y-126151565D01*
X149562860Y-111847269D01*
X149632191Y-111875987D01*
X149783078Y-111906000D01*
X149936922Y-111906000D01*
X150087809Y-111875987D01*
X150229942Y-111817113D01*
X150357859Y-111731642D01*
X150466642Y-111622859D01*
X150552113Y-111494942D01*
X150610987Y-111352809D01*
X150641000Y-111201922D01*
X150641000Y-111059591D01*
X151720592Y-109980000D01*
X153706499Y-109980000D01*
X153807141Y-110080642D01*
X153935058Y-110166113D01*
X154077191Y-110224987D01*
X154228078Y-110255000D01*
X154381922Y-110255000D01*
X154532809Y-110224987D01*
X154674942Y-110166113D01*
X154802859Y-110080642D01*
X154911642Y-109971859D01*
X154997113Y-109843942D01*
X155055987Y-109701809D01*
X155086000Y-109550922D01*
X155086000Y-109397078D01*
X155075946Y-109346534D01*
X162968988Y-117239577D01*
X162968989Y-122810132D01*
X162966541Y-122834988D01*
X162976310Y-122934180D01*
X163005243Y-123029562D01*
X163005244Y-123029563D01*
X163052230Y-123117467D01*
X163115462Y-123194515D01*
X163134768Y-123210360D01*
X163948242Y-124023833D01*
X163916307Y-124100931D01*
X163869000Y-124338757D01*
X163869000Y-124581243D01*
X163916307Y-124819069D01*
X164009102Y-125043097D01*
X164143820Y-125244717D01*
X164315283Y-125416180D01*
X164516903Y-125550898D01*
X164740931Y-125643693D01*
X164978757Y-125691000D01*
X165221243Y-125691000D01*
X165459069Y-125643693D01*
X165683097Y-125550898D01*
X165884717Y-125416180D01*
X166056180Y-125244717D01*
X166190898Y-125043097D01*
X166283693Y-124819069D01*
X166331000Y-124581243D01*
X166331000Y-124338757D01*
X166283693Y-124100931D01*
X166190898Y-123876903D01*
X166056180Y-123675283D01*
X165884717Y-123503820D01*
X165683097Y-123369102D01*
X165459069Y-123276307D01*
X165221243Y-123229000D01*
X164978757Y-123229000D01*
X164740931Y-123276307D01*
X164663833Y-123308242D01*
X163980988Y-122625397D01*
X163980988Y-122435223D01*
X164009102Y-122503097D01*
X164143820Y-122704717D01*
X164315283Y-122876180D01*
X164516903Y-123010898D01*
X164740931Y-123103693D01*
X164978757Y-123151000D01*
X165221243Y-123151000D01*
X165459069Y-123103693D01*
X165683097Y-123010898D01*
X165884717Y-122876180D01*
X166056180Y-122704717D01*
X166190898Y-122503097D01*
X166283693Y-122279069D01*
X166331000Y-122041243D01*
X166331000Y-121798757D01*
X166283693Y-121560931D01*
X166190898Y-121336903D01*
X166056180Y-121135283D01*
X165884717Y-120963820D01*
X165683097Y-120829102D01*
X165459069Y-120736307D01*
X165221243Y-120689000D01*
X164978757Y-120689000D01*
X164740931Y-120736307D01*
X164663833Y-120768242D01*
X164430999Y-120535408D01*
X164430999Y-120406654D01*
X164557051Y-120484799D01*
X164783019Y-120569495D01*
X164973000Y-120509187D01*
X164973000Y-119507000D01*
X165227000Y-119507000D01*
X165227000Y-120509187D01*
X165416981Y-120569495D01*
X165642949Y-120484799D01*
X165848052Y-120357647D01*
X166024408Y-120192924D01*
X166165239Y-119996961D01*
X166265134Y-119777288D01*
X166289489Y-119696980D01*
X166228627Y-119507000D01*
X165227000Y-119507000D01*
X164973000Y-119507000D01*
X164953000Y-119507000D01*
X164953000Y-119253000D01*
X164973000Y-119253000D01*
X164973000Y-118250813D01*
X165227000Y-118250813D01*
X165227000Y-119253000D01*
X166228627Y-119253000D01*
X166289489Y-119063020D01*
X166265134Y-118982712D01*
X166165239Y-118763039D01*
X166024408Y-118567076D01*
X165848052Y-118402353D01*
X165642949Y-118275201D01*
X165416981Y-118190505D01*
X165227000Y-118250813D01*
X164973000Y-118250813D01*
X164783019Y-118190505D01*
X164557051Y-118275201D01*
X164430999Y-118353346D01*
X164430999Y-117866654D01*
X164557051Y-117944799D01*
X164783019Y-118029495D01*
X164973000Y-117969187D01*
X164973000Y-116967000D01*
X165227000Y-116967000D01*
X165227000Y-117969187D01*
X165416981Y-118029495D01*
X165642949Y-117944799D01*
X165848052Y-117817647D01*
X166024408Y-117652924D01*
X166165239Y-117456961D01*
X166265134Y-117237288D01*
X166289489Y-117156980D01*
X166228627Y-116967000D01*
X165227000Y-116967000D01*
X164973000Y-116967000D01*
X164953000Y-116967000D01*
X164953000Y-116713000D01*
X164973000Y-116713000D01*
X164973000Y-115710813D01*
X165227000Y-115710813D01*
X165227000Y-116713000D01*
X166228627Y-116713000D01*
X166289489Y-116523020D01*
X166265134Y-116442712D01*
X166165239Y-116223039D01*
X166024408Y-116027076D01*
X165848052Y-115862353D01*
X165642949Y-115735201D01*
X165416981Y-115650505D01*
X165227000Y-115710813D01*
X164973000Y-115710813D01*
X164783019Y-115650505D01*
X164557051Y-115735201D01*
X164351948Y-115862353D01*
X164175592Y-116027076D01*
X164034761Y-116223039D01*
X164030161Y-116233156D01*
X155957207Y-108160203D01*
X155957207Y-108017871D01*
X155927194Y-107866984D01*
X155868320Y-107724851D01*
X155782849Y-107596934D01*
X155674066Y-107488151D01*
X155546149Y-107402680D01*
X155404016Y-107343806D01*
X155253129Y-107313793D01*
X155110797Y-107313793D01*
X150003364Y-102206360D01*
X150102942Y-102165113D01*
X150230859Y-102079642D01*
X150331501Y-101979000D01*
X151659033Y-101979000D01*
X151707887Y-102096942D01*
X151793358Y-102224859D01*
X151902141Y-102333642D01*
X152030058Y-102419113D01*
X152172191Y-102477987D01*
X152323078Y-102508000D01*
X152476922Y-102508000D01*
X152627809Y-102477987D01*
X152769942Y-102419113D01*
X152897859Y-102333642D01*
X153006642Y-102224859D01*
X153092113Y-102096942D01*
X153150987Y-101954809D01*
X153181000Y-101803922D01*
X153181000Y-101650078D01*
X153150987Y-101499191D01*
X153098651Y-101372843D01*
X153150000Y-101372843D01*
X153224689Y-101365487D01*
X153296508Y-101343701D01*
X153362696Y-101308322D01*
X153420711Y-101260711D01*
X153468322Y-101202696D01*
X153503701Y-101136508D01*
X153525487Y-101064689D01*
X153532843Y-100990000D01*
X153532843Y-99490000D01*
X153525487Y-99415311D01*
X153503701Y-99343492D01*
X153468322Y-99277304D01*
X153420711Y-99219289D01*
X153362696Y-99171678D01*
X153296508Y-99136299D01*
X153224689Y-99114513D01*
X153150000Y-99107157D01*
X152525000Y-99107157D01*
X152525000Y-94497497D01*
X152614025Y-94605975D01*
X152748175Y-94716068D01*
X152901225Y-94797875D01*
X153067294Y-94848252D01*
X153196727Y-94861000D01*
X154783273Y-94861000D01*
X154912706Y-94848252D01*
X155078775Y-94797875D01*
X155231825Y-94716068D01*
X155365975Y-94605975D01*
X155464435Y-94486000D01*
X157397409Y-94486000D01*
X159768000Y-96856592D01*
X159768001Y-101204994D01*
X159520773Y-101452223D01*
X159501461Y-101468072D01*
X159438229Y-101545120D01*
X159391243Y-101633025D01*
X159362310Y-101728407D01*
X159354988Y-101802746D01*
X159354988Y-101802753D01*
X159352541Y-101827599D01*
X159354988Y-101852446D01*
X159354989Y-103125545D01*
X159352541Y-103150401D01*
X159362310Y-103249593D01*
X159391243Y-103344975D01*
X159411323Y-103382541D01*
X159438230Y-103432880D01*
X159501462Y-103509928D01*
X159520768Y-103525772D01*
X159768000Y-103773005D01*
X159768001Y-109449144D01*
X159765553Y-109474000D01*
X159775322Y-109573192D01*
X159804255Y-109668574D01*
X159822020Y-109701809D01*
X159851242Y-109756479D01*
X159914474Y-109833527D01*
X159933781Y-109849372D01*
X163909779Y-113825371D01*
X163909784Y-113825375D01*
X163948242Y-113863833D01*
X163916307Y-113940931D01*
X163869000Y-114178757D01*
X163869000Y-114421243D01*
X163916307Y-114659069D01*
X164009102Y-114883097D01*
X164143820Y-115084717D01*
X164315283Y-115256180D01*
X164516903Y-115390898D01*
X164740931Y-115483693D01*
X164978757Y-115531000D01*
X165221243Y-115531000D01*
X165459069Y-115483693D01*
X165683097Y-115390898D01*
X165884717Y-115256180D01*
X166056180Y-115084717D01*
X166190898Y-114883097D01*
X166283693Y-114659069D01*
X166331000Y-114421243D01*
X166331000Y-114178757D01*
X166283693Y-113940931D01*
X166190898Y-113716903D01*
X166056180Y-113515283D01*
X165884717Y-113343820D01*
X165683097Y-113209102D01*
X165459069Y-113116307D01*
X165221243Y-113069000D01*
X164978757Y-113069000D01*
X164740931Y-113116307D01*
X164663833Y-113148242D01*
X164625375Y-113109784D01*
X164625371Y-113109779D01*
X160780000Y-109264409D01*
X160780000Y-107139591D01*
X163417256Y-109776848D01*
X163416552Y-109784001D01*
X163418999Y-109808847D01*
X163418999Y-109808855D01*
X163426321Y-109883194D01*
X163455254Y-109978576D01*
X163502241Y-110066480D01*
X163565473Y-110143528D01*
X163584779Y-110159372D01*
X164160627Y-110735221D01*
X164176472Y-110754528D01*
X164253520Y-110817760D01*
X164284685Y-110834418D01*
X164143820Y-110975283D01*
X164009102Y-111176903D01*
X163916307Y-111400931D01*
X163869000Y-111638757D01*
X163869000Y-111881243D01*
X163916307Y-112119069D01*
X164009102Y-112343097D01*
X164143820Y-112544717D01*
X164315283Y-112716180D01*
X164516903Y-112850898D01*
X164740931Y-112943693D01*
X164978757Y-112991000D01*
X165221243Y-112991000D01*
X165459069Y-112943693D01*
X165683097Y-112850898D01*
X165884717Y-112716180D01*
X166056180Y-112544717D01*
X166190898Y-112343097D01*
X166283693Y-112119069D01*
X166331000Y-111881243D01*
X166331000Y-111638757D01*
X166283693Y-111400931D01*
X166190898Y-111176903D01*
X166056180Y-110975283D01*
X165884717Y-110803820D01*
X165683097Y-110669102D01*
X165606000Y-110637168D01*
X165606000Y-110582773D01*
X165608448Y-110557919D01*
X165598678Y-110458726D01*
X165569745Y-110363345D01*
X165569745Y-110363344D01*
X165567341Y-110358846D01*
X165683097Y-110310898D01*
X165884717Y-110176180D01*
X166056180Y-110004717D01*
X166190898Y-109803097D01*
X166283693Y-109579069D01*
X166331000Y-109341243D01*
X166331000Y-109098757D01*
X166283693Y-108860931D01*
X166190898Y-108636903D01*
X166056180Y-108435283D01*
X165884717Y-108263820D01*
X165683097Y-108129102D01*
X165459069Y-108036307D01*
X165221243Y-107989000D01*
X164978757Y-107989000D01*
X164740931Y-108036307D01*
X164663833Y-108068242D01*
X161738011Y-105142420D01*
X161738011Y-103570584D01*
X161740458Y-103545738D01*
X161738011Y-103520892D01*
X161738011Y-103520885D01*
X161737353Y-103514201D01*
X161809058Y-103562113D01*
X161951191Y-103620987D01*
X162102078Y-103651000D01*
X162244409Y-103651000D01*
X162693989Y-104100581D01*
X162693990Y-104557498D01*
X162593347Y-104658141D01*
X162507876Y-104786058D01*
X162449002Y-104928191D01*
X162418989Y-105079078D01*
X162418989Y-105232922D01*
X162449002Y-105383809D01*
X162507876Y-105525942D01*
X162593347Y-105653859D01*
X162702130Y-105762642D01*
X162830047Y-105848113D01*
X162972180Y-105906987D01*
X163123067Y-105937000D01*
X163276911Y-105937000D01*
X163427798Y-105906987D01*
X163569931Y-105848113D01*
X163585781Y-105837523D01*
X163588082Y-105841828D01*
X163624244Y-105909481D01*
X163687476Y-105986529D01*
X163706782Y-106002373D01*
X163948242Y-106243833D01*
X163916307Y-106320931D01*
X163869000Y-106558757D01*
X163869000Y-106801243D01*
X163916307Y-107039069D01*
X164009102Y-107263097D01*
X164143820Y-107464717D01*
X164315283Y-107636180D01*
X164516903Y-107770898D01*
X164740931Y-107863693D01*
X164978757Y-107911000D01*
X165221243Y-107911000D01*
X165459069Y-107863693D01*
X165683097Y-107770898D01*
X165884717Y-107636180D01*
X166056180Y-107464717D01*
X166190898Y-107263097D01*
X166283693Y-107039069D01*
X166331000Y-106801243D01*
X166331000Y-106558757D01*
X166283693Y-106320931D01*
X166190898Y-106096903D01*
X166056180Y-105895283D01*
X165884717Y-105723820D01*
X165683097Y-105589102D01*
X165459069Y-105496307D01*
X165221243Y-105449000D01*
X164978757Y-105449000D01*
X164740931Y-105496307D01*
X164663833Y-105528242D01*
X164553002Y-105417411D01*
X164553002Y-105245851D01*
X164740931Y-105323693D01*
X164978757Y-105371000D01*
X165221243Y-105371000D01*
X165459069Y-105323693D01*
X165683097Y-105230898D01*
X165884717Y-105096180D01*
X166056180Y-104924717D01*
X166190898Y-104723097D01*
X166283693Y-104499069D01*
X166331000Y-104261243D01*
X166331000Y-104018757D01*
X166283693Y-103780931D01*
X166190898Y-103556903D01*
X166056180Y-103355283D01*
X165884717Y-103183820D01*
X165683097Y-103049102D01*
X165459069Y-102956307D01*
X165221243Y-102909000D01*
X164978757Y-102909000D01*
X164848859Y-102934839D01*
X164667155Y-102753134D01*
X164740931Y-102783693D01*
X164978757Y-102831000D01*
X165221243Y-102831000D01*
X165459069Y-102783693D01*
X165683097Y-102690898D01*
X165884717Y-102556180D01*
X166056180Y-102384717D01*
X166190898Y-102183097D01*
X166283693Y-101959069D01*
X166331000Y-101721243D01*
X166331000Y-101478757D01*
X166283693Y-101240931D01*
X166190898Y-101016903D01*
X166056180Y-100815283D01*
X165884717Y-100643820D01*
X165683097Y-100509102D01*
X165459069Y-100416307D01*
X165221243Y-100369000D01*
X164978757Y-100369000D01*
X164740931Y-100416307D01*
X164663833Y-100448242D01*
X163758989Y-99543398D01*
X163758989Y-98434580D01*
X163948242Y-98623833D01*
X163916307Y-98700931D01*
X163869000Y-98938757D01*
X163869000Y-99181243D01*
X163916307Y-99419069D01*
X164009102Y-99643097D01*
X164143820Y-99844717D01*
X164315283Y-100016180D01*
X164516903Y-100150898D01*
X164740931Y-100243693D01*
X164978757Y-100291000D01*
X165221243Y-100291000D01*
X165459069Y-100243693D01*
X165683097Y-100150898D01*
X165884717Y-100016180D01*
X166056180Y-99844717D01*
X166190898Y-99643097D01*
X166283693Y-99419069D01*
X166331000Y-99181243D01*
X166331000Y-98938757D01*
X166283693Y-98700931D01*
X166190898Y-98476903D01*
X166056180Y-98275283D01*
X165884717Y-98103820D01*
X165683097Y-97969102D01*
X165459069Y-97876307D01*
X165221243Y-97829000D01*
X164978757Y-97829000D01*
X164740931Y-97876307D01*
X164663833Y-97908242D01*
X164209000Y-97453409D01*
X164209000Y-97369897D01*
X164315283Y-97476180D01*
X164516903Y-97610898D01*
X164740931Y-97703693D01*
X164978757Y-97751000D01*
X165221243Y-97751000D01*
X165459069Y-97703693D01*
X165683097Y-97610898D01*
X165884717Y-97476180D01*
X166056180Y-97304717D01*
X166190898Y-97103097D01*
X166283693Y-96879069D01*
X166331000Y-96641243D01*
X166331000Y-96398757D01*
X166283693Y-96160931D01*
X166190898Y-95936903D01*
X166056180Y-95735283D01*
X165884717Y-95563820D01*
X165683097Y-95429102D01*
X165459069Y-95336307D01*
X165221243Y-95289000D01*
X164978757Y-95289000D01*
X164740931Y-95336307D01*
X164524939Y-95425774D01*
X164512536Y-95410661D01*
X164493229Y-95394816D01*
X156521021Y-87422610D01*
X156521021Y-87126715D01*
X156523468Y-87101869D01*
X156521021Y-87077023D01*
X156521021Y-87077016D01*
X156513699Y-87002677D01*
X156484766Y-86907295D01*
X156437780Y-86819391D01*
X156374548Y-86742343D01*
X156355241Y-86726498D01*
X156071010Y-86442268D01*
X156071010Y-86043115D01*
X156073457Y-86018269D01*
X156071010Y-85993423D01*
X156071010Y-85993416D01*
X156063688Y-85919077D01*
X156048248Y-85868175D01*
X156034755Y-85823695D01*
X156031427Y-85817468D01*
X155987769Y-85735791D01*
X155924537Y-85658743D01*
X155905230Y-85642898D01*
X155588884Y-85326553D01*
X155592393Y-85314984D01*
X163913326Y-93635918D01*
X163869000Y-93858757D01*
X163869000Y-94101243D01*
X163916307Y-94339069D01*
X164009102Y-94563097D01*
X164143820Y-94764717D01*
X164315283Y-94936180D01*
X164516903Y-95070898D01*
X164740931Y-95163693D01*
X164978757Y-95211000D01*
X165221243Y-95211000D01*
X165459069Y-95163693D01*
X165683097Y-95070898D01*
X165884717Y-94936180D01*
X166056180Y-94764717D01*
X166190898Y-94563097D01*
X166283693Y-94339069D01*
X166331000Y-94101243D01*
X166331000Y-93858757D01*
X166283693Y-93620931D01*
X166190898Y-93396903D01*
X166056180Y-93195283D01*
X165884717Y-93023820D01*
X165683097Y-92889102D01*
X165459069Y-92796307D01*
X165221243Y-92749000D01*
X164978757Y-92749000D01*
X164740931Y-92796307D01*
X164574031Y-92865439D01*
X155616594Y-83908003D01*
X155625262Y-83820000D01*
X155608252Y-83647294D01*
X155557875Y-83481225D01*
X155476068Y-83328175D01*
X155365975Y-83194025D01*
X155354978Y-83185000D01*
X155365975Y-83175975D01*
X155464435Y-83056000D01*
X156000409Y-83056000D01*
X163948242Y-91003834D01*
X163916307Y-91080931D01*
X163869000Y-91318757D01*
X163869000Y-91561243D01*
X163916307Y-91799069D01*
X164009102Y-92023097D01*
X164143820Y-92224717D01*
X164315283Y-92396180D01*
X164516903Y-92530898D01*
X164740931Y-92623693D01*
X164978757Y-92671000D01*
X165221243Y-92671000D01*
X165459069Y-92623693D01*
X165683097Y-92530898D01*
X165884717Y-92396180D01*
X166056180Y-92224717D01*
X166190898Y-92023097D01*
X166283693Y-91799069D01*
X166331000Y-91561243D01*
X166331000Y-91318757D01*
X166283693Y-91080931D01*
X166190898Y-90856903D01*
X166056180Y-90655283D01*
X165884717Y-90483820D01*
X165683097Y-90349102D01*
X165459069Y-90256307D01*
X165221243Y-90209000D01*
X164978757Y-90209000D01*
X164740931Y-90256307D01*
X164663834Y-90288242D01*
X156585376Y-82209785D01*
X156569527Y-82190473D01*
X156492479Y-82127241D01*
X156404575Y-82080255D01*
X156309193Y-82051322D01*
X156234854Y-82044000D01*
X156234846Y-82044000D01*
X156210000Y-82041553D01*
X156185154Y-82044000D01*
X155464435Y-82044000D01*
X155365975Y-81924025D01*
X155354978Y-81915000D01*
X155365975Y-81905975D01*
X155464435Y-81786000D01*
X157270409Y-81786000D01*
X163948242Y-88463834D01*
X163916307Y-88540931D01*
X163869000Y-88778757D01*
X163869000Y-89021243D01*
X163916307Y-89259069D01*
X164009102Y-89483097D01*
X164143820Y-89684717D01*
X164315283Y-89856180D01*
X164516903Y-89990898D01*
X164740931Y-90083693D01*
X164978757Y-90131000D01*
X165221243Y-90131000D01*
X165459069Y-90083693D01*
X165683097Y-89990898D01*
X165884717Y-89856180D01*
X166056180Y-89684717D01*
X166190898Y-89483097D01*
X166283693Y-89259069D01*
X166331000Y-89021243D01*
X166331000Y-88778757D01*
X166283693Y-88540931D01*
X166190898Y-88316903D01*
X166056180Y-88115283D01*
X165884717Y-87943820D01*
X165683097Y-87809102D01*
X165459069Y-87716307D01*
X165221243Y-87669000D01*
X164978757Y-87669000D01*
X164740931Y-87716307D01*
X164663834Y-87748242D01*
X157855376Y-80939785D01*
X157839527Y-80920473D01*
X157762479Y-80857241D01*
X157674575Y-80810255D01*
X157579193Y-80781322D01*
X157504854Y-80774000D01*
X157504846Y-80774000D01*
X157480000Y-80771553D01*
X157455154Y-80774000D01*
X155464435Y-80774000D01*
X155365975Y-80654025D01*
X155354978Y-80645000D01*
X155365975Y-80635975D01*
X155464435Y-80516000D01*
X158540409Y-80516000D01*
X163948242Y-85923834D01*
X163916307Y-86000931D01*
X163869000Y-86238757D01*
X163869000Y-86481243D01*
X163916307Y-86719069D01*
X164009102Y-86943097D01*
X164143820Y-87144717D01*
X164315283Y-87316180D01*
X164516903Y-87450898D01*
X164740931Y-87543693D01*
X164978757Y-87591000D01*
X165221243Y-87591000D01*
X165459069Y-87543693D01*
X165683097Y-87450898D01*
X165884717Y-87316180D01*
X166056180Y-87144717D01*
X166190898Y-86943097D01*
X166283693Y-86719069D01*
X166331000Y-86481243D01*
X166331000Y-86238757D01*
X166283693Y-86000931D01*
X166190898Y-85776903D01*
X166056180Y-85575283D01*
X165884717Y-85403820D01*
X165683097Y-85269102D01*
X165459069Y-85176307D01*
X165221243Y-85129000D01*
X164978757Y-85129000D01*
X164740931Y-85176307D01*
X164663834Y-85208242D01*
X159125376Y-79669785D01*
X159109527Y-79650473D01*
X159032479Y-79587241D01*
X158944575Y-79540255D01*
X158849193Y-79511322D01*
X158774854Y-79504000D01*
X158774846Y-79504000D01*
X158750000Y-79501553D01*
X158725154Y-79504000D01*
X155464435Y-79504000D01*
X155365975Y-79384025D01*
X155354978Y-79375000D01*
X155365975Y-79365975D01*
X155464435Y-79246000D01*
X159810409Y-79246000D01*
X163948242Y-83383834D01*
X163916307Y-83460931D01*
X163869000Y-83698757D01*
X163869000Y-83941243D01*
X163916307Y-84179069D01*
X164009102Y-84403097D01*
X164143820Y-84604717D01*
X164315283Y-84776180D01*
X164516903Y-84910898D01*
X164740931Y-85003693D01*
X164978757Y-85051000D01*
X165221243Y-85051000D01*
X165459069Y-85003693D01*
X165683097Y-84910898D01*
X165884717Y-84776180D01*
X166056180Y-84604717D01*
X166190898Y-84403097D01*
X166283693Y-84179069D01*
X166331000Y-83941243D01*
X166331000Y-83698757D01*
X166283693Y-83460931D01*
X166190898Y-83236903D01*
X166056180Y-83035283D01*
X165884717Y-82863820D01*
X165683097Y-82729102D01*
X165459069Y-82636307D01*
X165221243Y-82589000D01*
X164978757Y-82589000D01*
X164740931Y-82636307D01*
X164663834Y-82668242D01*
X160395376Y-78399785D01*
X160379527Y-78380473D01*
X160302479Y-78317241D01*
X160214575Y-78270255D01*
X160119193Y-78241322D01*
X160044854Y-78234000D01*
X160044846Y-78234000D01*
X160020000Y-78231553D01*
X159995154Y-78234000D01*
X155464435Y-78234000D01*
X155365975Y-78114025D01*
X155354978Y-78105000D01*
X155365975Y-78095975D01*
X155464435Y-77976000D01*
X161080409Y-77976000D01*
X163948242Y-80843833D01*
X163916307Y-80920931D01*
X163869000Y-81158757D01*
X163869000Y-81401243D01*
X163916307Y-81639069D01*
X164009102Y-81863097D01*
X164143820Y-82064717D01*
X164315283Y-82236180D01*
X164516903Y-82370898D01*
X164740931Y-82463693D01*
X164978757Y-82511000D01*
X165221243Y-82511000D01*
X165459069Y-82463693D01*
X165683097Y-82370898D01*
X165884717Y-82236180D01*
X166056180Y-82064717D01*
X166190898Y-81863097D01*
X166283693Y-81639069D01*
X166331000Y-81401243D01*
X166331000Y-81158757D01*
X166283693Y-80920931D01*
X166190898Y-80696903D01*
X166056180Y-80495283D01*
X165884717Y-80323820D01*
X165683097Y-80189102D01*
X165459069Y-80096307D01*
X165221243Y-80049000D01*
X164978757Y-80049000D01*
X164740931Y-80096307D01*
X164663833Y-80128242D01*
X161665376Y-77129785D01*
X161649527Y-77110473D01*
X161572479Y-77047241D01*
X161484575Y-77000255D01*
X161389193Y-76971322D01*
X161314854Y-76964000D01*
X161314846Y-76964000D01*
X161290000Y-76961553D01*
X161265154Y-76964000D01*
X155464435Y-76964000D01*
X155365975Y-76844025D01*
X155354978Y-76835000D01*
X155365975Y-76825975D01*
X155464435Y-76706000D01*
X162350409Y-76706000D01*
X163948242Y-78303833D01*
X163916307Y-78380931D01*
X163869000Y-78618757D01*
X163869000Y-78861243D01*
X163916307Y-79099069D01*
X164009102Y-79323097D01*
X164143820Y-79524717D01*
X164315283Y-79696180D01*
X164516903Y-79830898D01*
X164740931Y-79923693D01*
X164978757Y-79971000D01*
X165221243Y-79971000D01*
X165459069Y-79923693D01*
X165683097Y-79830898D01*
X165884717Y-79696180D01*
X166056180Y-79524717D01*
X166190898Y-79323097D01*
X166283693Y-79099069D01*
X166331000Y-78861243D01*
X166331000Y-78618757D01*
X166283693Y-78380931D01*
X166190898Y-78156903D01*
X166056180Y-77955283D01*
X165884717Y-77783820D01*
X165683097Y-77649102D01*
X165459069Y-77556307D01*
X165221243Y-77509000D01*
X164978757Y-77509000D01*
X164740931Y-77556307D01*
X164663833Y-77588242D01*
X163154348Y-76078757D01*
X163869000Y-76078757D01*
X163869000Y-76321243D01*
X163916307Y-76559069D01*
X164009102Y-76783097D01*
X164143820Y-76984717D01*
X164315283Y-77156180D01*
X164516903Y-77290898D01*
X164740931Y-77383693D01*
X164978757Y-77431000D01*
X165221243Y-77431000D01*
X165459069Y-77383693D01*
X165683097Y-77290898D01*
X165884717Y-77156180D01*
X166056180Y-76984717D01*
X166190898Y-76783097D01*
X166283693Y-76559069D01*
X166331000Y-76321243D01*
X166331000Y-76078757D01*
X166283693Y-75840931D01*
X166190898Y-75616903D01*
X166056180Y-75415283D01*
X165884717Y-75243820D01*
X165683097Y-75109102D01*
X165459069Y-75016307D01*
X165221243Y-74969000D01*
X164978757Y-74969000D01*
X164740931Y-75016307D01*
X164516903Y-75109102D01*
X164315283Y-75243820D01*
X164143820Y-75415283D01*
X164009102Y-75616903D01*
X163916307Y-75840931D01*
X163869000Y-76078757D01*
X163154348Y-76078757D01*
X162935376Y-75859785D01*
X162919527Y-75840473D01*
X162842479Y-75777241D01*
X162754575Y-75730255D01*
X162659193Y-75701322D01*
X162584854Y-75694000D01*
X162584846Y-75694000D01*
X162560000Y-75691553D01*
X162535154Y-75694000D01*
X155464435Y-75694000D01*
X155365975Y-75574025D01*
X155231825Y-75463932D01*
X155078775Y-75382125D01*
X154912706Y-75331748D01*
X154783273Y-75319000D01*
X153196727Y-75319000D01*
X153067294Y-75331748D01*
X152901225Y-75382125D01*
X152748175Y-75463932D01*
X152614025Y-75574025D01*
X152503932Y-75708175D01*
X152422125Y-75861225D01*
X152371748Y-76027294D01*
X152354738Y-76200000D01*
X152371748Y-76372706D01*
X152422125Y-76538775D01*
X152503932Y-76691825D01*
X152614025Y-76825975D01*
X152625022Y-76835000D01*
X152614025Y-76844025D01*
X152503932Y-76978175D01*
X152422125Y-77131225D01*
X152371748Y-77297294D01*
X152354738Y-77470000D01*
X152371748Y-77642706D01*
X152422125Y-77808775D01*
X152503932Y-77961825D01*
X152614025Y-78095975D01*
X152625022Y-78105000D01*
X152614025Y-78114025D01*
X152503932Y-78248175D01*
X152422125Y-78401225D01*
X152371748Y-78567294D01*
X152354738Y-78740000D01*
X152371748Y-78912706D01*
X152422125Y-79078775D01*
X152503932Y-79231825D01*
X152614025Y-79365975D01*
X152625022Y-79375000D01*
X152614025Y-79384025D01*
X152503932Y-79518175D01*
X152422125Y-79671225D01*
X152371748Y-79837294D01*
X152354738Y-80010000D01*
X152371748Y-80182706D01*
X152422125Y-80348775D01*
X152503932Y-80501825D01*
X152614025Y-80635975D01*
X152625022Y-80645000D01*
X152614025Y-80654025D01*
X152503932Y-80788175D01*
X152422125Y-80941225D01*
X152371748Y-81107294D01*
X152354738Y-81280000D01*
X152371748Y-81452706D01*
X152422125Y-81618775D01*
X152503932Y-81771825D01*
X152614025Y-81905975D01*
X152625022Y-81915000D01*
X152614025Y-81924025D01*
X152503932Y-82058175D01*
X152422125Y-82211225D01*
X152371748Y-82377294D01*
X152354738Y-82550000D01*
X152371748Y-82722706D01*
X152422125Y-82888775D01*
X152503932Y-83041825D01*
X152614025Y-83175975D01*
X152625022Y-83185000D01*
X152614025Y-83194025D01*
X152503932Y-83328175D01*
X152422125Y-83481225D01*
X152371748Y-83647294D01*
X152354738Y-83820000D01*
X152371748Y-83992706D01*
X152422125Y-84158775D01*
X152503932Y-84311825D01*
X152614025Y-84445975D01*
X152625022Y-84455000D01*
X152614025Y-84464025D01*
X152503932Y-84598175D01*
X152422125Y-84751225D01*
X152371748Y-84917294D01*
X152354738Y-85090000D01*
X152371748Y-85262706D01*
X152422125Y-85428775D01*
X152503932Y-85581825D01*
X152614025Y-85715975D01*
X152625022Y-85725000D01*
X152614025Y-85734025D01*
X152503932Y-85868175D01*
X152484780Y-85904007D01*
X152465627Y-85868175D01*
X152441759Y-85823521D01*
X152378527Y-85746473D01*
X152359220Y-85730628D01*
X150108376Y-83479785D01*
X150092527Y-83460473D01*
X150015479Y-83397241D01*
X149927575Y-83350255D01*
X149832193Y-83321322D01*
X149757854Y-83314000D01*
X149757846Y-83314000D01*
X149733000Y-83311553D01*
X149708154Y-83314000D01*
X137044435Y-83314000D01*
X136945975Y-83194025D01*
X136934978Y-83185000D01*
X136945975Y-83175975D01*
X137056068Y-83041825D01*
X137137875Y-82888775D01*
X137188252Y-82722706D01*
X137205262Y-82550000D01*
X137188252Y-82377294D01*
X137137875Y-82211225D01*
X137056068Y-82058175D01*
X136945975Y-81924025D01*
X136934978Y-81915000D01*
X136945975Y-81905975D01*
X137056068Y-81771825D01*
X137137875Y-81618775D01*
X137188252Y-81452706D01*
X137205262Y-81280000D01*
X137188252Y-81107294D01*
X137137875Y-80941225D01*
X137056068Y-80788175D01*
X136945975Y-80654025D01*
X136934978Y-80645000D01*
X136945975Y-80635975D01*
X137056068Y-80501825D01*
X137137875Y-80348775D01*
X137188252Y-80182706D01*
X137205262Y-80010000D01*
X137188252Y-79837294D01*
X137137875Y-79671225D01*
X137056068Y-79518175D01*
X136945975Y-79384025D01*
X136934978Y-79375000D01*
X136945975Y-79365975D01*
X137056068Y-79231825D01*
X137137875Y-79078775D01*
X137188252Y-78912706D01*
X137205262Y-78740000D01*
X137188252Y-78567294D01*
X137137875Y-78401225D01*
X137056068Y-78248175D01*
X136945975Y-78114025D01*
X136934978Y-78105000D01*
X136945975Y-78095975D01*
X137056068Y-77961825D01*
X137137875Y-77808775D01*
X137188252Y-77642706D01*
X137205262Y-77470000D01*
X137188252Y-77297294D01*
X137137875Y-77131225D01*
X137056068Y-76978175D01*
X136945975Y-76844025D01*
X136934978Y-76835000D01*
X136945975Y-76825975D01*
X137056068Y-76691825D01*
X137137875Y-76538775D01*
X137188252Y-76372706D01*
X137205262Y-76200000D01*
X137188252Y-76027294D01*
X137137875Y-75861225D01*
X137056068Y-75708175D01*
X136945975Y-75574025D01*
X136811825Y-75463932D01*
X136658775Y-75382125D01*
X136492706Y-75331748D01*
X136363273Y-75319000D01*
X134776727Y-75319000D01*
X134647294Y-75331748D01*
X134481225Y-75382125D01*
X134328175Y-75463932D01*
X134194025Y-75574025D01*
X134095565Y-75694000D01*
X125692843Y-75694000D01*
X125692843Y-75350000D01*
X125685487Y-75275311D01*
X125663701Y-75203492D01*
X125628322Y-75137304D01*
X125580711Y-75079289D01*
X125522696Y-75031678D01*
X125456508Y-74996299D01*
X125384689Y-74974513D01*
X125310000Y-74967157D01*
X123610000Y-74967157D01*
X123535311Y-74974513D01*
X123463492Y-74996299D01*
X123397304Y-75031678D01*
X123339289Y-75079289D01*
X123291678Y-75137304D01*
X123256299Y-75203492D01*
X123234513Y-75275311D01*
X123227157Y-75350000D01*
X122508778Y-75350000D01*
X122684170Y-75020136D01*
X122947157Y-74697683D01*
X123267773Y-74432447D01*
X123633795Y-74234540D01*
X124031291Y-74111494D01*
X124464137Y-74066000D01*
X165080146Y-74066000D01*
X165514115Y-74108551D01*
G04 #@! TA.AperFunction,Conductor*
D19*
G36*
X165514115Y-74108551D02*
G01*
X165912462Y-74228819D01*
X166279864Y-74424170D01*
X166602317Y-74687157D01*
X166867553Y-75007773D01*
X167065460Y-75373795D01*
X167188506Y-75771291D01*
X167234000Y-76204137D01*
X167234001Y-126980136D01*
X167191449Y-127414115D01*
X167071181Y-127812464D01*
X166875831Y-128179862D01*
X166612845Y-128502315D01*
X166292226Y-128767554D01*
X165926204Y-128965461D01*
X165528708Y-129088506D01*
X165095863Y-129134000D01*
X124479854Y-129134000D01*
X124045885Y-129091449D01*
X123647536Y-128971181D01*
X123280138Y-128775831D01*
X122957685Y-128512845D01*
X122692446Y-128192226D01*
X122494539Y-127826204D01*
X122371494Y-127428708D01*
X122326000Y-126995863D01*
X122326000Y-76219854D01*
X122368551Y-75785885D01*
X122488819Y-75387538D01*
X122508778Y-75350000D01*
X123227157Y-75350000D01*
X123227157Y-77050000D01*
X123234513Y-77124689D01*
X123256299Y-77196508D01*
X123291678Y-77262696D01*
X123339289Y-77320711D01*
X123397304Y-77368322D01*
X123463492Y-77403701D01*
X123535311Y-77425487D01*
X123610000Y-77432843D01*
X125310000Y-77432843D01*
X125384689Y-77425487D01*
X125456508Y-77403701D01*
X125522696Y-77368322D01*
X125580711Y-77320711D01*
X125628322Y-77262696D01*
X125663701Y-77196508D01*
X125685487Y-77124689D01*
X125692843Y-77050000D01*
X125692843Y-76706000D01*
X134095565Y-76706000D01*
X134194025Y-76825975D01*
X134205022Y-76835000D01*
X134194025Y-76844025D01*
X134095565Y-76964000D01*
X126516845Y-76964000D01*
X126491999Y-76961553D01*
X126467153Y-76964000D01*
X126467146Y-76964000D01*
X126402694Y-76970348D01*
X126392806Y-76971322D01*
X126348648Y-76984717D01*
X126297425Y-77000255D01*
X126209521Y-77047241D01*
X126132473Y-77110473D01*
X126116628Y-77129780D01*
X125353653Y-77892756D01*
X125244717Y-77783820D01*
X125043097Y-77649102D01*
X124819069Y-77556307D01*
X124581243Y-77509000D01*
X124338757Y-77509000D01*
X124100931Y-77556307D01*
X123876903Y-77649102D01*
X123675283Y-77783820D01*
X123503820Y-77955283D01*
X123369102Y-78156903D01*
X123276307Y-78380931D01*
X123229000Y-78618757D01*
X123229000Y-78861243D01*
X123276307Y-79099069D01*
X123369102Y-79323097D01*
X123503820Y-79524717D01*
X123675283Y-79696180D01*
X123876903Y-79830898D01*
X124100931Y-79923693D01*
X124338757Y-79971000D01*
X124581243Y-79971000D01*
X124819069Y-79923693D01*
X125043097Y-79830898D01*
X125244717Y-79696180D01*
X125416180Y-79524717D01*
X125550898Y-79323097D01*
X125643693Y-79099069D01*
X125659875Y-79017716D01*
X126701592Y-77976000D01*
X134095565Y-77976000D01*
X134194025Y-78095975D01*
X134205022Y-78105000D01*
X134194025Y-78114025D01*
X134095565Y-78234000D01*
X127024845Y-78234000D01*
X126999999Y-78231553D01*
X126975153Y-78234000D01*
X126975146Y-78234000D01*
X126910694Y-78240348D01*
X126900806Y-78241322D01*
X126878607Y-78248056D01*
X126805425Y-78270255D01*
X126717521Y-78317241D01*
X126640473Y-78380473D01*
X126624630Y-78399778D01*
X124896167Y-80128242D01*
X124819069Y-80096307D01*
X124581243Y-80049000D01*
X124338757Y-80049000D01*
X124100931Y-80096307D01*
X123876903Y-80189102D01*
X123675283Y-80323820D01*
X123503820Y-80495283D01*
X123369102Y-80696903D01*
X123276307Y-80920931D01*
X123229000Y-81158757D01*
X123229000Y-81401243D01*
X123276307Y-81639069D01*
X123369102Y-81863097D01*
X123503820Y-82064717D01*
X123675283Y-82236180D01*
X123876903Y-82370898D01*
X124100931Y-82463693D01*
X124338757Y-82511000D01*
X124581243Y-82511000D01*
X124819069Y-82463693D01*
X125043097Y-82370898D01*
X125244717Y-82236180D01*
X125416180Y-82064717D01*
X125550898Y-81863097D01*
X125643693Y-81639069D01*
X125691000Y-81401243D01*
X125691000Y-81158757D01*
X125643693Y-80920931D01*
X125611758Y-80843833D01*
X127209592Y-79246000D01*
X134095565Y-79246000D01*
X134194025Y-79365975D01*
X134205022Y-79375000D01*
X134194025Y-79384025D01*
X134095565Y-79504000D01*
X128294854Y-79504000D01*
X128270000Y-79501552D01*
X128245146Y-79504000D01*
X128170807Y-79511322D01*
X128075425Y-79540255D01*
X127987521Y-79587241D01*
X127910473Y-79650473D01*
X127894628Y-79669780D01*
X124896167Y-82668242D01*
X124819069Y-82636307D01*
X124581243Y-82589000D01*
X124338757Y-82589000D01*
X124100931Y-82636307D01*
X123876903Y-82729102D01*
X123675283Y-82863820D01*
X123503820Y-83035283D01*
X123369102Y-83236903D01*
X123276307Y-83460931D01*
X123229000Y-83698757D01*
X123229000Y-83941243D01*
X123276307Y-84179069D01*
X123369102Y-84403097D01*
X123503820Y-84604717D01*
X123675283Y-84776180D01*
X123876903Y-84910898D01*
X124100931Y-85003693D01*
X124338757Y-85051000D01*
X124581243Y-85051000D01*
X124819069Y-85003693D01*
X125043097Y-84910898D01*
X125244717Y-84776180D01*
X125416180Y-84604717D01*
X125550898Y-84403097D01*
X125643693Y-84179069D01*
X125691000Y-83941243D01*
X125691000Y-83698757D01*
X125643693Y-83460931D01*
X125611758Y-83383833D01*
X128479592Y-80516000D01*
X134095565Y-80516000D01*
X134194025Y-80635975D01*
X134205022Y-80645000D01*
X134194025Y-80654025D01*
X134095565Y-80774000D01*
X129691854Y-80774000D01*
X129667000Y-80771552D01*
X129642146Y-80774000D01*
X129567807Y-80781322D01*
X129472425Y-80810255D01*
X129384521Y-80857241D01*
X129307473Y-80920473D01*
X129291630Y-80939778D01*
X124985970Y-85245439D01*
X124819069Y-85176307D01*
X124581243Y-85129000D01*
X124338757Y-85129000D01*
X124100931Y-85176307D01*
X123876903Y-85269102D01*
X123675283Y-85403820D01*
X123503820Y-85575283D01*
X123369102Y-85776903D01*
X123276307Y-86000931D01*
X123229000Y-86238757D01*
X123229000Y-86481243D01*
X123276307Y-86719069D01*
X123369102Y-86943097D01*
X123503820Y-87144717D01*
X123675283Y-87316180D01*
X123876903Y-87450898D01*
X124100931Y-87543693D01*
X124338757Y-87591000D01*
X124581243Y-87591000D01*
X124819069Y-87543693D01*
X125043097Y-87450898D01*
X125244717Y-87316180D01*
X125416180Y-87144717D01*
X125550898Y-86943097D01*
X125643693Y-86719069D01*
X125691000Y-86481243D01*
X125691000Y-86238757D01*
X125646674Y-86015917D01*
X129876592Y-81786000D01*
X134095565Y-81786000D01*
X134194025Y-81905975D01*
X134205022Y-81915000D01*
X134194025Y-81924025D01*
X134095565Y-82044000D01*
X130834845Y-82044000D01*
X130809999Y-82041553D01*
X130785153Y-82044000D01*
X130785146Y-82044000D01*
X130720694Y-82050348D01*
X130710806Y-82051322D01*
X130666648Y-82064717D01*
X130615425Y-82080255D01*
X130527521Y-82127241D01*
X130450473Y-82190473D01*
X130434628Y-82209780D01*
X124896167Y-87748242D01*
X124819069Y-87716307D01*
X124581243Y-87669000D01*
X124338757Y-87669000D01*
X124100931Y-87716307D01*
X123876903Y-87809102D01*
X123675283Y-87943820D01*
X123503820Y-88115283D01*
X123369102Y-88316903D01*
X123276307Y-88540931D01*
X123229000Y-88778757D01*
X123229000Y-89021243D01*
X123276307Y-89259069D01*
X123369102Y-89483097D01*
X123503820Y-89684717D01*
X123675283Y-89856180D01*
X123876903Y-89990898D01*
X124100931Y-90083693D01*
X124338757Y-90131000D01*
X124581243Y-90131000D01*
X124819069Y-90083693D01*
X125043097Y-89990898D01*
X125244717Y-89856180D01*
X125416180Y-89684717D01*
X125550898Y-89483097D01*
X125643693Y-89259069D01*
X125691000Y-89021243D01*
X125691000Y-88778757D01*
X125643693Y-88540931D01*
X125611758Y-88463833D01*
X131019592Y-83056000D01*
X134095565Y-83056000D01*
X134194025Y-83175975D01*
X134205022Y-83185000D01*
X134194025Y-83194025D01*
X134095565Y-83314000D01*
X132104845Y-83314000D01*
X132079999Y-83311553D01*
X132055153Y-83314000D01*
X132055146Y-83314000D01*
X131990694Y-83320348D01*
X131980806Y-83321322D01*
X131958607Y-83328056D01*
X131885425Y-83350255D01*
X131797521Y-83397241D01*
X131720473Y-83460473D01*
X131704630Y-83479778D01*
X124896167Y-90288242D01*
X124819069Y-90256307D01*
X124581243Y-90209000D01*
X124338757Y-90209000D01*
X124100931Y-90256307D01*
X123876903Y-90349102D01*
X123675283Y-90483820D01*
X123503820Y-90655283D01*
X123369102Y-90856903D01*
X123276307Y-91080931D01*
X123229000Y-91318757D01*
X123229000Y-91561243D01*
X123276307Y-91799069D01*
X123369102Y-92023097D01*
X123503820Y-92224717D01*
X123675283Y-92396180D01*
X123876903Y-92530898D01*
X124100931Y-92623693D01*
X124338757Y-92671000D01*
X124581243Y-92671000D01*
X124819069Y-92623693D01*
X125043097Y-92530898D01*
X125244717Y-92396180D01*
X125416180Y-92224717D01*
X125550898Y-92023097D01*
X125643693Y-91799069D01*
X125691000Y-91561243D01*
X125691000Y-91318757D01*
X125643693Y-91080931D01*
X125611758Y-91003833D01*
X132289592Y-84326000D01*
X134095565Y-84326000D01*
X134194025Y-84445975D01*
X134205022Y-84455000D01*
X134194025Y-84464025D01*
X134095565Y-84584000D01*
X133374854Y-84584000D01*
X133350000Y-84581552D01*
X133325146Y-84584000D01*
X133250807Y-84591322D01*
X133155425Y-84620255D01*
X133067521Y-84667241D01*
X132990473Y-84730473D01*
X132974628Y-84749780D01*
X124896167Y-92828242D01*
X124819069Y-92796307D01*
X124581243Y-92749000D01*
X124338757Y-92749000D01*
X124100931Y-92796307D01*
X123876903Y-92889102D01*
X123675283Y-93023820D01*
X123503820Y-93195283D01*
X123369102Y-93396903D01*
X123276307Y-93620931D01*
X123229000Y-93858757D01*
X123229000Y-94101243D01*
X123276307Y-94339069D01*
X123369102Y-94563097D01*
X123503820Y-94764717D01*
X123675283Y-94936180D01*
X123876903Y-95070898D01*
X124100931Y-95163693D01*
X124338757Y-95211000D01*
X124581243Y-95211000D01*
X124819069Y-95163693D01*
X125043097Y-95070898D01*
X125244717Y-94936180D01*
X125416180Y-94764717D01*
X125550898Y-94563097D01*
X125643693Y-94339069D01*
X125691000Y-94101243D01*
X125691000Y-93858757D01*
X125643693Y-93620931D01*
X125611758Y-93543833D01*
X133559592Y-85596000D01*
X134095565Y-85596000D01*
X134194025Y-85715975D01*
X134205022Y-85725000D01*
X134194025Y-85734025D01*
X134083932Y-85868175D01*
X134002125Y-86021225D01*
X133951748Y-86187294D01*
X133938052Y-86326356D01*
X124896167Y-95368242D01*
X124819069Y-95336307D01*
X124581243Y-95289000D01*
X124338757Y-95289000D01*
X124100931Y-95336307D01*
X123876903Y-95429102D01*
X123675283Y-95563820D01*
X123503820Y-95735283D01*
X123369102Y-95936903D01*
X123276307Y-96160931D01*
X123229000Y-96398757D01*
X123229000Y-96641243D01*
X123276307Y-96879069D01*
X123369102Y-97103097D01*
X123503820Y-97304717D01*
X123675283Y-97476180D01*
X123876903Y-97610898D01*
X124100931Y-97703693D01*
X124338757Y-97751000D01*
X124581243Y-97751000D01*
X124819069Y-97703693D01*
X125043097Y-97610898D01*
X125244717Y-97476180D01*
X125416180Y-97304717D01*
X125550898Y-97103097D01*
X125643693Y-96879069D01*
X125691000Y-96641243D01*
X125691000Y-96398757D01*
X125643693Y-96160931D01*
X125611758Y-96083833D01*
X133946470Y-87749121D01*
X133951748Y-87802706D01*
X133971116Y-87866552D01*
X133654775Y-88182894D01*
X133635463Y-88198743D01*
X133572231Y-88275791D01*
X133525245Y-88363696D01*
X133496312Y-88459078D01*
X133488990Y-88533417D01*
X133488990Y-88533424D01*
X133486543Y-88558270D01*
X133488990Y-88583117D01*
X133488991Y-88982267D01*
X133204759Y-89266498D01*
X133185452Y-89282343D01*
X133122220Y-89359391D01*
X133075234Y-89447296D01*
X133046301Y-89542678D01*
X133038979Y-89617017D01*
X133038979Y-89617024D01*
X133036532Y-89641870D01*
X133038979Y-89666717D01*
X133038980Y-89916354D01*
X125002887Y-97952447D01*
X124819069Y-97876307D01*
X124581243Y-97829000D01*
X124338757Y-97829000D01*
X124100931Y-97876307D01*
X123876903Y-97969102D01*
X123675283Y-98103820D01*
X123503820Y-98275283D01*
X123369102Y-98476903D01*
X123276307Y-98700931D01*
X123229000Y-98938757D01*
X123229000Y-99181243D01*
X123276307Y-99419069D01*
X123369102Y-99643097D01*
X123503820Y-99844717D01*
X123675283Y-100016180D01*
X123876903Y-100150898D01*
X124100931Y-100243693D01*
X124338757Y-100291000D01*
X124581243Y-100291000D01*
X124819069Y-100243693D01*
X125043097Y-100150898D01*
X125244717Y-100016180D01*
X125351001Y-99909896D01*
X125351001Y-99993407D01*
X124896167Y-100448242D01*
X124819069Y-100416307D01*
X124581243Y-100369000D01*
X124338757Y-100369000D01*
X124100931Y-100416307D01*
X123876903Y-100509102D01*
X123675283Y-100643820D01*
X123503820Y-100815283D01*
X123369102Y-101016903D01*
X123276307Y-101240931D01*
X123229000Y-101478757D01*
X123229000Y-101721243D01*
X123276307Y-101959069D01*
X123369102Y-102183097D01*
X123503820Y-102384717D01*
X123675283Y-102556180D01*
X123876903Y-102690898D01*
X124100931Y-102783693D01*
X124338757Y-102831000D01*
X124581243Y-102831000D01*
X124819069Y-102783693D01*
X125043097Y-102690898D01*
X125244717Y-102556180D01*
X125416180Y-102384717D01*
X125550898Y-102183097D01*
X125643693Y-101959069D01*
X125691000Y-101721243D01*
X125691000Y-101478757D01*
X125643693Y-101240931D01*
X125611758Y-101163833D01*
X125859001Y-100916591D01*
X125859001Y-102025407D01*
X124896167Y-102988242D01*
X124819069Y-102956307D01*
X124581243Y-102909000D01*
X124338757Y-102909000D01*
X124100931Y-102956307D01*
X123876903Y-103049102D01*
X123675283Y-103183820D01*
X123503820Y-103355283D01*
X123369102Y-103556903D01*
X123276307Y-103780931D01*
X123229000Y-104018757D01*
X123229000Y-104261243D01*
X123276307Y-104499069D01*
X123369102Y-104723097D01*
X123503820Y-104924717D01*
X123675283Y-105096180D01*
X123876903Y-105230898D01*
X124100931Y-105323693D01*
X124338757Y-105371000D01*
X124581243Y-105371000D01*
X124819069Y-105323693D01*
X125043097Y-105230898D01*
X125244717Y-105096180D01*
X125416180Y-104924717D01*
X125550898Y-104723097D01*
X125643693Y-104499069D01*
X125691000Y-104261243D01*
X125691000Y-104018757D01*
X125643693Y-103780931D01*
X125611758Y-103703833D01*
X126355979Y-102959613D01*
X126355979Y-104068429D01*
X124896167Y-105528242D01*
X124819069Y-105496307D01*
X124581243Y-105449000D01*
X124338757Y-105449000D01*
X124100931Y-105496307D01*
X123876903Y-105589102D01*
X123675283Y-105723820D01*
X123503820Y-105895283D01*
X123369102Y-106096903D01*
X123276307Y-106320931D01*
X123229000Y-106558757D01*
X123229000Y-106801243D01*
X123276307Y-107039069D01*
X123369102Y-107263097D01*
X123503820Y-107464717D01*
X123675283Y-107636180D01*
X123876903Y-107770898D01*
X124100931Y-107863693D01*
X124338757Y-107911000D01*
X124581243Y-107911000D01*
X124819069Y-107863693D01*
X125043097Y-107770898D01*
X125244717Y-107636180D01*
X125416180Y-107464717D01*
X125550898Y-107263097D01*
X125643693Y-107039069D01*
X125691000Y-106801243D01*
X125691000Y-106558757D01*
X125643693Y-106320931D01*
X125611758Y-106243833D01*
X126805990Y-105049602D01*
X126805990Y-106158418D01*
X124896167Y-108068242D01*
X124819069Y-108036307D01*
X124581243Y-107989000D01*
X124338757Y-107989000D01*
X124100931Y-108036307D01*
X123876903Y-108129102D01*
X123675283Y-108263820D01*
X123503820Y-108435283D01*
X123369102Y-108636903D01*
X123276307Y-108860931D01*
X123229000Y-109098757D01*
X123229000Y-109341243D01*
X123276307Y-109579069D01*
X123369102Y-109803097D01*
X123503820Y-110004717D01*
X123675283Y-110176180D01*
X123876903Y-110310898D01*
X124100931Y-110403693D01*
X124338757Y-110451000D01*
X124581243Y-110451000D01*
X124819069Y-110403693D01*
X125043097Y-110310898D01*
X125244717Y-110176180D01*
X125416180Y-110004717D01*
X125550898Y-109803097D01*
X125643693Y-109579069D01*
X125691000Y-109341243D01*
X125691000Y-109098757D01*
X125643693Y-108860931D01*
X125611758Y-108783833D01*
X127652209Y-106743383D01*
X127671516Y-106727538D01*
X127734748Y-106650490D01*
X127781734Y-106562586D01*
X127810667Y-106467204D01*
X127817989Y-106392865D01*
X127820437Y-106368011D01*
X127817989Y-106343157D01*
X127817989Y-99465602D01*
X134067592Y-93216000D01*
X134095565Y-93216000D01*
X134194025Y-93335975D01*
X134205022Y-93345000D01*
X134194025Y-93354025D01*
X134083932Y-93488175D01*
X134002125Y-93641225D01*
X133951748Y-93807294D01*
X133934738Y-93980000D01*
X133951748Y-94152706D01*
X134002125Y-94318775D01*
X134083932Y-94471825D01*
X134194025Y-94605975D01*
X134300803Y-94693605D01*
X128056785Y-100937624D01*
X128037473Y-100953473D01*
X127974241Y-101030521D01*
X127927255Y-101118426D01*
X127898322Y-101213808D01*
X127891000Y-101288147D01*
X127891000Y-101288154D01*
X127888553Y-101313000D01*
X127891000Y-101337846D01*
X127891001Y-107613407D01*
X124896167Y-110608242D01*
X124819069Y-110576307D01*
X124581243Y-110529000D01*
X124338757Y-110529000D01*
X124100931Y-110576307D01*
X123876903Y-110669102D01*
X123675283Y-110803820D01*
X123503820Y-110975283D01*
X123369102Y-111176903D01*
X123276307Y-111400931D01*
X123229000Y-111638757D01*
X123229000Y-111881243D01*
X123276307Y-112119069D01*
X123369102Y-112343097D01*
X123503820Y-112544717D01*
X123675283Y-112716180D01*
X123876903Y-112850898D01*
X124100931Y-112943693D01*
X124338757Y-112991000D01*
X124581243Y-112991000D01*
X124819069Y-112943693D01*
X125043097Y-112850898D01*
X125244717Y-112716180D01*
X125416180Y-112544717D01*
X125550898Y-112343097D01*
X125643693Y-112119069D01*
X125691000Y-111881243D01*
X125691000Y-111638757D01*
X125643693Y-111400931D01*
X125611758Y-111323833D01*
X128737220Y-108198372D01*
X128756527Y-108182527D01*
X128819759Y-108105479D01*
X128866745Y-108017575D01*
X128895678Y-107922193D01*
X128903000Y-107847854D01*
X128905448Y-107823000D01*
X128903000Y-107798146D01*
X128903000Y-101522591D01*
X135564592Y-94861000D01*
X136363273Y-94861000D01*
X136492706Y-94848252D01*
X136658775Y-94797875D01*
X136811825Y-94716068D01*
X136945975Y-94605975D01*
X137056068Y-94471825D01*
X137137875Y-94318775D01*
X137188252Y-94152706D01*
X137205262Y-93980000D01*
X137188252Y-93807294D01*
X137137875Y-93641225D01*
X137056068Y-93488175D01*
X136945975Y-93354025D01*
X136934978Y-93345000D01*
X136945975Y-93335975D01*
X137044435Y-93216000D01*
X137045154Y-93216000D01*
X137070000Y-93218447D01*
X137094846Y-93216000D01*
X137094854Y-93216000D01*
X137169193Y-93208678D01*
X137264575Y-93179745D01*
X137352479Y-93132759D01*
X137360717Y-93125998D01*
X146186261Y-93125998D01*
X146158000Y-93268078D01*
X146158000Y-93421922D01*
X146188013Y-93572809D01*
X146246887Y-93714942D01*
X146332358Y-93842859D01*
X146441141Y-93951642D01*
X146569058Y-94037113D01*
X146711191Y-94095987D01*
X146819079Y-94117447D01*
X147829001Y-95127370D01*
X147829001Y-95340147D01*
X147825000Y-95345022D01*
X147815975Y-95334025D01*
X147681824Y-95223932D01*
X147528774Y-95142125D01*
X147362705Y-95091748D01*
X147190000Y-95074738D01*
X147017294Y-95091748D01*
X146851225Y-95142125D01*
X146698175Y-95223932D01*
X146564025Y-95334025D01*
X146555000Y-95345022D01*
X146545975Y-95334025D01*
X146411824Y-95223932D01*
X146258774Y-95142125D01*
X146092705Y-95091748D01*
X145920000Y-95074738D01*
X145747294Y-95091748D01*
X145581225Y-95142125D01*
X145428175Y-95223932D01*
X145294025Y-95334025D01*
X145285000Y-95345022D01*
X145275975Y-95334025D01*
X145141824Y-95223932D01*
X144988774Y-95142125D01*
X144822705Y-95091748D01*
X144650000Y-95074738D01*
X144477294Y-95091748D01*
X144311225Y-95142125D01*
X144158175Y-95223932D01*
X144024025Y-95334025D01*
X144015000Y-95345022D01*
X144005975Y-95334025D01*
X143871824Y-95223932D01*
X143718774Y-95142125D01*
X143552705Y-95091748D01*
X143380000Y-95074738D01*
X143207294Y-95091748D01*
X143041225Y-95142125D01*
X142888175Y-95223932D01*
X142754025Y-95334025D01*
X142745000Y-95345022D01*
X142735975Y-95334025D01*
X142601824Y-95223932D01*
X142448774Y-95142125D01*
X142282705Y-95091748D01*
X142110000Y-95074738D01*
X141937294Y-95091748D01*
X141771225Y-95142125D01*
X141618175Y-95223932D01*
X141484025Y-95334025D01*
X141475000Y-95345022D01*
X141465975Y-95334025D01*
X141331824Y-95223932D01*
X141178774Y-95142125D01*
X141012705Y-95091748D01*
X140840000Y-95074738D01*
X140667294Y-95091748D01*
X140501225Y-95142125D01*
X140348175Y-95223932D01*
X140214025Y-95334025D01*
X140205000Y-95345022D01*
X140195975Y-95334025D01*
X140061824Y-95223932D01*
X139908774Y-95142125D01*
X139742705Y-95091748D01*
X139570000Y-95074738D01*
X139397294Y-95091748D01*
X139231225Y-95142125D01*
X139078175Y-95223932D01*
X138944025Y-95334025D01*
X138935000Y-95345022D01*
X138925975Y-95334025D01*
X138791824Y-95223932D01*
X138638774Y-95142125D01*
X138472705Y-95091748D01*
X138300000Y-95074738D01*
X138127294Y-95091748D01*
X137961225Y-95142125D01*
X137808175Y-95223932D01*
X137674025Y-95334025D01*
X137563932Y-95468176D01*
X137482125Y-95621226D01*
X137431748Y-95787295D01*
X137419000Y-95916728D01*
X137419001Y-96875408D01*
X135744784Y-98549625D01*
X135725472Y-98565474D01*
X135662240Y-98642522D01*
X135615254Y-98730427D01*
X135586321Y-98825809D01*
X135578999Y-98900148D01*
X135578999Y-98900155D01*
X135576552Y-98925001D01*
X135578999Y-98949847D01*
X135579000Y-102465408D01*
X124896167Y-113148242D01*
X124819069Y-113116307D01*
X124581243Y-113069000D01*
X124338757Y-113069000D01*
X124100931Y-113116307D01*
X123876903Y-113209102D01*
X123675283Y-113343820D01*
X123503820Y-113515283D01*
X123369102Y-113716903D01*
X123276307Y-113940931D01*
X123229000Y-114178757D01*
X123229000Y-114421243D01*
X123276307Y-114659069D01*
X123369102Y-114883097D01*
X123503820Y-115084717D01*
X123675283Y-115256180D01*
X123876903Y-115390898D01*
X124100931Y-115483693D01*
X124338757Y-115531000D01*
X124581243Y-115531000D01*
X124819069Y-115483693D01*
X125043097Y-115390898D01*
X125244717Y-115256180D01*
X125416180Y-115084717D01*
X125550898Y-114883097D01*
X125643693Y-114659069D01*
X125691000Y-114421243D01*
X125691000Y-114178757D01*
X125643693Y-113940931D01*
X125611758Y-113863833D01*
X136425219Y-103050373D01*
X136444526Y-103034528D01*
X136507758Y-102957480D01*
X136554744Y-102869576D01*
X136577949Y-102793078D01*
X136583677Y-102774195D01*
X136587304Y-102737370D01*
X136590999Y-102699855D01*
X136590999Y-102699848D01*
X136593446Y-102675002D01*
X136590999Y-102650156D01*
X136590999Y-102214556D01*
X136594887Y-102223942D01*
X136680358Y-102351859D01*
X136789141Y-102460642D01*
X136917058Y-102546113D01*
X137059191Y-102604987D01*
X137210078Y-102635000D01*
X137363922Y-102635000D01*
X137514809Y-102604987D01*
X137656942Y-102546113D01*
X137784859Y-102460642D01*
X137893642Y-102351859D01*
X137979113Y-102223942D01*
X138037987Y-102081809D01*
X138068000Y-101930922D01*
X138068000Y-101777078D01*
X138037987Y-101626191D01*
X137979113Y-101484058D01*
X137904802Y-101372843D01*
X137910000Y-101372843D01*
X137984689Y-101365487D01*
X138056508Y-101343701D01*
X138122696Y-101308322D01*
X138180711Y-101260711D01*
X138228322Y-101202696D01*
X138263701Y-101136508D01*
X138285487Y-101064689D01*
X138292843Y-100990000D01*
X138292843Y-99490000D01*
X138285487Y-99415311D01*
X138263701Y-99343492D01*
X138228322Y-99277304D01*
X138180711Y-99219289D01*
X138122696Y-99171678D01*
X138056508Y-99136299D01*
X137984689Y-99114513D01*
X137910000Y-99107157D01*
X136618434Y-99107157D01*
X137658516Y-98067076D01*
X137674026Y-98085975D01*
X137808176Y-98196068D01*
X137961226Y-98277875D01*
X138127295Y-98328252D01*
X138300000Y-98345262D01*
X138472706Y-98328252D01*
X138638775Y-98277875D01*
X138791825Y-98196068D01*
X138925975Y-98085975D01*
X138928978Y-98082315D01*
X138928979Y-101655429D01*
X124969783Y-115614626D01*
X124969777Y-115614631D01*
X124896166Y-115688242D01*
X124819069Y-115656307D01*
X124581243Y-115609000D01*
X124338757Y-115609000D01*
X124100931Y-115656307D01*
X123876903Y-115749102D01*
X123675283Y-115883820D01*
X123503820Y-116055283D01*
X123369102Y-116256903D01*
X123276307Y-116480931D01*
X123229000Y-116718757D01*
X123229000Y-116961243D01*
X123276307Y-117199069D01*
X123369102Y-117423097D01*
X123503820Y-117624717D01*
X123675283Y-117796180D01*
X123876903Y-117930898D01*
X124100931Y-118023693D01*
X124338757Y-118071000D01*
X124581243Y-118071000D01*
X124819069Y-118023693D01*
X125043097Y-117930898D01*
X125244717Y-117796180D01*
X125416180Y-117624717D01*
X125550898Y-117423097D01*
X125643693Y-117199069D01*
X125691000Y-116961243D01*
X125691000Y-116718757D01*
X125643693Y-116480931D01*
X125611758Y-116403834D01*
X125685369Y-116330223D01*
X125685374Y-116330217D01*
X133225591Y-108790000D01*
X136027157Y-108790000D01*
X136034513Y-108864689D01*
X136056299Y-108936508D01*
X136091678Y-109002696D01*
X136139289Y-109060711D01*
X136197304Y-109108322D01*
X136263492Y-109143701D01*
X136335311Y-109165487D01*
X136410000Y-109172843D01*
X136937750Y-109171000D01*
X137033000Y-109075750D01*
X137033000Y-108167000D01*
X136124250Y-108167000D01*
X136029000Y-108262250D01*
X136027157Y-108790000D01*
X133225591Y-108790000D01*
X134725591Y-107290000D01*
X136027157Y-107290000D01*
X136029000Y-107817750D01*
X136124250Y-107913000D01*
X137033000Y-107913000D01*
X137033000Y-107004250D01*
X136937750Y-106909000D01*
X136410000Y-106907157D01*
X136335311Y-106914513D01*
X136263492Y-106936299D01*
X136197304Y-106971678D01*
X136139289Y-107019289D01*
X136091678Y-107077304D01*
X136056299Y-107143492D01*
X136034513Y-107215311D01*
X136027157Y-107290000D01*
X134725591Y-107290000D01*
X139775198Y-102240394D01*
X139794505Y-102224549D01*
X139857737Y-102147501D01*
X139904723Y-102059597D01*
X139933656Y-101964215D01*
X139940978Y-101889876D01*
X139943426Y-101865022D01*
X139940978Y-101840168D01*
X139940978Y-98260662D01*
X140061825Y-98196068D01*
X140195975Y-98085975D01*
X140205001Y-98074977D01*
X140214026Y-98085975D01*
X140252721Y-98117731D01*
X140235233Y-98150448D01*
X140206300Y-98245830D01*
X140198978Y-98320169D01*
X140198978Y-98320176D01*
X140196531Y-98345022D01*
X140198978Y-98369868D01*
X140198979Y-106007605D01*
X138291000Y-107915585D01*
X138291000Y-107912998D01*
X138195752Y-107912998D01*
X138291000Y-107817750D01*
X138292843Y-107290000D01*
X138285487Y-107215311D01*
X138263701Y-107143492D01*
X138228322Y-107077304D01*
X138180711Y-107019289D01*
X138122696Y-106971678D01*
X138056508Y-106936299D01*
X137984689Y-106914513D01*
X137910000Y-106907157D01*
X137382250Y-106909000D01*
X137287000Y-107004250D01*
X137287000Y-107913000D01*
X137307000Y-107913000D01*
X137307000Y-108167000D01*
X137287000Y-108167000D01*
X137287000Y-109075750D01*
X137380919Y-109169669D01*
X127676589Y-118874000D01*
X125582832Y-118874000D01*
X125550898Y-118796903D01*
X125416180Y-118595283D01*
X125244717Y-118423820D01*
X125043097Y-118289102D01*
X124819069Y-118196307D01*
X124581243Y-118149000D01*
X124338757Y-118149000D01*
X124100931Y-118196307D01*
X123876903Y-118289102D01*
X123675283Y-118423820D01*
X123503820Y-118595283D01*
X123369102Y-118796903D01*
X123276307Y-119020931D01*
X123229000Y-119258757D01*
X123229000Y-119501243D01*
X123276307Y-119739069D01*
X123369102Y-119963097D01*
X123503820Y-120164717D01*
X123675283Y-120336180D01*
X123876903Y-120470898D01*
X124100931Y-120563693D01*
X124338757Y-120611000D01*
X124581243Y-120611000D01*
X124819069Y-120563693D01*
X125043097Y-120470898D01*
X125244717Y-120336180D01*
X125416180Y-120164717D01*
X125550898Y-119963097D01*
X125582832Y-119886000D01*
X127300999Y-119886000D01*
X125772999Y-121414000D01*
X125582832Y-121414000D01*
X125550898Y-121336903D01*
X125416180Y-121135283D01*
X125244717Y-120963820D01*
X125043097Y-120829102D01*
X124819069Y-120736307D01*
X124581243Y-120689000D01*
X124338757Y-120689000D01*
X124100931Y-120736307D01*
X123876903Y-120829102D01*
X123675283Y-120963820D01*
X123503820Y-121135283D01*
X123369102Y-121336903D01*
X123276307Y-121560931D01*
X123229000Y-121798757D01*
X123229000Y-122041243D01*
X123276307Y-122279069D01*
X123369102Y-122503097D01*
X123503820Y-122704717D01*
X123675283Y-122876180D01*
X123876903Y-123010898D01*
X124100931Y-123103693D01*
X124338757Y-123151000D01*
X124581243Y-123151000D01*
X124819069Y-123103693D01*
X125043097Y-123010898D01*
X125244717Y-122876180D01*
X125416180Y-122704717D01*
X125550898Y-122503097D01*
X125582832Y-122426000D01*
X125778409Y-122426000D01*
X124896167Y-123308242D01*
X124819069Y-123276307D01*
X124581243Y-123229000D01*
X124338757Y-123229000D01*
X124100931Y-123276307D01*
X123876903Y-123369102D01*
X123675283Y-123503820D01*
X123503820Y-123675283D01*
X123369102Y-123876903D01*
X123276307Y-124100931D01*
X123229000Y-124338757D01*
X123229000Y-124581243D01*
X123276307Y-124819069D01*
X123369102Y-125043097D01*
X123503820Y-125244717D01*
X123675283Y-125416180D01*
X123876903Y-125550898D01*
X124100931Y-125643693D01*
X124338757Y-125691000D01*
X124581243Y-125691000D01*
X124819069Y-125643693D01*
X125043097Y-125550898D01*
X125244717Y-125416180D01*
X125416180Y-125244717D01*
X125550898Y-125043097D01*
X125643693Y-124819069D01*
X125691000Y-124581243D01*
X125691000Y-124338757D01*
X125643693Y-124100931D01*
X125611758Y-124023833D01*
X139389598Y-110245994D01*
X139388887Y-110247058D01*
X139330013Y-110389191D01*
X139300000Y-110540078D01*
X139300000Y-110682408D01*
X135794781Y-114187628D01*
X135775474Y-114203473D01*
X135712242Y-114280521D01*
X135701831Y-114299999D01*
X135665255Y-114368426D01*
X135636322Y-114463808D01*
X135631171Y-114516112D01*
X135567821Y-114535329D01*
X135458411Y-114593810D01*
X135362512Y-114672512D01*
X135283810Y-114768411D01*
X135225329Y-114877821D01*
X135189317Y-114996538D01*
X135177157Y-115119999D01*
X135177157Y-116020001D01*
X135189317Y-116143462D01*
X135225329Y-116262179D01*
X135283810Y-116371589D01*
X135362512Y-116467488D01*
X135458411Y-116546190D01*
X135567821Y-116604671D01*
X135686538Y-116640683D01*
X135809999Y-116652843D01*
X135924755Y-116652843D01*
X126083599Y-126494000D01*
X125582832Y-126494000D01*
X125550898Y-126416903D01*
X125416180Y-126215283D01*
X125244717Y-126043820D01*
X125043097Y-125909102D01*
X124819069Y-125816307D01*
X124581243Y-125769000D01*
X124338757Y-125769000D01*
X124100931Y-125816307D01*
X123876903Y-125909102D01*
X123675283Y-126043820D01*
X123503820Y-126215283D01*
X123369102Y-126416903D01*
X123276307Y-126640931D01*
X123229000Y-126878757D01*
X123229000Y-127121243D01*
X123276307Y-127359069D01*
X123369102Y-127583097D01*
X123503820Y-127784717D01*
X123675283Y-127956180D01*
X123876903Y-128090898D01*
X124100931Y-128183693D01*
X124338757Y-128231000D01*
X124581243Y-128231000D01*
X124819069Y-128183693D01*
X125043097Y-128090898D01*
X125244717Y-127956180D01*
X125416180Y-127784717D01*
X125550898Y-127583097D01*
X125582832Y-127506000D01*
X126268344Y-127506000D01*
X126293190Y-127508447D01*
X126318036Y-127506000D01*
X126318044Y-127506000D01*
X126392383Y-127498678D01*
X126487765Y-127469745D01*
X126575669Y-127422759D01*
X126652717Y-127359527D01*
X126668566Y-127340215D01*
X129670024Y-124338757D01*
X137199000Y-124338757D01*
X137199000Y-124581243D01*
X137246307Y-124819069D01*
X137339102Y-125043097D01*
X137473820Y-125244717D01*
X137645283Y-125416180D01*
X137846903Y-125550898D01*
X138070931Y-125643693D01*
X138308757Y-125691000D01*
X138551243Y-125691000D01*
X138789069Y-125643693D01*
X139013097Y-125550898D01*
X139214717Y-125416180D01*
X139386180Y-125244717D01*
X139520898Y-125043097D01*
X139613693Y-124819069D01*
X139661000Y-124581243D01*
X139661000Y-124338757D01*
X139739000Y-124338757D01*
X139739000Y-124581243D01*
X139786307Y-124819069D01*
X139879102Y-125043097D01*
X140013820Y-125244717D01*
X140185283Y-125416180D01*
X140386903Y-125550898D01*
X140610931Y-125643693D01*
X140848757Y-125691000D01*
X141091243Y-125691000D01*
X141329069Y-125643693D01*
X141553097Y-125550898D01*
X141754717Y-125416180D01*
X141926180Y-125244717D01*
X142060898Y-125043097D01*
X142153693Y-124819069D01*
X142201000Y-124581243D01*
X142201000Y-124338757D01*
X142279000Y-124338757D01*
X142279000Y-124581243D01*
X142326307Y-124819069D01*
X142419102Y-125043097D01*
X142553820Y-125244717D01*
X142725283Y-125416180D01*
X142926903Y-125550898D01*
X143150931Y-125643693D01*
X143388757Y-125691000D01*
X143631243Y-125691000D01*
X143869069Y-125643693D01*
X144093097Y-125550898D01*
X144294717Y-125416180D01*
X144466180Y-125244717D01*
X144600898Y-125043097D01*
X144693693Y-124819069D01*
X144741000Y-124581243D01*
X144741000Y-124338757D01*
X144819000Y-124338757D01*
X144819000Y-124581243D01*
X144866307Y-124819069D01*
X144959102Y-125043097D01*
X145093820Y-125244717D01*
X145265283Y-125416180D01*
X145466903Y-125550898D01*
X145690931Y-125643693D01*
X145928757Y-125691000D01*
X146171243Y-125691000D01*
X146409069Y-125643693D01*
X146633097Y-125550898D01*
X146834717Y-125416180D01*
X147006180Y-125244717D01*
X147140898Y-125043097D01*
X147233693Y-124819069D01*
X147281000Y-124581243D01*
X147281000Y-124338757D01*
X147359000Y-124338757D01*
X147359000Y-124581243D01*
X147406307Y-124819069D01*
X147499102Y-125043097D01*
X147633820Y-125244717D01*
X147805283Y-125416180D01*
X148006903Y-125550898D01*
X148230931Y-125643693D01*
X148468757Y-125691000D01*
X148711243Y-125691000D01*
X148949069Y-125643693D01*
X149173097Y-125550898D01*
X149374717Y-125416180D01*
X149480897Y-125310000D01*
X149897157Y-125310000D01*
X149904513Y-125384689D01*
X149926299Y-125456508D01*
X149961678Y-125522696D01*
X150009289Y-125580711D01*
X150067304Y-125628322D01*
X150133492Y-125663701D01*
X150205311Y-125685487D01*
X150280000Y-125692843D01*
X150907750Y-125691000D01*
X151003000Y-125595750D01*
X151003000Y-124587000D01*
X151257000Y-124587000D01*
X151257000Y-125595750D01*
X151352250Y-125691000D01*
X151980000Y-125692843D01*
X152054689Y-125685487D01*
X152126508Y-125663701D01*
X152192696Y-125628322D01*
X152250711Y-125580711D01*
X152298322Y-125522696D01*
X152333701Y-125456508D01*
X152355487Y-125384689D01*
X152362843Y-125310000D01*
X152361000Y-124682250D01*
X152265750Y-124587000D01*
X151257000Y-124587000D01*
X151003000Y-124587000D01*
X149994250Y-124587000D01*
X149899000Y-124682250D01*
X149897157Y-125310000D01*
X149480897Y-125310000D01*
X149546180Y-125244717D01*
X149680898Y-125043097D01*
X149773693Y-124819069D01*
X149821000Y-124581243D01*
X149821000Y-124338757D01*
X149773693Y-124100931D01*
X149680898Y-123876903D01*
X149546180Y-123675283D01*
X149480897Y-123610000D01*
X149897157Y-123610000D01*
X149899000Y-124237750D01*
X149994250Y-124333000D01*
X151003000Y-124333000D01*
X151003000Y-123324250D01*
X151257000Y-123324250D01*
X151257000Y-124333000D01*
X152265750Y-124333000D01*
X152361000Y-124237750D01*
X152362843Y-123610000D01*
X152355487Y-123535311D01*
X152333701Y-123463492D01*
X152298322Y-123397304D01*
X152250711Y-123339289D01*
X152192696Y-123291678D01*
X152126508Y-123256299D01*
X152054689Y-123234513D01*
X151980000Y-123227157D01*
X151352250Y-123229000D01*
X151257000Y-123324250D01*
X151003000Y-123324250D01*
X150907750Y-123229000D01*
X150280000Y-123227157D01*
X150205311Y-123234513D01*
X150133492Y-123256299D01*
X150067304Y-123291678D01*
X150009289Y-123339289D01*
X149961678Y-123397304D01*
X149926299Y-123463492D01*
X149904513Y-123535311D01*
X149897157Y-123610000D01*
X149480897Y-123610000D01*
X149374717Y-123503820D01*
X149173097Y-123369102D01*
X148949069Y-123276307D01*
X148711243Y-123229000D01*
X148468757Y-123229000D01*
X148230931Y-123276307D01*
X148006903Y-123369102D01*
X147805283Y-123503820D01*
X147633820Y-123675283D01*
X147499102Y-123876903D01*
X147406307Y-124100931D01*
X147359000Y-124338757D01*
X147281000Y-124338757D01*
X147233693Y-124100931D01*
X147140898Y-123876903D01*
X147006180Y-123675283D01*
X146834717Y-123503820D01*
X146633097Y-123369102D01*
X146409069Y-123276307D01*
X146171243Y-123229000D01*
X145928757Y-123229000D01*
X145690931Y-123276307D01*
X145466903Y-123369102D01*
X145265283Y-123503820D01*
X145093820Y-123675283D01*
X144959102Y-123876903D01*
X144866307Y-124100931D01*
X144819000Y-124338757D01*
X144741000Y-124338757D01*
X144693693Y-124100931D01*
X144600898Y-123876903D01*
X144466180Y-123675283D01*
X144294717Y-123503820D01*
X144093097Y-123369102D01*
X143869069Y-123276307D01*
X143631243Y-123229000D01*
X143388757Y-123229000D01*
X143150931Y-123276307D01*
X142926903Y-123369102D01*
X142725283Y-123503820D01*
X142553820Y-123675283D01*
X142419102Y-123876903D01*
X142326307Y-124100931D01*
X142279000Y-124338757D01*
X142201000Y-124338757D01*
X142153693Y-124100931D01*
X142060898Y-123876903D01*
X141926180Y-123675283D01*
X141754717Y-123503820D01*
X141553097Y-123369102D01*
X141329069Y-123276307D01*
X141091243Y-123229000D01*
X140848757Y-123229000D01*
X140610931Y-123276307D01*
X140386903Y-123369102D01*
X140185283Y-123503820D01*
X140013820Y-123675283D01*
X139879102Y-123876903D01*
X139786307Y-124100931D01*
X139739000Y-124338757D01*
X139661000Y-124338757D01*
X139613693Y-124100931D01*
X139520898Y-123876903D01*
X139386180Y-123675283D01*
X139214717Y-123503820D01*
X139013097Y-123369102D01*
X138789069Y-123276307D01*
X138551243Y-123229000D01*
X138308757Y-123229000D01*
X138070931Y-123276307D01*
X137846903Y-123369102D01*
X137645283Y-123503820D01*
X137473820Y-123675283D01*
X137339102Y-123876903D01*
X137246307Y-124100931D01*
X137199000Y-124338757D01*
X129670024Y-124338757D01*
X137375230Y-116633552D01*
X137394537Y-116617707D01*
X137457769Y-116540659D01*
X137471155Y-116515615D01*
X137508411Y-116546190D01*
X137617821Y-116604671D01*
X137736538Y-116640683D01*
X137859999Y-116652843D01*
X138510001Y-116652843D01*
X138633462Y-116640683D01*
X138752179Y-116604671D01*
X138861589Y-116546190D01*
X138957488Y-116467488D01*
X139036190Y-116371589D01*
X139094671Y-116262179D01*
X139130683Y-116143462D01*
X139134115Y-116108616D01*
X139202141Y-116176642D01*
X139330058Y-116262113D01*
X139472191Y-116320987D01*
X139623078Y-116351000D01*
X139776922Y-116351000D01*
X139927809Y-116320987D01*
X140069942Y-116262113D01*
X140197859Y-116176642D01*
X140265885Y-116108616D01*
X140269317Y-116143462D01*
X140305329Y-116262179D01*
X140363810Y-116371589D01*
X140442512Y-116467488D01*
X140538411Y-116546190D01*
X140647821Y-116604671D01*
X140766538Y-116640683D01*
X140889999Y-116652843D01*
X141540001Y-116652843D01*
X141578464Y-116649055D01*
X144141628Y-119212220D01*
X144157473Y-119231527D01*
X144234521Y-119294759D01*
X144322425Y-119341745D01*
X144417806Y-119370678D01*
X144427694Y-119371652D01*
X144492146Y-119378000D01*
X144492153Y-119378000D01*
X144516999Y-119380447D01*
X144541845Y-119378000D01*
X150531499Y-119378000D01*
X150632141Y-119478642D01*
X150760058Y-119564113D01*
X150902191Y-119622987D01*
X151053078Y-119653000D01*
X151206922Y-119653000D01*
X151357809Y-119622987D01*
X151499942Y-119564113D01*
X151627859Y-119478642D01*
X151736642Y-119369859D01*
X151822113Y-119241942D01*
X151880987Y-119099809D01*
X151911000Y-118948922D01*
X151911000Y-118795078D01*
X151880987Y-118644191D01*
X151822113Y-118502058D01*
X151736642Y-118374141D01*
X151627859Y-118265358D01*
X151499942Y-118179887D01*
X151357809Y-118121013D01*
X151206922Y-118091000D01*
X151053078Y-118091000D01*
X150902191Y-118121013D01*
X150760058Y-118179887D01*
X150632141Y-118265358D01*
X150531499Y-118366000D01*
X144726592Y-118366000D01*
X143013434Y-116652843D01*
X143590001Y-116652843D01*
X143713462Y-116640683D01*
X143832179Y-116604671D01*
X143941589Y-116546190D01*
X144037488Y-116467488D01*
X144116190Y-116371589D01*
X144171326Y-116268437D01*
X144298191Y-116320987D01*
X144449078Y-116351000D01*
X144602922Y-116351000D01*
X144753809Y-116320987D01*
X144895942Y-116262113D01*
X145023859Y-116176642D01*
X145132642Y-116067859D01*
X145218113Y-115939942D01*
X145276987Y-115797809D01*
X145307000Y-115646922D01*
X145307000Y-115493078D01*
X145276987Y-115342191D01*
X145218113Y-115200058D01*
X145132642Y-115072141D01*
X145023859Y-114963358D01*
X144895942Y-114877887D01*
X144753809Y-114819013D01*
X144602922Y-114789000D01*
X144449078Y-114789000D01*
X144298191Y-114819013D01*
X144171326Y-114871563D01*
X144116190Y-114768411D01*
X144037488Y-114672512D01*
X143941589Y-114593810D01*
X143832179Y-114535329D01*
X143713462Y-114499317D01*
X143590001Y-114487157D01*
X142939999Y-114487157D01*
X142816538Y-114499317D01*
X142697821Y-114535329D01*
X142588411Y-114593810D01*
X142492512Y-114672512D01*
X142413810Y-114768411D01*
X142355329Y-114877821D01*
X142319317Y-114996538D01*
X142307157Y-115119999D01*
X142307157Y-115946566D01*
X142172843Y-115812252D01*
X142172843Y-115119999D01*
X142160683Y-114996538D01*
X142124671Y-114877821D01*
X142066190Y-114768411D01*
X141987488Y-114672512D01*
X141891589Y-114593810D01*
X141782179Y-114535329D01*
X141663462Y-114499317D01*
X141540001Y-114487157D01*
X140889999Y-114487157D01*
X140766538Y-114499317D01*
X140647821Y-114535329D01*
X140538411Y-114593810D01*
X140442512Y-114672512D01*
X140363810Y-114768411D01*
X140305329Y-114877821D01*
X140269317Y-114996538D01*
X140265885Y-115031384D01*
X140197859Y-114963358D01*
X140069942Y-114877887D01*
X139927809Y-114819013D01*
X139776922Y-114789000D01*
X139623078Y-114789000D01*
X139472191Y-114819013D01*
X139330058Y-114877887D01*
X139202141Y-114963358D01*
X139134115Y-115031384D01*
X139130683Y-114996538D01*
X139094671Y-114877821D01*
X139036190Y-114768411D01*
X138957488Y-114672512D01*
X138861589Y-114593810D01*
X138752179Y-114535329D01*
X138633462Y-114499317D01*
X138585955Y-114494638D01*
X144776218Y-108304376D01*
X144795525Y-108288531D01*
X144858757Y-108211483D01*
X144905743Y-108123579D01*
X144934676Y-108028197D01*
X144941998Y-107953858D01*
X144941998Y-107953851D01*
X144944445Y-107929005D01*
X144941998Y-107904159D01*
X144941998Y-103114739D01*
X145084078Y-103143000D01*
X145237922Y-103143000D01*
X145388809Y-103112987D01*
X145530942Y-103054113D01*
X145544000Y-103045388D01*
X145544001Y-109025144D01*
X145541553Y-109050000D01*
X145551322Y-109149192D01*
X145580255Y-109244574D01*
X145585587Y-109254549D01*
X145627242Y-109332479D01*
X145690474Y-109409527D01*
X145709781Y-109425372D01*
X163624628Y-127340220D01*
X163640473Y-127359527D01*
X163717521Y-127422759D01*
X163805425Y-127469745D01*
X163867157Y-127488471D01*
X163867157Y-127850000D01*
X163874513Y-127924689D01*
X163896299Y-127996508D01*
X163931678Y-128062696D01*
X163979289Y-128120711D01*
X164037304Y-128168322D01*
X164103492Y-128203701D01*
X164175311Y-128225487D01*
X164250000Y-128232843D01*
X165950000Y-128232843D01*
X166024689Y-128225487D01*
X166096508Y-128203701D01*
X166162696Y-128168322D01*
X166220711Y-128120711D01*
X166268322Y-128062696D01*
X166303701Y-127996508D01*
X166325487Y-127924689D01*
X166332843Y-127850000D01*
X166332843Y-126150000D01*
X166325487Y-126075311D01*
X166303701Y-126003492D01*
X166268322Y-125937304D01*
X166220711Y-125879289D01*
X166162696Y-125831678D01*
X166096508Y-125796299D01*
X166024689Y-125774513D01*
X165950000Y-125767157D01*
X164250000Y-125767157D01*
X164175311Y-125774513D01*
X164103492Y-125796299D01*
X164037304Y-125831678D01*
X163979289Y-125879289D01*
X163931678Y-125937304D01*
X163896299Y-126003492D01*
X163874513Y-126075311D01*
X163867157Y-126150000D01*
X163867157Y-126151565D01*
X149562860Y-111847269D01*
X149632191Y-111875987D01*
X149783078Y-111906000D01*
X149936922Y-111906000D01*
X150087809Y-111875987D01*
X150229942Y-111817113D01*
X150357859Y-111731642D01*
X150466642Y-111622859D01*
X150552113Y-111494942D01*
X150610987Y-111352809D01*
X150641000Y-111201922D01*
X150641000Y-111059591D01*
X151720592Y-109980000D01*
X153706499Y-109980000D01*
X153807141Y-110080642D01*
X153935058Y-110166113D01*
X154077191Y-110224987D01*
X154228078Y-110255000D01*
X154381922Y-110255000D01*
X154532809Y-110224987D01*
X154674942Y-110166113D01*
X154802859Y-110080642D01*
X154911642Y-109971859D01*
X154997113Y-109843942D01*
X155055987Y-109701809D01*
X155086000Y-109550922D01*
X155086000Y-109397078D01*
X155075946Y-109346534D01*
X162968988Y-117239577D01*
X162968989Y-122810132D01*
X162966541Y-122834988D01*
X162976310Y-122934180D01*
X163005243Y-123029562D01*
X163005244Y-123029563D01*
X163052230Y-123117467D01*
X163115462Y-123194515D01*
X163134768Y-123210360D01*
X163948242Y-124023833D01*
X163916307Y-124100931D01*
X163869000Y-124338757D01*
X163869000Y-124581243D01*
X163916307Y-124819069D01*
X164009102Y-125043097D01*
X164143820Y-125244717D01*
X164315283Y-125416180D01*
X164516903Y-125550898D01*
X164740931Y-125643693D01*
X164978757Y-125691000D01*
X165221243Y-125691000D01*
X165459069Y-125643693D01*
X165683097Y-125550898D01*
X165884717Y-125416180D01*
X166056180Y-125244717D01*
X166190898Y-125043097D01*
X166283693Y-124819069D01*
X166331000Y-124581243D01*
X166331000Y-124338757D01*
X166283693Y-124100931D01*
X166190898Y-123876903D01*
X166056180Y-123675283D01*
X165884717Y-123503820D01*
X165683097Y-123369102D01*
X165459069Y-123276307D01*
X165221243Y-123229000D01*
X164978757Y-123229000D01*
X164740931Y-123276307D01*
X164663833Y-123308242D01*
X163980988Y-122625397D01*
X163980988Y-122435223D01*
X164009102Y-122503097D01*
X164143820Y-122704717D01*
X164315283Y-122876180D01*
X164516903Y-123010898D01*
X164740931Y-123103693D01*
X164978757Y-123151000D01*
X165221243Y-123151000D01*
X165459069Y-123103693D01*
X165683097Y-123010898D01*
X165884717Y-122876180D01*
X166056180Y-122704717D01*
X166190898Y-122503097D01*
X166283693Y-122279069D01*
X166331000Y-122041243D01*
X166331000Y-121798757D01*
X166283693Y-121560931D01*
X166190898Y-121336903D01*
X166056180Y-121135283D01*
X165884717Y-120963820D01*
X165683097Y-120829102D01*
X165459069Y-120736307D01*
X165221243Y-120689000D01*
X164978757Y-120689000D01*
X164740931Y-120736307D01*
X164663833Y-120768242D01*
X164430999Y-120535408D01*
X164430999Y-120406654D01*
X164557051Y-120484799D01*
X164783019Y-120569495D01*
X164973000Y-120509187D01*
X164973000Y-119507000D01*
X165227000Y-119507000D01*
X165227000Y-120509187D01*
X165416981Y-120569495D01*
X165642949Y-120484799D01*
X165848052Y-120357647D01*
X166024408Y-120192924D01*
X166165239Y-119996961D01*
X166265134Y-119777288D01*
X166289489Y-119696980D01*
X166228627Y-119507000D01*
X165227000Y-119507000D01*
X164973000Y-119507000D01*
X164953000Y-119507000D01*
X164953000Y-119253000D01*
X164973000Y-119253000D01*
X164973000Y-118250813D01*
X165227000Y-118250813D01*
X165227000Y-119253000D01*
X166228627Y-119253000D01*
X166289489Y-119063020D01*
X166265134Y-118982712D01*
X166165239Y-118763039D01*
X166024408Y-118567076D01*
X165848052Y-118402353D01*
X165642949Y-118275201D01*
X165416981Y-118190505D01*
X165227000Y-118250813D01*
X164973000Y-118250813D01*
X164783019Y-118190505D01*
X164557051Y-118275201D01*
X164430999Y-118353346D01*
X164430999Y-117866654D01*
X164557051Y-117944799D01*
X164783019Y-118029495D01*
X164973000Y-117969187D01*
X164973000Y-116967000D01*
X165227000Y-116967000D01*
X165227000Y-117969187D01*
X165416981Y-118029495D01*
X165642949Y-117944799D01*
X165848052Y-117817647D01*
X166024408Y-117652924D01*
X166165239Y-117456961D01*
X166265134Y-117237288D01*
X166289489Y-117156980D01*
X166228627Y-116967000D01*
X165227000Y-116967000D01*
X164973000Y-116967000D01*
X164953000Y-116967000D01*
X164953000Y-116713000D01*
X164973000Y-116713000D01*
X164973000Y-115710813D01*
X165227000Y-115710813D01*
X165227000Y-116713000D01*
X166228627Y-116713000D01*
X166289489Y-116523020D01*
X166265134Y-116442712D01*
X166165239Y-116223039D01*
X166024408Y-116027076D01*
X165848052Y-115862353D01*
X165642949Y-115735201D01*
X165416981Y-115650505D01*
X165227000Y-115710813D01*
X164973000Y-115710813D01*
X164783019Y-115650505D01*
X164557051Y-115735201D01*
X164351948Y-115862353D01*
X164175592Y-116027076D01*
X164034761Y-116223039D01*
X164030161Y-116233156D01*
X155957207Y-108160203D01*
X155957207Y-108017871D01*
X155927194Y-107866984D01*
X155868320Y-107724851D01*
X155782849Y-107596934D01*
X155674066Y-107488151D01*
X155546149Y-107402680D01*
X155404016Y-107343806D01*
X155253129Y-107313793D01*
X155110797Y-107313793D01*
X150003364Y-102206360D01*
X150102942Y-102165113D01*
X150230859Y-102079642D01*
X150331501Y-101979000D01*
X151659033Y-101979000D01*
X151707887Y-102096942D01*
X151793358Y-102224859D01*
X151902141Y-102333642D01*
X152030058Y-102419113D01*
X152172191Y-102477987D01*
X152323078Y-102508000D01*
X152476922Y-102508000D01*
X152627809Y-102477987D01*
X152769942Y-102419113D01*
X152897859Y-102333642D01*
X153006642Y-102224859D01*
X153092113Y-102096942D01*
X153150987Y-101954809D01*
X153181000Y-101803922D01*
X153181000Y-101650078D01*
X153150987Y-101499191D01*
X153098651Y-101372843D01*
X153150000Y-101372843D01*
X153224689Y-101365487D01*
X153296508Y-101343701D01*
X153362696Y-101308322D01*
X153420711Y-101260711D01*
X153468322Y-101202696D01*
X153503701Y-101136508D01*
X153525487Y-101064689D01*
X153532843Y-100990000D01*
X153532843Y-99490000D01*
X153525487Y-99415311D01*
X153503701Y-99343492D01*
X153468322Y-99277304D01*
X153420711Y-99219289D01*
X153362696Y-99171678D01*
X153296508Y-99136299D01*
X153224689Y-99114513D01*
X153150000Y-99107157D01*
X152525000Y-99107157D01*
X152525000Y-94497497D01*
X152614025Y-94605975D01*
X152748175Y-94716068D01*
X152901225Y-94797875D01*
X153067294Y-94848252D01*
X153196727Y-94861000D01*
X154783273Y-94861000D01*
X154912706Y-94848252D01*
X155078775Y-94797875D01*
X155231825Y-94716068D01*
X155365975Y-94605975D01*
X155464435Y-94486000D01*
X157397409Y-94486000D01*
X159768000Y-96856592D01*
X159768001Y-101204994D01*
X159520773Y-101452223D01*
X159501461Y-101468072D01*
X159438229Y-101545120D01*
X159391243Y-101633025D01*
X159362310Y-101728407D01*
X159354988Y-101802746D01*
X159354988Y-101802753D01*
X159352541Y-101827599D01*
X159354988Y-101852446D01*
X159354989Y-103125545D01*
X159352541Y-103150401D01*
X159362310Y-103249593D01*
X159391243Y-103344975D01*
X159411323Y-103382541D01*
X159438230Y-103432880D01*
X159501462Y-103509928D01*
X159520768Y-103525772D01*
X159768000Y-103773005D01*
X159768001Y-109449144D01*
X159765553Y-109474000D01*
X159775322Y-109573192D01*
X159804255Y-109668574D01*
X159822020Y-109701809D01*
X159851242Y-109756479D01*
X159914474Y-109833527D01*
X159933781Y-109849372D01*
X163909779Y-113825371D01*
X163909784Y-113825375D01*
X163948242Y-113863833D01*
X163916307Y-113940931D01*
X163869000Y-114178757D01*
X163869000Y-114421243D01*
X163916307Y-114659069D01*
X164009102Y-114883097D01*
X164143820Y-115084717D01*
X164315283Y-115256180D01*
X164516903Y-115390898D01*
X164740931Y-115483693D01*
X164978757Y-115531000D01*
X165221243Y-115531000D01*
X165459069Y-115483693D01*
X165683097Y-115390898D01*
X165884717Y-115256180D01*
X166056180Y-115084717D01*
X166190898Y-114883097D01*
X166283693Y-114659069D01*
X166331000Y-114421243D01*
X166331000Y-114178757D01*
X166283693Y-113940931D01*
X166190898Y-113716903D01*
X166056180Y-113515283D01*
X165884717Y-113343820D01*
X165683097Y-113209102D01*
X165459069Y-113116307D01*
X165221243Y-113069000D01*
X164978757Y-113069000D01*
X164740931Y-113116307D01*
X164663833Y-113148242D01*
X164625375Y-113109784D01*
X164625371Y-113109779D01*
X160780000Y-109264409D01*
X160780000Y-107139591D01*
X163417256Y-109776848D01*
X163416552Y-109784001D01*
X163418999Y-109808847D01*
X163418999Y-109808855D01*
X163426321Y-109883194D01*
X163455254Y-109978576D01*
X163502241Y-110066480D01*
X163565473Y-110143528D01*
X163584779Y-110159372D01*
X164160627Y-110735221D01*
X164176472Y-110754528D01*
X164253520Y-110817760D01*
X164284685Y-110834418D01*
X164143820Y-110975283D01*
X164009102Y-111176903D01*
X163916307Y-111400931D01*
X163869000Y-111638757D01*
X163869000Y-111881243D01*
X163916307Y-112119069D01*
X164009102Y-112343097D01*
X164143820Y-112544717D01*
X164315283Y-112716180D01*
X164516903Y-112850898D01*
X164740931Y-112943693D01*
X164978757Y-112991000D01*
X165221243Y-112991000D01*
X165459069Y-112943693D01*
X165683097Y-112850898D01*
X165884717Y-112716180D01*
X166056180Y-112544717D01*
X166190898Y-112343097D01*
X166283693Y-112119069D01*
X166331000Y-111881243D01*
X166331000Y-111638757D01*
X166283693Y-111400931D01*
X166190898Y-111176903D01*
X166056180Y-110975283D01*
X165884717Y-110803820D01*
X165683097Y-110669102D01*
X165606000Y-110637168D01*
X165606000Y-110582773D01*
X165608448Y-110557919D01*
X165598678Y-110458726D01*
X165569745Y-110363345D01*
X165569745Y-110363344D01*
X165567341Y-110358846D01*
X165683097Y-110310898D01*
X165884717Y-110176180D01*
X166056180Y-110004717D01*
X166190898Y-109803097D01*
X166283693Y-109579069D01*
X166331000Y-109341243D01*
X166331000Y-109098757D01*
X166283693Y-108860931D01*
X166190898Y-108636903D01*
X166056180Y-108435283D01*
X165884717Y-108263820D01*
X165683097Y-108129102D01*
X165459069Y-108036307D01*
X165221243Y-107989000D01*
X164978757Y-107989000D01*
X164740931Y-108036307D01*
X164663833Y-108068242D01*
X161738011Y-105142420D01*
X161738011Y-103570584D01*
X161740458Y-103545738D01*
X161738011Y-103520892D01*
X161738011Y-103520885D01*
X161737353Y-103514201D01*
X161809058Y-103562113D01*
X161951191Y-103620987D01*
X162102078Y-103651000D01*
X162244409Y-103651000D01*
X162693989Y-104100581D01*
X162693990Y-104557498D01*
X162593347Y-104658141D01*
X162507876Y-104786058D01*
X162449002Y-104928191D01*
X162418989Y-105079078D01*
X162418989Y-105232922D01*
X162449002Y-105383809D01*
X162507876Y-105525942D01*
X162593347Y-105653859D01*
X162702130Y-105762642D01*
X162830047Y-105848113D01*
X162972180Y-105906987D01*
X163123067Y-105937000D01*
X163276911Y-105937000D01*
X163427798Y-105906987D01*
X163569931Y-105848113D01*
X163585781Y-105837523D01*
X163588082Y-105841828D01*
X163624244Y-105909481D01*
X163687476Y-105986529D01*
X163706782Y-106002373D01*
X163948242Y-106243833D01*
X163916307Y-106320931D01*
X163869000Y-106558757D01*
X163869000Y-106801243D01*
X163916307Y-107039069D01*
X164009102Y-107263097D01*
X164143820Y-107464717D01*
X164315283Y-107636180D01*
X164516903Y-107770898D01*
X164740931Y-107863693D01*
X164978757Y-107911000D01*
X165221243Y-107911000D01*
X165459069Y-107863693D01*
X165683097Y-107770898D01*
X165884717Y-107636180D01*
X166056180Y-107464717D01*
X166190898Y-107263097D01*
X166283693Y-107039069D01*
X166331000Y-106801243D01*
X166331000Y-106558757D01*
X166283693Y-106320931D01*
X166190898Y-106096903D01*
X166056180Y-105895283D01*
X165884717Y-105723820D01*
X165683097Y-105589102D01*
X165459069Y-105496307D01*
X165221243Y-105449000D01*
X164978757Y-105449000D01*
X164740931Y-105496307D01*
X164663833Y-105528242D01*
X164553002Y-105417411D01*
X164553002Y-105245851D01*
X164740931Y-105323693D01*
X164978757Y-105371000D01*
X165221243Y-105371000D01*
X165459069Y-105323693D01*
X165683097Y-105230898D01*
X165884717Y-105096180D01*
X166056180Y-104924717D01*
X166190898Y-104723097D01*
X166283693Y-104499069D01*
X166331000Y-104261243D01*
X166331000Y-104018757D01*
X166283693Y-103780931D01*
X166190898Y-103556903D01*
X166056180Y-103355283D01*
X165884717Y-103183820D01*
X165683097Y-103049102D01*
X165459069Y-102956307D01*
X165221243Y-102909000D01*
X164978757Y-102909000D01*
X164848859Y-102934839D01*
X164667155Y-102753134D01*
X164740931Y-102783693D01*
X164978757Y-102831000D01*
X165221243Y-102831000D01*
X165459069Y-102783693D01*
X165683097Y-102690898D01*
X165884717Y-102556180D01*
X166056180Y-102384717D01*
X166190898Y-102183097D01*
X166283693Y-101959069D01*
X166331000Y-101721243D01*
X166331000Y-101478757D01*
X166283693Y-101240931D01*
X166190898Y-101016903D01*
X166056180Y-100815283D01*
X165884717Y-100643820D01*
X165683097Y-100509102D01*
X165459069Y-100416307D01*
X165221243Y-100369000D01*
X164978757Y-100369000D01*
X164740931Y-100416307D01*
X164663833Y-100448242D01*
X163758989Y-99543398D01*
X163758989Y-98434580D01*
X163948242Y-98623833D01*
X163916307Y-98700931D01*
X163869000Y-98938757D01*
X163869000Y-99181243D01*
X163916307Y-99419069D01*
X164009102Y-99643097D01*
X164143820Y-99844717D01*
X164315283Y-100016180D01*
X164516903Y-100150898D01*
X164740931Y-100243693D01*
X164978757Y-100291000D01*
X165221243Y-100291000D01*
X165459069Y-100243693D01*
X165683097Y-100150898D01*
X165884717Y-100016180D01*
X166056180Y-99844717D01*
X166190898Y-99643097D01*
X166283693Y-99419069D01*
X166331000Y-99181243D01*
X166331000Y-98938757D01*
X166283693Y-98700931D01*
X166190898Y-98476903D01*
X166056180Y-98275283D01*
X165884717Y-98103820D01*
X165683097Y-97969102D01*
X165459069Y-97876307D01*
X165221243Y-97829000D01*
X164978757Y-97829000D01*
X164740931Y-97876307D01*
X164663833Y-97908242D01*
X164209000Y-97453409D01*
X164209000Y-97369897D01*
X164315283Y-97476180D01*
X164516903Y-97610898D01*
X164740931Y-97703693D01*
X164978757Y-97751000D01*
X165221243Y-97751000D01*
X165459069Y-97703693D01*
X165683097Y-97610898D01*
X165884717Y-97476180D01*
X166056180Y-97304717D01*
X166190898Y-97103097D01*
X166283693Y-96879069D01*
X166331000Y-96641243D01*
X166331000Y-96398757D01*
X166283693Y-96160931D01*
X166190898Y-95936903D01*
X166056180Y-95735283D01*
X165884717Y-95563820D01*
X165683097Y-95429102D01*
X165459069Y-95336307D01*
X165221243Y-95289000D01*
X164978757Y-95289000D01*
X164740931Y-95336307D01*
X164524939Y-95425774D01*
X164512536Y-95410661D01*
X164493229Y-95394816D01*
X156521021Y-87422610D01*
X156521021Y-87126715D01*
X156523468Y-87101869D01*
X156521021Y-87077023D01*
X156521021Y-87077016D01*
X156513699Y-87002677D01*
X156484766Y-86907295D01*
X156437780Y-86819391D01*
X156374548Y-86742343D01*
X156355241Y-86726498D01*
X156071010Y-86442268D01*
X156071010Y-86043115D01*
X156073457Y-86018269D01*
X156071010Y-85993423D01*
X156071010Y-85993416D01*
X156063688Y-85919077D01*
X156048248Y-85868175D01*
X156034755Y-85823695D01*
X156031427Y-85817468D01*
X155987769Y-85735791D01*
X155924537Y-85658743D01*
X155905230Y-85642898D01*
X155588884Y-85326553D01*
X155592393Y-85314984D01*
X163913326Y-93635918D01*
X163869000Y-93858757D01*
X163869000Y-94101243D01*
X163916307Y-94339069D01*
X164009102Y-94563097D01*
X164143820Y-94764717D01*
X164315283Y-94936180D01*
X164516903Y-95070898D01*
X164740931Y-95163693D01*
X164978757Y-95211000D01*
X165221243Y-95211000D01*
X165459069Y-95163693D01*
X165683097Y-95070898D01*
X165884717Y-94936180D01*
X166056180Y-94764717D01*
X166190898Y-94563097D01*
X166283693Y-94339069D01*
X166331000Y-94101243D01*
X166331000Y-93858757D01*
X166283693Y-93620931D01*
X166190898Y-93396903D01*
X166056180Y-93195283D01*
X165884717Y-93023820D01*
X165683097Y-92889102D01*
X165459069Y-92796307D01*
X165221243Y-92749000D01*
X164978757Y-92749000D01*
X164740931Y-92796307D01*
X164574031Y-92865439D01*
X155616594Y-83908003D01*
X155625262Y-83820000D01*
X155608252Y-83647294D01*
X155557875Y-83481225D01*
X155476068Y-83328175D01*
X155365975Y-83194025D01*
X155354978Y-83185000D01*
X155365975Y-83175975D01*
X155464435Y-83056000D01*
X156000409Y-83056000D01*
X163948242Y-91003834D01*
X163916307Y-91080931D01*
X163869000Y-91318757D01*
X163869000Y-91561243D01*
X163916307Y-91799069D01*
X164009102Y-92023097D01*
X164143820Y-92224717D01*
X164315283Y-92396180D01*
X164516903Y-92530898D01*
X164740931Y-92623693D01*
X164978757Y-92671000D01*
X165221243Y-92671000D01*
X165459069Y-92623693D01*
X165683097Y-92530898D01*
X165884717Y-92396180D01*
X166056180Y-92224717D01*
X166190898Y-92023097D01*
X166283693Y-91799069D01*
X166331000Y-91561243D01*
X166331000Y-91318757D01*
X166283693Y-91080931D01*
X166190898Y-90856903D01*
X166056180Y-90655283D01*
X165884717Y-90483820D01*
X165683097Y-90349102D01*
X165459069Y-90256307D01*
X165221243Y-90209000D01*
X164978757Y-90209000D01*
X164740931Y-90256307D01*
X164663834Y-90288242D01*
X156585376Y-82209785D01*
X156569527Y-82190473D01*
X156492479Y-82127241D01*
X156404575Y-82080255D01*
X156309193Y-82051322D01*
X156234854Y-82044000D01*
X156234846Y-82044000D01*
X156210000Y-82041553D01*
X156185154Y-82044000D01*
X155464435Y-82044000D01*
X155365975Y-81924025D01*
X155354978Y-81915000D01*
X155365975Y-81905975D01*
X155464435Y-81786000D01*
X157270409Y-81786000D01*
X163948242Y-88463834D01*
X163916307Y-88540931D01*
X163869000Y-88778757D01*
X163869000Y-89021243D01*
X163916307Y-89259069D01*
X164009102Y-89483097D01*
X164143820Y-89684717D01*
X164315283Y-89856180D01*
X164516903Y-89990898D01*
X164740931Y-90083693D01*
X164978757Y-90131000D01*
X165221243Y-90131000D01*
X165459069Y-90083693D01*
X165683097Y-89990898D01*
X165884717Y-89856180D01*
X166056180Y-89684717D01*
X166190898Y-89483097D01*
X166283693Y-89259069D01*
X166331000Y-89021243D01*
X166331000Y-88778757D01*
X166283693Y-88540931D01*
X166190898Y-88316903D01*
X166056180Y-88115283D01*
X165884717Y-87943820D01*
X165683097Y-87809102D01*
X165459069Y-87716307D01*
X165221243Y-87669000D01*
X164978757Y-87669000D01*
X164740931Y-87716307D01*
X164663834Y-87748242D01*
X157855376Y-80939785D01*
X157839527Y-80920473D01*
X157762479Y-80857241D01*
X157674575Y-80810255D01*
X157579193Y-80781322D01*
X157504854Y-80774000D01*
X157504846Y-80774000D01*
X157480000Y-80771553D01*
X157455154Y-80774000D01*
X155464435Y-80774000D01*
X155365975Y-80654025D01*
X155354978Y-80645000D01*
X155365975Y-80635975D01*
X155464435Y-80516000D01*
X158540409Y-80516000D01*
X163948242Y-85923834D01*
X163916307Y-86000931D01*
X163869000Y-86238757D01*
X163869000Y-86481243D01*
X163916307Y-86719069D01*
X164009102Y-86943097D01*
X164143820Y-87144717D01*
X164315283Y-87316180D01*
X164516903Y-87450898D01*
X164740931Y-87543693D01*
X164978757Y-87591000D01*
X165221243Y-87591000D01*
X165459069Y-87543693D01*
X165683097Y-87450898D01*
X165884717Y-87316180D01*
X166056180Y-87144717D01*
X166190898Y-86943097D01*
X166283693Y-86719069D01*
X166331000Y-86481243D01*
X166331000Y-86238757D01*
X166283693Y-86000931D01*
X166190898Y-85776903D01*
X166056180Y-85575283D01*
X165884717Y-85403820D01*
X165683097Y-85269102D01*
X165459069Y-85176307D01*
X165221243Y-85129000D01*
X164978757Y-85129000D01*
X164740931Y-85176307D01*
X164663834Y-85208242D01*
X159125376Y-79669785D01*
X159109527Y-79650473D01*
X159032479Y-79587241D01*
X158944575Y-79540255D01*
X158849193Y-79511322D01*
X158774854Y-79504000D01*
X158774846Y-79504000D01*
X158750000Y-79501553D01*
X158725154Y-79504000D01*
X155464435Y-79504000D01*
X155365975Y-79384025D01*
X155354978Y-79375000D01*
X155365975Y-79365975D01*
X155464435Y-79246000D01*
X159810409Y-79246000D01*
X163948242Y-83383834D01*
X163916307Y-83460931D01*
X163869000Y-83698757D01*
X163869000Y-83941243D01*
X163916307Y-84179069D01*
X164009102Y-84403097D01*
X164143820Y-84604717D01*
X164315283Y-84776180D01*
X164516903Y-84910898D01*
X164740931Y-85003693D01*
X164978757Y-85051000D01*
X165221243Y-85051000D01*
X165459069Y-85003693D01*
X165683097Y-84910898D01*
X165884717Y-84776180D01*
X166056180Y-84604717D01*
X166190898Y-84403097D01*
X166283693Y-84179069D01*
X166331000Y-83941243D01*
X166331000Y-83698757D01*
X166283693Y-83460931D01*
X166190898Y-83236903D01*
X166056180Y-83035283D01*
X165884717Y-82863820D01*
X165683097Y-82729102D01*
X165459069Y-82636307D01*
X165221243Y-82589000D01*
X164978757Y-82589000D01*
X164740931Y-82636307D01*
X164663834Y-82668242D01*
X160395376Y-78399785D01*
X160379527Y-78380473D01*
X160302479Y-78317241D01*
X160214575Y-78270255D01*
X160119193Y-78241322D01*
X160044854Y-78234000D01*
X160044846Y-78234000D01*
X160020000Y-78231553D01*
X159995154Y-78234000D01*
X155464435Y-78234000D01*
X155365975Y-78114025D01*
X155354978Y-78105000D01*
X155365975Y-78095975D01*
X155464435Y-77976000D01*
X161080409Y-77976000D01*
X163948242Y-80843833D01*
X163916307Y-80920931D01*
X163869000Y-81158757D01*
X163869000Y-81401243D01*
X163916307Y-81639069D01*
X164009102Y-81863097D01*
X164143820Y-82064717D01*
X164315283Y-82236180D01*
X164516903Y-82370898D01*
X164740931Y-82463693D01*
X164978757Y-82511000D01*
X165221243Y-82511000D01*
X165459069Y-82463693D01*
X165683097Y-82370898D01*
X165884717Y-82236180D01*
X166056180Y-82064717D01*
X166190898Y-81863097D01*
X166283693Y-81639069D01*
X166331000Y-81401243D01*
X166331000Y-81158757D01*
X166283693Y-80920931D01*
X166190898Y-80696903D01*
X166056180Y-80495283D01*
X165884717Y-80323820D01*
X165683097Y-80189102D01*
X165459069Y-80096307D01*
X165221243Y-80049000D01*
X164978757Y-80049000D01*
X164740931Y-80096307D01*
X164663833Y-80128242D01*
X161665376Y-77129785D01*
X161649527Y-77110473D01*
X161572479Y-77047241D01*
X161484575Y-77000255D01*
X161389193Y-76971322D01*
X161314854Y-76964000D01*
X161314846Y-76964000D01*
X161290000Y-76961553D01*
X161265154Y-76964000D01*
X155464435Y-76964000D01*
X155365975Y-76844025D01*
X155354978Y-76835000D01*
X155365975Y-76825975D01*
X155464435Y-76706000D01*
X162350409Y-76706000D01*
X163948242Y-78303833D01*
X163916307Y-78380931D01*
X163869000Y-78618757D01*
X163869000Y-78861243D01*
X163916307Y-79099069D01*
X164009102Y-79323097D01*
X164143820Y-79524717D01*
X164315283Y-79696180D01*
X164516903Y-79830898D01*
X164740931Y-79923693D01*
X164978757Y-79971000D01*
X165221243Y-79971000D01*
X165459069Y-79923693D01*
X165683097Y-79830898D01*
X165884717Y-79696180D01*
X166056180Y-79524717D01*
X166190898Y-79323097D01*
X166283693Y-79099069D01*
X166331000Y-78861243D01*
X166331000Y-78618757D01*
X166283693Y-78380931D01*
X166190898Y-78156903D01*
X166056180Y-77955283D01*
X165884717Y-77783820D01*
X165683097Y-77649102D01*
X165459069Y-77556307D01*
X165221243Y-77509000D01*
X164978757Y-77509000D01*
X164740931Y-77556307D01*
X164663833Y-77588242D01*
X163154348Y-76078757D01*
X163869000Y-76078757D01*
X163869000Y-76321243D01*
X163916307Y-76559069D01*
X164009102Y-76783097D01*
X164143820Y-76984717D01*
X164315283Y-77156180D01*
X164516903Y-77290898D01*
X164740931Y-77383693D01*
X164978757Y-77431000D01*
X165221243Y-77431000D01*
X165459069Y-77383693D01*
X165683097Y-77290898D01*
X165884717Y-77156180D01*
X166056180Y-76984717D01*
X166190898Y-76783097D01*
X166283693Y-76559069D01*
X166331000Y-76321243D01*
X166331000Y-76078757D01*
X166283693Y-75840931D01*
X166190898Y-75616903D01*
X166056180Y-75415283D01*
X165884717Y-75243820D01*
X165683097Y-75109102D01*
X165459069Y-75016307D01*
X165221243Y-74969000D01*
X164978757Y-74969000D01*
X164740931Y-75016307D01*
X164516903Y-75109102D01*
X164315283Y-75243820D01*
X164143820Y-75415283D01*
X164009102Y-75616903D01*
X163916307Y-75840931D01*
X163869000Y-76078757D01*
X163154348Y-76078757D01*
X162935376Y-75859785D01*
X162919527Y-75840473D01*
X162842479Y-75777241D01*
X162754575Y-75730255D01*
X162659193Y-75701322D01*
X162584854Y-75694000D01*
X162584846Y-75694000D01*
X162560000Y-75691553D01*
X162535154Y-75694000D01*
X155464435Y-75694000D01*
X155365975Y-75574025D01*
X155231825Y-75463932D01*
X155078775Y-75382125D01*
X154912706Y-75331748D01*
X154783273Y-75319000D01*
X153196727Y-75319000D01*
X153067294Y-75331748D01*
X152901225Y-75382125D01*
X152748175Y-75463932D01*
X152614025Y-75574025D01*
X152503932Y-75708175D01*
X152422125Y-75861225D01*
X152371748Y-76027294D01*
X152354738Y-76200000D01*
X152371748Y-76372706D01*
X152422125Y-76538775D01*
X152503932Y-76691825D01*
X152614025Y-76825975D01*
X152625022Y-76835000D01*
X152614025Y-76844025D01*
X152503932Y-76978175D01*
X152422125Y-77131225D01*
X152371748Y-77297294D01*
X152354738Y-77470000D01*
X152371748Y-77642706D01*
X152422125Y-77808775D01*
X152503932Y-77961825D01*
X152614025Y-78095975D01*
X152625022Y-78105000D01*
X152614025Y-78114025D01*
X152503932Y-78248175D01*
X152422125Y-78401225D01*
X152371748Y-78567294D01*
X152354738Y-78740000D01*
X152371748Y-78912706D01*
X152422125Y-79078775D01*
X152503932Y-79231825D01*
X152614025Y-79365975D01*
X152625022Y-79375000D01*
X152614025Y-79384025D01*
X152503932Y-79518175D01*
X152422125Y-79671225D01*
X152371748Y-79837294D01*
X152354738Y-80010000D01*
X152371748Y-80182706D01*
X152422125Y-80348775D01*
X152503932Y-80501825D01*
X152614025Y-80635975D01*
X152625022Y-80645000D01*
X152614025Y-80654025D01*
X152503932Y-80788175D01*
X152422125Y-80941225D01*
X152371748Y-81107294D01*
X152354738Y-81280000D01*
X152371748Y-81452706D01*
X152422125Y-81618775D01*
X152503932Y-81771825D01*
X152614025Y-81905975D01*
X152625022Y-81915000D01*
X152614025Y-81924025D01*
X152503932Y-82058175D01*
X152422125Y-82211225D01*
X152371748Y-82377294D01*
X152354738Y-82550000D01*
X152371748Y-82722706D01*
X152422125Y-82888775D01*
X152503932Y-83041825D01*
X152614025Y-83175975D01*
X152625022Y-83185000D01*
X152614025Y-83194025D01*
X152503932Y-83328175D01*
X152422125Y-83481225D01*
X152371748Y-83647294D01*
X152354738Y-83820000D01*
X152371748Y-83992706D01*
X152422125Y-84158775D01*
X152503932Y-84311825D01*
X152614025Y-84445975D01*
X152625022Y-84455000D01*
X152614025Y-84464025D01*
X152503932Y-84598175D01*
X152422125Y-84751225D01*
X152371748Y-84917294D01*
X152354738Y-85090000D01*
X152371748Y-85262706D01*
X152422125Y-85428775D01*
X152503932Y-85581825D01*
X152614025Y-85715975D01*
X152625022Y-85725000D01*
X152614025Y-85734025D01*
X152503932Y-85868175D01*
X152484780Y-85904007D01*
X152465627Y-85868175D01*
X152441759Y-85823521D01*
X152378527Y-85746473D01*
X152359220Y-85730628D01*
X150108376Y-83479785D01*
X150092527Y-83460473D01*
X150015479Y-83397241D01*
X149927575Y-83350255D01*
X149832193Y-83321322D01*
X149757854Y-83314000D01*
X149757846Y-83314000D01*
X149733000Y-83311553D01*
X149708154Y-83314000D01*
X137044435Y-83314000D01*
X136945975Y-83194025D01*
X136934978Y-83185000D01*
X136945975Y-83175975D01*
X137056068Y-83041825D01*
X137137875Y-82888775D01*
X137188252Y-82722706D01*
X137205262Y-82550000D01*
X137188252Y-82377294D01*
X137137875Y-82211225D01*
X137056068Y-82058175D01*
X136945975Y-81924025D01*
X136934978Y-81915000D01*
X136945975Y-81905975D01*
X137056068Y-81771825D01*
X137137875Y-81618775D01*
X137188252Y-81452706D01*
X137205262Y-81280000D01*
X137188252Y-81107294D01*
X137137875Y-80941225D01*
X137056068Y-80788175D01*
X136945975Y-80654025D01*
X136934978Y-80645000D01*
X136945975Y-80635975D01*
X137056068Y-80501825D01*
X137137875Y-80348775D01*
X137188252Y-80182706D01*
X137205262Y-80010000D01*
X137188252Y-79837294D01*
X137137875Y-79671225D01*
X137056068Y-79518175D01*
X136945975Y-79384025D01*
X136934978Y-79375000D01*
X136945975Y-79365975D01*
X137056068Y-79231825D01*
X137137875Y-79078775D01*
X137188252Y-78912706D01*
X137205262Y-78740000D01*
X137188252Y-78567294D01*
X137137875Y-78401225D01*
X137056068Y-78248175D01*
X136945975Y-78114025D01*
X136934978Y-78105000D01*
X136945975Y-78095975D01*
X137056068Y-77961825D01*
X137137875Y-77808775D01*
X137188252Y-77642706D01*
X137205262Y-77470000D01*
X137188252Y-77297294D01*
X137137875Y-77131225D01*
X137056068Y-76978175D01*
X136945975Y-76844025D01*
X136934978Y-76835000D01*
X136945975Y-76825975D01*
X137056068Y-76691825D01*
X137137875Y-76538775D01*
X137188252Y-76372706D01*
X137205262Y-76200000D01*
X137188252Y-76027294D01*
X137137875Y-75861225D01*
X137056068Y-75708175D01*
X136945975Y-75574025D01*
X136811825Y-75463932D01*
X136658775Y-75382125D01*
X136492706Y-75331748D01*
X136363273Y-75319000D01*
X134776727Y-75319000D01*
X134647294Y-75331748D01*
X134481225Y-75382125D01*
X134328175Y-75463932D01*
X134194025Y-75574025D01*
X134095565Y-75694000D01*
X125692843Y-75694000D01*
X125692843Y-75350000D01*
X125685487Y-75275311D01*
X125663701Y-75203492D01*
X125628322Y-75137304D01*
X125580711Y-75079289D01*
X125522696Y-75031678D01*
X125456508Y-74996299D01*
X125384689Y-74974513D01*
X125310000Y-74967157D01*
X123610000Y-74967157D01*
X123535311Y-74974513D01*
X123463492Y-74996299D01*
X123397304Y-75031678D01*
X123339289Y-75079289D01*
X123291678Y-75137304D01*
X123256299Y-75203492D01*
X123234513Y-75275311D01*
X123227157Y-75350000D01*
X122508778Y-75350000D01*
X122684170Y-75020136D01*
X122947157Y-74697683D01*
X123267773Y-74432447D01*
X123633795Y-74234540D01*
X124031291Y-74111494D01*
X124464137Y-74066000D01*
X165080146Y-74066000D01*
X165514115Y-74108551D01*
G37*
G04 #@! TD.AperFunction*
D18*
X146616473Y-102561528D02*
X146635779Y-102577372D01*
X146977627Y-102919221D01*
X146993472Y-102938528D01*
X147070520Y-103001760D01*
X147155272Y-103047061D01*
X147158424Y-103048746D01*
X147253806Y-103077679D01*
X147352999Y-103087449D01*
X147365613Y-103086207D01*
X151342961Y-107063555D01*
X151331678Y-107077304D01*
X151296299Y-107143492D01*
X151274513Y-107215311D01*
X151267157Y-107290000D01*
X151269000Y-107817750D01*
X151364250Y-107913000D01*
X152273000Y-107913000D01*
X152273000Y-107893000D01*
X152527000Y-107893000D01*
X152527000Y-107913000D01*
X153435750Y-107913000D01*
X153531000Y-107817750D01*
X153531056Y-107801645D01*
X153881706Y-108152295D01*
X153881706Y-108354448D01*
X153879259Y-108379294D01*
X153881706Y-108404140D01*
X153881706Y-108404148D01*
X153884773Y-108435283D01*
X153889028Y-108478486D01*
X153917961Y-108573868D01*
X153939833Y-108614786D01*
X153964948Y-108661773D01*
X154028180Y-108738821D01*
X154031819Y-108741807D01*
X153935058Y-108781887D01*
X153807141Y-108867358D01*
X153706499Y-108968000D01*
X153486868Y-108968000D01*
X153503701Y-108936508D01*
X153525487Y-108864689D01*
X153532843Y-108790000D01*
X153531000Y-108262250D01*
X153435750Y-108167000D01*
X152527000Y-108167000D01*
X152527000Y-108187000D01*
X152273000Y-108187000D01*
X152273000Y-108167000D01*
X151364250Y-108167000D01*
X151269000Y-108262250D01*
X151267157Y-108790000D01*
X151274513Y-108864689D01*
X151296299Y-108936508D01*
X151330267Y-109000056D01*
X151316425Y-109004255D01*
X151228521Y-109051241D01*
X151151473Y-109114473D01*
X151135628Y-109133780D01*
X149925409Y-110344000D01*
X149783078Y-110344000D01*
X149632191Y-110374013D01*
X149490058Y-110432887D01*
X149362141Y-110518358D01*
X149253358Y-110627141D01*
X149167887Y-110755058D01*
X149109013Y-110897191D01*
X149079000Y-111048078D01*
X149079000Y-111201922D01*
X149109013Y-111352809D01*
X149137731Y-111422140D01*
X146887326Y-109171735D01*
X147097750Y-109171000D01*
X147193000Y-109075750D01*
X147193000Y-108167000D01*
X147447000Y-108167000D01*
X147447000Y-109075750D01*
X147542250Y-109171000D01*
X148070000Y-109172843D01*
X148144689Y-109165487D01*
X148216508Y-109143701D01*
X148282696Y-109108322D01*
X148340711Y-109060711D01*
X148388322Y-109002696D01*
X148423701Y-108936508D01*
X148445487Y-108864689D01*
X148452843Y-108790000D01*
X148451000Y-108262250D01*
X148355750Y-108167000D01*
X147447000Y-108167000D01*
X147193000Y-108167000D01*
X147173000Y-108167000D01*
X147173000Y-107913000D01*
X147193000Y-107913000D01*
X147193000Y-107004250D01*
X147447000Y-107004250D01*
X147447000Y-107913000D01*
X148355750Y-107913000D01*
X148451000Y-107817750D01*
X148452843Y-107290000D01*
X148445487Y-107215311D01*
X148423701Y-107143492D01*
X148388322Y-107077304D01*
X148340711Y-107019289D01*
X148282696Y-106971678D01*
X148216508Y-106936299D01*
X148144689Y-106914513D01*
X148070000Y-106907157D01*
X147542250Y-106909000D01*
X147447000Y-107004250D01*
X147193000Y-107004250D01*
X147097750Y-106909000D01*
X146570000Y-106907157D01*
X146556000Y-106908536D01*
X146556000Y-102487842D01*
X146616473Y-102561528D01*
G04 #@! TA.AperFunction,Conductor*
D19*
G36*
X146616473Y-102561528D02*
G01*
X146635779Y-102577372D01*
X146977627Y-102919221D01*
X146993472Y-102938528D01*
X147070520Y-103001760D01*
X147155272Y-103047061D01*
X147158424Y-103048746D01*
X147253806Y-103077679D01*
X147352999Y-103087449D01*
X147365613Y-103086207D01*
X151342961Y-107063555D01*
X151331678Y-107077304D01*
X151296299Y-107143492D01*
X151274513Y-107215311D01*
X151267157Y-107290000D01*
X151269000Y-107817750D01*
X151364250Y-107913000D01*
X152273000Y-107913000D01*
X152273000Y-107893000D01*
X152527000Y-107893000D01*
X152527000Y-107913000D01*
X153435750Y-107913000D01*
X153531000Y-107817750D01*
X153531056Y-107801645D01*
X153881706Y-108152295D01*
X153881706Y-108354448D01*
X153879259Y-108379294D01*
X153881706Y-108404140D01*
X153881706Y-108404148D01*
X153884773Y-108435283D01*
X153889028Y-108478486D01*
X153917961Y-108573868D01*
X153939833Y-108614786D01*
X153964948Y-108661773D01*
X154028180Y-108738821D01*
X154031819Y-108741807D01*
X153935058Y-108781887D01*
X153807141Y-108867358D01*
X153706499Y-108968000D01*
X153486868Y-108968000D01*
X153503701Y-108936508D01*
X153525487Y-108864689D01*
X153532843Y-108790000D01*
X153531000Y-108262250D01*
X153435750Y-108167000D01*
X152527000Y-108167000D01*
X152527000Y-108187000D01*
X152273000Y-108187000D01*
X152273000Y-108167000D01*
X151364250Y-108167000D01*
X151269000Y-108262250D01*
X151267157Y-108790000D01*
X151274513Y-108864689D01*
X151296299Y-108936508D01*
X151330267Y-109000056D01*
X151316425Y-109004255D01*
X151228521Y-109051241D01*
X151151473Y-109114473D01*
X151135628Y-109133780D01*
X149925409Y-110344000D01*
X149783078Y-110344000D01*
X149632191Y-110374013D01*
X149490058Y-110432887D01*
X149362141Y-110518358D01*
X149253358Y-110627141D01*
X149167887Y-110755058D01*
X149109013Y-110897191D01*
X149079000Y-111048078D01*
X149079000Y-111201922D01*
X149109013Y-111352809D01*
X149137731Y-111422140D01*
X146887326Y-109171735D01*
X147097750Y-109171000D01*
X147193000Y-109075750D01*
X147193000Y-108167000D01*
X147447000Y-108167000D01*
X147447000Y-109075750D01*
X147542250Y-109171000D01*
X148070000Y-109172843D01*
X148144689Y-109165487D01*
X148216508Y-109143701D01*
X148282696Y-109108322D01*
X148340711Y-109060711D01*
X148388322Y-109002696D01*
X148423701Y-108936508D01*
X148445487Y-108864689D01*
X148452843Y-108790000D01*
X148451000Y-108262250D01*
X148355750Y-108167000D01*
X147447000Y-108167000D01*
X147193000Y-108167000D01*
X147173000Y-108167000D01*
X147173000Y-107913000D01*
X147193000Y-107913000D01*
X147193000Y-107004250D01*
X147447000Y-107004250D01*
X147447000Y-107913000D01*
X148355750Y-107913000D01*
X148451000Y-107817750D01*
X148452843Y-107290000D01*
X148445487Y-107215311D01*
X148423701Y-107143492D01*
X148388322Y-107077304D01*
X148340711Y-107019289D01*
X148282696Y-106971678D01*
X148216508Y-106936299D01*
X148144689Y-106914513D01*
X148070000Y-106907157D01*
X147542250Y-106909000D01*
X147447000Y-107004250D01*
X147193000Y-107004250D01*
X147097750Y-106909000D01*
X146570000Y-106907157D01*
X146556000Y-106908536D01*
X146556000Y-102487842D01*
X146616473Y-102561528D01*
G37*
G04 #@! TD.AperFunction*
D18*
X143902058Y-102419113D02*
X143929998Y-102430686D01*
X143929999Y-107719411D01*
X143371056Y-108278354D01*
X143371000Y-108262250D01*
X143275750Y-108167000D01*
X142367000Y-108167000D01*
X142367000Y-109075750D01*
X142462250Y-109171000D01*
X142478354Y-109171056D01*
X140838787Y-110810624D01*
X140862000Y-110693922D01*
X140862000Y-110540078D01*
X140831987Y-110389191D01*
X140773113Y-110247058D01*
X140687642Y-110119141D01*
X140578859Y-110010358D01*
X140450942Y-109924887D01*
X140308809Y-109866013D01*
X140157922Y-109836000D01*
X140004078Y-109836000D01*
X139853191Y-109866013D01*
X139711058Y-109924887D01*
X139591169Y-110004994D01*
X139604768Y-109979552D01*
X139633701Y-109884170D01*
X139641023Y-109809831D01*
X139643471Y-109784977D01*
X139641023Y-109760123D01*
X139641023Y-109269566D01*
X140120589Y-108790000D01*
X141107157Y-108790000D01*
X141114513Y-108864689D01*
X141136299Y-108936508D01*
X141171678Y-109002696D01*
X141219289Y-109060711D01*
X141277304Y-109108322D01*
X141343492Y-109143701D01*
X141415311Y-109165487D01*
X141490000Y-109172843D01*
X142017750Y-109171000D01*
X142113000Y-109075750D01*
X142113000Y-108167000D01*
X141204250Y-108167000D01*
X141109000Y-108262250D01*
X141107157Y-108790000D01*
X140120589Y-108790000D01*
X141108944Y-107801646D01*
X141109000Y-107817750D01*
X141204250Y-107913000D01*
X142113000Y-107913000D01*
X142113000Y-107004250D01*
X142367000Y-107004250D01*
X142367000Y-107913000D01*
X143275750Y-107913000D01*
X143371000Y-107817750D01*
X143372843Y-107290000D01*
X143365487Y-107215311D01*
X143343701Y-107143492D01*
X143308322Y-107077304D01*
X143260711Y-107019289D01*
X143202696Y-106971678D01*
X143136508Y-106936299D01*
X143064689Y-106914513D01*
X142990000Y-106907157D01*
X142462250Y-106909000D01*
X142367000Y-107004250D01*
X142113000Y-107004250D01*
X142017750Y-106909000D01*
X142001646Y-106908944D01*
X143720220Y-105190370D01*
X143739527Y-105174525D01*
X143802759Y-105097477D01*
X143849745Y-105009573D01*
X143878678Y-104914191D01*
X143886000Y-104839852D01*
X143886000Y-104839845D01*
X143888447Y-104814999D01*
X143886000Y-104790153D01*
X143886000Y-102408383D01*
X143902058Y-102419113D01*
G04 #@! TA.AperFunction,Conductor*
D19*
G36*
X143902058Y-102419113D02*
G01*
X143929998Y-102430686D01*
X143929999Y-107719411D01*
X143371056Y-108278354D01*
X143371000Y-108262250D01*
X143275750Y-108167000D01*
X142367000Y-108167000D01*
X142367000Y-109075750D01*
X142462250Y-109171000D01*
X142478354Y-109171056D01*
X140838787Y-110810624D01*
X140862000Y-110693922D01*
X140862000Y-110540078D01*
X140831987Y-110389191D01*
X140773113Y-110247058D01*
X140687642Y-110119141D01*
X140578859Y-110010358D01*
X140450942Y-109924887D01*
X140308809Y-109866013D01*
X140157922Y-109836000D01*
X140004078Y-109836000D01*
X139853191Y-109866013D01*
X139711058Y-109924887D01*
X139591169Y-110004994D01*
X139604768Y-109979552D01*
X139633701Y-109884170D01*
X139641023Y-109809831D01*
X139643471Y-109784977D01*
X139641023Y-109760123D01*
X139641023Y-109269566D01*
X140120589Y-108790000D01*
X141107157Y-108790000D01*
X141114513Y-108864689D01*
X141136299Y-108936508D01*
X141171678Y-109002696D01*
X141219289Y-109060711D01*
X141277304Y-109108322D01*
X141343492Y-109143701D01*
X141415311Y-109165487D01*
X141490000Y-109172843D01*
X142017750Y-109171000D01*
X142113000Y-109075750D01*
X142113000Y-108167000D01*
X141204250Y-108167000D01*
X141109000Y-108262250D01*
X141107157Y-108790000D01*
X140120589Y-108790000D01*
X141108944Y-107801646D01*
X141109000Y-107817750D01*
X141204250Y-107913000D01*
X142113000Y-107913000D01*
X142113000Y-107004250D01*
X142367000Y-107004250D01*
X142367000Y-107913000D01*
X143275750Y-107913000D01*
X143371000Y-107817750D01*
X143372843Y-107290000D01*
X143365487Y-107215311D01*
X143343701Y-107143492D01*
X143308322Y-107077304D01*
X143260711Y-107019289D01*
X143202696Y-106971678D01*
X143136508Y-106936299D01*
X143064689Y-106914513D01*
X142990000Y-106907157D01*
X142462250Y-106909000D01*
X142367000Y-107004250D01*
X142113000Y-107004250D01*
X142017750Y-106909000D01*
X142001646Y-106908944D01*
X143720220Y-105190370D01*
X143739527Y-105174525D01*
X143802759Y-105097477D01*
X143849745Y-105009573D01*
X143878678Y-104914191D01*
X143886000Y-104839852D01*
X143886000Y-104839845D01*
X143888447Y-104814999D01*
X143886000Y-104790153D01*
X143886000Y-102408383D01*
X143902058Y-102419113D01*
G37*
G04 #@! TD.AperFunction*
D18*
X151513001Y-86315593D02*
X151513000Y-95235043D01*
X151383860Y-95156919D01*
X151261816Y-95118802D01*
X151127000Y-95184581D01*
X151127000Y-96583000D01*
X151147000Y-96583000D01*
X151147000Y-96837000D01*
X151127000Y-96837000D01*
X151127000Y-98235419D01*
X151261816Y-98301198D01*
X151383860Y-98263081D01*
X151513000Y-98184958D01*
X151513000Y-99133415D01*
X151503492Y-99136299D01*
X151437304Y-99171678D01*
X151379289Y-99219289D01*
X151331678Y-99277304D01*
X151296299Y-99343492D01*
X151274513Y-99415311D01*
X151267157Y-99490000D01*
X151267157Y-100967000D01*
X150331501Y-100967000D01*
X150230859Y-100866358D01*
X150102942Y-100780887D01*
X149960809Y-100722013D01*
X149809922Y-100692000D01*
X149656078Y-100692000D01*
X149505191Y-100722013D01*
X149363058Y-100780887D01*
X149235141Y-100866358D01*
X149126358Y-100975141D01*
X149040887Y-101103058D01*
X148999640Y-101202636D01*
X148966000Y-101168996D01*
X148966000Y-98184435D01*
X149085975Y-98085975D01*
X149092787Y-98077674D01*
X149196842Y-98172763D01*
X149346140Y-98263081D01*
X149468184Y-98301198D01*
X149603000Y-98235419D01*
X149603000Y-96837000D01*
X149857000Y-96837000D01*
X149857000Y-98235419D01*
X149991816Y-98301198D01*
X150113860Y-98263081D01*
X150263158Y-98172763D01*
X150365000Y-98079696D01*
X150466842Y-98172763D01*
X150616140Y-98263081D01*
X150738184Y-98301198D01*
X150873000Y-98235419D01*
X150873000Y-96837000D01*
X149857000Y-96837000D01*
X149603000Y-96837000D01*
X149583000Y-96837000D01*
X149583000Y-96583000D01*
X149603000Y-96583000D01*
X149603000Y-95184581D01*
X149857000Y-95184581D01*
X149857000Y-96583000D01*
X150873000Y-96583000D01*
X150873000Y-95184581D01*
X150738184Y-95118802D01*
X150616140Y-95156919D01*
X150466842Y-95247237D01*
X150365000Y-95340304D01*
X150263158Y-95247237D01*
X150113860Y-95156919D01*
X149991816Y-95118802D01*
X149857000Y-95184581D01*
X149603000Y-95184581D01*
X149468184Y-95118802D01*
X149346140Y-95156919D01*
X149196842Y-95247237D01*
X149092787Y-95342326D01*
X149091000Y-95340148D01*
X149091000Y-94896990D01*
X149094052Y-94866000D01*
X149091000Y-94835009D01*
X149091000Y-94835002D01*
X149081870Y-94742302D01*
X149045789Y-94623358D01*
X148987196Y-94513739D01*
X148928103Y-94441734D01*
X148928101Y-94441732D01*
X148908343Y-94417657D01*
X148884268Y-94397899D01*
X148346349Y-93859980D01*
X148436809Y-93841987D01*
X148578942Y-93783113D01*
X148706859Y-93697642D01*
X148815642Y-93588859D01*
X148901113Y-93460942D01*
X148959987Y-93318809D01*
X148990000Y-93167922D01*
X148990000Y-93014078D01*
X148959987Y-92863191D01*
X148901113Y-92721058D01*
X148815642Y-92593141D01*
X148706859Y-92484358D01*
X148578942Y-92398887D01*
X148436809Y-92340013D01*
X148285922Y-92310000D01*
X148143591Y-92310000D01*
X148113374Y-92279783D01*
X148097525Y-92260471D01*
X148020477Y-92197239D01*
X147932573Y-92150253D01*
X147837191Y-92121320D01*
X147762852Y-92113998D01*
X147762844Y-92113998D01*
X147737998Y-92111551D01*
X147713152Y-92113998D01*
X140097053Y-92113998D01*
X140197859Y-92046642D01*
X140306642Y-91937859D01*
X140392113Y-91809942D01*
X140450987Y-91667809D01*
X140481000Y-91516922D01*
X140481000Y-91363078D01*
X140450987Y-91212191D01*
X140392113Y-91070058D01*
X140306642Y-90942141D01*
X140197859Y-90833358D01*
X140069942Y-90747887D01*
X139927809Y-90689013D01*
X139776922Y-90659000D01*
X139623078Y-90659000D01*
X139472191Y-90689013D01*
X139330058Y-90747887D01*
X139202141Y-90833358D01*
X139101499Y-90934000D01*
X137044435Y-90934000D01*
X136945975Y-90814025D01*
X136934978Y-90805000D01*
X136945975Y-90795975D01*
X137056068Y-90661825D01*
X137137875Y-90508775D01*
X137188252Y-90342706D01*
X137205262Y-90170000D01*
X137188252Y-89997294D01*
X137137875Y-89831225D01*
X137056068Y-89678175D01*
X136945975Y-89544025D01*
X136934978Y-89535000D01*
X136945975Y-89525975D01*
X137056068Y-89391825D01*
X137137875Y-89238775D01*
X137188252Y-89072706D01*
X137205262Y-88900000D01*
X137188252Y-88727294D01*
X137137875Y-88561225D01*
X137056068Y-88408175D01*
X136945975Y-88274025D01*
X136934978Y-88265000D01*
X136945975Y-88255975D01*
X137056068Y-88121825D01*
X137137875Y-87968775D01*
X137188252Y-87802706D01*
X137205262Y-87630000D01*
X137188252Y-87457294D01*
X137137875Y-87291225D01*
X137056068Y-87138175D01*
X136945975Y-87004025D01*
X136934978Y-86995000D01*
X136945975Y-86985975D01*
X137044435Y-86866000D01*
X139101499Y-86866000D01*
X139202141Y-86966642D01*
X139330058Y-87052113D01*
X139472191Y-87110987D01*
X139623078Y-87141000D01*
X139776922Y-87141000D01*
X139927809Y-87110987D01*
X140069942Y-87052113D01*
X140197859Y-86966642D01*
X140306642Y-86857859D01*
X140392113Y-86729942D01*
X140450987Y-86587809D01*
X140481000Y-86436922D01*
X140481000Y-86283078D01*
X140450987Y-86132191D01*
X140392113Y-85990058D01*
X140306642Y-85862141D01*
X140197859Y-85753358D01*
X140069942Y-85667887D01*
X139927809Y-85609013D01*
X139776922Y-85579000D01*
X139623078Y-85579000D01*
X139472191Y-85609013D01*
X139330058Y-85667887D01*
X139202141Y-85753358D01*
X139101499Y-85854000D01*
X137044435Y-85854000D01*
X136945975Y-85734025D01*
X136934978Y-85725000D01*
X136945975Y-85715975D01*
X137056068Y-85581825D01*
X137137875Y-85428775D01*
X137188252Y-85262706D01*
X137205262Y-85090000D01*
X137188252Y-84917294D01*
X137137875Y-84751225D01*
X137056068Y-84598175D01*
X136945975Y-84464025D01*
X136934978Y-84455000D01*
X136945975Y-84445975D01*
X137044435Y-84326000D01*
X149523409Y-84326000D01*
X151513001Y-86315593D01*
G04 #@! TA.AperFunction,Conductor*
D19*
G36*
X151513001Y-86315593D02*
G01*
X151513000Y-95235043D01*
X151383860Y-95156919D01*
X151261816Y-95118802D01*
X151127000Y-95184581D01*
X151127000Y-96583000D01*
X151147000Y-96583000D01*
X151147000Y-96837000D01*
X151127000Y-96837000D01*
X151127000Y-98235419D01*
X151261816Y-98301198D01*
X151383860Y-98263081D01*
X151513000Y-98184958D01*
X151513000Y-99133415D01*
X151503492Y-99136299D01*
X151437304Y-99171678D01*
X151379289Y-99219289D01*
X151331678Y-99277304D01*
X151296299Y-99343492D01*
X151274513Y-99415311D01*
X151267157Y-99490000D01*
X151267157Y-100967000D01*
X150331501Y-100967000D01*
X150230859Y-100866358D01*
X150102942Y-100780887D01*
X149960809Y-100722013D01*
X149809922Y-100692000D01*
X149656078Y-100692000D01*
X149505191Y-100722013D01*
X149363058Y-100780887D01*
X149235141Y-100866358D01*
X149126358Y-100975141D01*
X149040887Y-101103058D01*
X148999640Y-101202636D01*
X148966000Y-101168996D01*
X148966000Y-98184435D01*
X149085975Y-98085975D01*
X149092787Y-98077674D01*
X149196842Y-98172763D01*
X149346140Y-98263081D01*
X149468184Y-98301198D01*
X149603000Y-98235419D01*
X149603000Y-96837000D01*
X149857000Y-96837000D01*
X149857000Y-98235419D01*
X149991816Y-98301198D01*
X150113860Y-98263081D01*
X150263158Y-98172763D01*
X150365000Y-98079696D01*
X150466842Y-98172763D01*
X150616140Y-98263081D01*
X150738184Y-98301198D01*
X150873000Y-98235419D01*
X150873000Y-96837000D01*
X149857000Y-96837000D01*
X149603000Y-96837000D01*
X149583000Y-96837000D01*
X149583000Y-96583000D01*
X149603000Y-96583000D01*
X149603000Y-95184581D01*
X149857000Y-95184581D01*
X149857000Y-96583000D01*
X150873000Y-96583000D01*
X150873000Y-95184581D01*
X150738184Y-95118802D01*
X150616140Y-95156919D01*
X150466842Y-95247237D01*
X150365000Y-95340304D01*
X150263158Y-95247237D01*
X150113860Y-95156919D01*
X149991816Y-95118802D01*
X149857000Y-95184581D01*
X149603000Y-95184581D01*
X149468184Y-95118802D01*
X149346140Y-95156919D01*
X149196842Y-95247237D01*
X149092787Y-95342326D01*
X149091000Y-95340148D01*
X149091000Y-94896990D01*
X149094052Y-94866000D01*
X149091000Y-94835009D01*
X149091000Y-94835002D01*
X149081870Y-94742302D01*
X149045789Y-94623358D01*
X148987196Y-94513739D01*
X148928103Y-94441734D01*
X148928101Y-94441732D01*
X148908343Y-94417657D01*
X148884268Y-94397899D01*
X148346349Y-93859980D01*
X148436809Y-93841987D01*
X148578942Y-93783113D01*
X148706859Y-93697642D01*
X148815642Y-93588859D01*
X148901113Y-93460942D01*
X148959987Y-93318809D01*
X148990000Y-93167922D01*
X148990000Y-93014078D01*
X148959987Y-92863191D01*
X148901113Y-92721058D01*
X148815642Y-92593141D01*
X148706859Y-92484358D01*
X148578942Y-92398887D01*
X148436809Y-92340013D01*
X148285922Y-92310000D01*
X148143591Y-92310000D01*
X148113374Y-92279783D01*
X148097525Y-92260471D01*
X148020477Y-92197239D01*
X147932573Y-92150253D01*
X147837191Y-92121320D01*
X147762852Y-92113998D01*
X147762844Y-92113998D01*
X147737998Y-92111551D01*
X147713152Y-92113998D01*
X140097053Y-92113998D01*
X140197859Y-92046642D01*
X140306642Y-91937859D01*
X140392113Y-91809942D01*
X140450987Y-91667809D01*
X140481000Y-91516922D01*
X140481000Y-91363078D01*
X140450987Y-91212191D01*
X140392113Y-91070058D01*
X140306642Y-90942141D01*
X140197859Y-90833358D01*
X140069942Y-90747887D01*
X139927809Y-90689013D01*
X139776922Y-90659000D01*
X139623078Y-90659000D01*
X139472191Y-90689013D01*
X139330058Y-90747887D01*
X139202141Y-90833358D01*
X139101499Y-90934000D01*
X137044435Y-90934000D01*
X136945975Y-90814025D01*
X136934978Y-90805000D01*
X136945975Y-90795975D01*
X137056068Y-90661825D01*
X137137875Y-90508775D01*
X137188252Y-90342706D01*
X137205262Y-90170000D01*
X137188252Y-89997294D01*
X137137875Y-89831225D01*
X137056068Y-89678175D01*
X136945975Y-89544025D01*
X136934978Y-89535000D01*
X136945975Y-89525975D01*
X137056068Y-89391825D01*
X137137875Y-89238775D01*
X137188252Y-89072706D01*
X137205262Y-88900000D01*
X137188252Y-88727294D01*
X137137875Y-88561225D01*
X137056068Y-88408175D01*
X136945975Y-88274025D01*
X136934978Y-88265000D01*
X136945975Y-88255975D01*
X137056068Y-88121825D01*
X137137875Y-87968775D01*
X137188252Y-87802706D01*
X137205262Y-87630000D01*
X137188252Y-87457294D01*
X137137875Y-87291225D01*
X137056068Y-87138175D01*
X136945975Y-87004025D01*
X136934978Y-86995000D01*
X136945975Y-86985975D01*
X137044435Y-86866000D01*
X139101499Y-86866000D01*
X139202141Y-86966642D01*
X139330058Y-87052113D01*
X139472191Y-87110987D01*
X139623078Y-87141000D01*
X139776922Y-87141000D01*
X139927809Y-87110987D01*
X140069942Y-87052113D01*
X140197859Y-86966642D01*
X140306642Y-86857859D01*
X140392113Y-86729942D01*
X140450987Y-86587809D01*
X140481000Y-86436922D01*
X140481000Y-86283078D01*
X140450987Y-86132191D01*
X140392113Y-85990058D01*
X140306642Y-85862141D01*
X140197859Y-85753358D01*
X140069942Y-85667887D01*
X139927809Y-85609013D01*
X139776922Y-85579000D01*
X139623078Y-85579000D01*
X139472191Y-85609013D01*
X139330058Y-85667887D01*
X139202141Y-85753358D01*
X139101499Y-85854000D01*
X137044435Y-85854000D01*
X136945975Y-85734025D01*
X136934978Y-85725000D01*
X136945975Y-85715975D01*
X137056068Y-85581825D01*
X137137875Y-85428775D01*
X137188252Y-85262706D01*
X137205262Y-85090000D01*
X137188252Y-84917294D01*
X137137875Y-84751225D01*
X137056068Y-84598175D01*
X136945975Y-84464025D01*
X136934978Y-84455000D01*
X136945975Y-84445975D01*
X137044435Y-84326000D01*
X149523409Y-84326000D01*
X151513001Y-86315593D01*
G37*
G04 #@! TD.AperFunction*
M02*
